<ttFont>
    <TTGlyph name="A" xMin="41" yMin="0" xMax="1626" yMax="1374">
      <contour>
        <pt x="1489" y="0" on="1"/>
        <pt x="1300" y="362" on="1"/>
        <pt x="367" y="362" on="1"/>
        <pt x="178" y="0" on="1"/>
        <pt x="41" y="0" on="1"/>
        <pt x="760" y="1374" on="1"/>
        <pt x="907" y="1374" on="1"/>
        <pt x="1626" y="0" on="1"/>
      </contour>
      <contour>
        <pt x="834" y="1253" on="1"/>
        <pt x="428" y="477" on="1"/>
        <pt x="1239" y="477" on="1"/>
      </contour>
    </TTGlyph>
    <TTGlyph name="AE" xMin="0" yMin="0" xMax="2247" yMax="1374">
      <contour>
        <pt x="1087" y="0" on="1"/>
        <pt x="1087" y="360" on="1"/>
        <pt x="401" y="360" on="1"/>
        <pt x="164" y="0" on="1"/>
        <pt x="0" y="0" on="1"/>
        <pt x="930" y="1374" on="1"/>
        <pt x="2232" y="1374" on="1"/>
        <pt x="2232" y="1257" on="1"/>
        <pt x="1223" y="1257" on="1"/>
        <pt x="1223" y="784" on="1"/>
        <pt x="2181" y="784" on="1"/>
        <pt x="2181" y="668" on="1"/>
        <pt x="1223" y="668" on="1"/>
        <pt x="1223" y="117" on="1"/>
        <pt x="2247" y="117" on="1"/>
        <pt x="2247" y="0" on="1"/>
      </contour>
      <contour>
        <pt x="477" y="477" on="1"/>
        <pt x="1087" y="477" on="1"/>
        <pt x="1087" y="1257" on="1"/>
        <pt x="993" y="1257" on="1"/>
      </contour>
    </TTGlyph>
    <TTGlyph name="AEacute" xMin="0" yMin="0" xMax="2247" yMax="1792">
      <component glyphName="AE" x="0" y="0" flags="0x204"/>
      <component glyphName="acute" x="973" y="362" flags="0x4"/>
    </TTGlyph>
    <TTGlyph name="Aacute" xMin="41" yMin="0" xMax="1626" yMax="1792">
      <component glyphName="A" x="0" y="0" flags="0x204"/>
      <component glyphName="acute" x="293" y="362" flags="0x4"/>
    </TTGlyph>
    <TTGlyph name="Abreve" xMin="41" yMin="0" xMax="1626" yMax="1751">
      <component glyphName="A" x="0" y="0" flags="0x204"/>
      <component glyphName="breve" x="293" y="362" flags="0x4"/>
    </TTGlyph>
    <TTGlyph name="Acircumflex" xMin="41" yMin="0" xMax="1626" yMax="1792">
      <component glyphName="A" x="0" y="0" flags="0x204"/>
      <component glyphName="circumflex" x="293" y="362" flags="0x4"/>
    </TTGlyph>
    <TTGlyph name="Adieresis" xMin="41" yMin="0" xMax="1626" yMax="1669">
      <component glyphName="A" x="0" y="0" flags="0x204"/>
      <component glyphName="dieresis" x="293" y="362" flags="0x4"/>
    </TTGlyph>
    <TTGlyph name="Agrave" xMin="41" yMin="0" xMax="1626" yMax="1792">
      <component glyphName="A" x="0" y="0" flags="0x204"/>
      <component glyphName="grave" x="293" y="362" flags="0x4"/>
    </TTGlyph>
    <TTGlyph name="Amacron" xMin="41" yMin="0" xMax="1626" yMax="1644">
      <component glyphName="A" x="0" y="0" flags="0x204"/>
      <component glyphName="macron" x="293" y="362" flags="0x4"/>
    </TTGlyph>
    <TTGlyph name="Aogonek" xMin="41" yMin="-356" xMax="1759" yMax="1374">
      <contour>
        <pt x="1626" y="0" on="1"/>
        <pt x="1583" y="-15" on="0"/>
        <pt x="1513" y="-57" on="0"/>
        <pt x="1463" y="-105" on="0"/>
        <pt x="1436" y="-157" on="0"/>
        <pt x="1436" y="-182" on="1"/>
        <pt x="1436" y="-224" on="0"/>
        <pt x="1510" y="-262" on="0"/>
        <pt x="1579" y="-262" on="1"/>
        <pt x="1629" y="-262" on="0"/>
        <pt x="1717" y="-247" on="0"/>
        <pt x="1759" y="-236" on="1"/>
        <pt x="1759" y="-338" on="1"/>
        <pt x="1718" y="-344" on="0"/>
        <pt x="1629" y="-356" on="0"/>
        <pt x="1563" y="-356" on="1"/>
        <pt x="1507" y="-356" on="0"/>
        <pt x="1418" y="-339" on="0"/>
        <pt x="1355" y="-302" on="0"/>
        <pt x="1321" y="-245" on="0"/>
        <pt x="1321" y="-205" on="1"/>
        <pt x="1321" y="-145" on="0"/>
        <pt x="1402" y="-42" on="0"/>
        <pt x="1487" y="4" on="1"/>
        <pt x="1300" y="362" on="1"/>
        <pt x="367" y="362" on="1"/>
        <pt x="178" y="0" on="1"/>
        <pt x="41" y="0" on="1"/>
        <pt x="760" y="1374" on="1"/>
        <pt x="907" y="1374" on="1"/>
      </contour>
      <contour>
        <pt x="834" y="1253" on="1"/>
        <pt x="428" y="477" on="1"/>
        <pt x="1239" y="477" on="1"/>
      </contour>
    </TTGlyph>
    <TTGlyph name="Aring" xMin="41" yMin="0" xMax="1626" yMax="1853">
      <component glyphName="A" x="0" y="0" flags="0x204"/>
      <component glyphName="ring" x="293" y="362" flags="0x4"/>
    </TTGlyph>
    <TTGlyph name="Atilde" xMin="41" yMin="0" xMax="1626" yMax="1730">
      <component glyphName="A" x="0" y="0" flags="0x204"/>
      <component glyphName="tilde" x="295" y="362" flags="0x4"/>
    </TTGlyph>
    <TTGlyph name="B" xMin="231" yMin="0" xMax="1593" yMax="1374">
      <contour>
        <pt x="1593" y="379" on="1"/>
        <pt x="1593" y="299" on="0"/>
        <pt x="1551" y="181" on="0"/>
        <pt x="1476" y="96" on="0"/>
        <pt x="1371" y="43" on="0"/>
        <pt x="1245" y="12" on="0"/>
        <pt x="1101" y="0" on="0"/>
        <pt x="1024" y="0" on="1"/>
        <pt x="231" y="0" on="1"/>
        <pt x="231" y="1374" on="1"/>
        <pt x="1006" y="1374" on="1"/>
        <pt x="1065" y="1374" on="0"/>
        <pt x="1183" y="1364" on="0"/>
        <pt x="1292" y="1337" on="0"/>
        <pt x="1385" y="1289" on="0"/>
        <pt x="1454" y="1211" on="0"/>
        <pt x="1493" y="1101" on="0"/>
        <pt x="1493" y="1026" on="1"/>
        <pt x="1493" y="959" on="0"/>
        <pt x="1460" y="861" on="0"/>
        <pt x="1393" y="791" on="0"/>
        <pt x="1289" y="746" on="0"/>
        <pt x="1219" y="733" on="1"/>
        <pt x="1319" y="726" on="0"/>
        <pt x="1461" y="672" on="0"/>
        <pt x="1551" y="582" on="0"/>
        <pt x="1593" y="457" on="0"/>
      </contour>
      <contour>
        <pt x="1376" y="1024" on="1"/>
        <pt x="1376" y="1053" on="0"/>
        <pt x="1368" y="1111" on="0"/>
        <pt x="1340" y="1164" on="0"/>
        <pt x="1287" y="1210" on="0"/>
        <pt x="1195" y="1243" on="0"/>
        <pt x="1060" y="1262" on="0"/>
        <pt x="965" y="1262" on="1"/>
        <pt x="356" y="1262" on="1"/>
        <pt x="356" y="782" on="1"/>
        <pt x="965" y="782" on="1"/>
        <pt x="1100" y="782" on="0"/>
        <pt x="1262" y="821" on="0"/>
        <pt x="1349" y="887" on="0"/>
        <pt x="1376" y="975" on="0"/>
      </contour>
      <contour>
        <pt x="1462" y="381" on="1"/>
        <pt x="1462" y="459" on="0"/>
        <pt x="1408" y="569" on="0"/>
        <pt x="1296" y="639" on="0"/>
        <pt x="1120" y="672" on="0"/>
        <pt x="999" y="672" on="1"/>
        <pt x="356" y="672" on="1"/>
        <pt x="356" y="113" on="1"/>
        <pt x="1016" y="113" on="1"/>
        <pt x="1141" y="113" on="0"/>
        <pt x="1312" y="142" on="0"/>
        <pt x="1417" y="207" on="0"/>
        <pt x="1462" y="309" on="0"/>
      </contour>
    </TTGlyph>
    <TTGlyph name="C" xMin="135" yMin="-27" xMax="1640" yMax="1399">
      <contour>
        <pt x="1568" y="79" on="0"/>
        <pt x="1427" y="29" on="0"/>
        <pt x="1275" y="-7" on="0"/>
        <pt x="1107" y="-27" on="0"/>
        <pt x="1008" y="-27" on="1"/>
        <pt x="886" y="-27" on="0"/>
        <pt x="661" y="13" on="0"/>
        <pt x="467" y="93" on="0"/>
        <pt x="309" y="212" on="0"/>
        <pt x="196" y="370" on="0"/>
        <pt x="135" y="568" on="0"/>
        <pt x="135" y="686" on="1"/>
        <pt x="135" y="804" on="0"/>
        <pt x="196" y="1002" on="0"/>
        <pt x="309" y="1160" on="0"/>
        <pt x="467" y="1279" on="0"/>
        <pt x="661" y="1359" on="0"/>
        <pt x="885" y="1399" on="0"/>
        <pt x="1008" y="1399" on="1"/>
        <pt x="1107" y="1399" on="0"/>
        <pt x="1275" y="1379" on="0"/>
        <pt x="1427" y="1343" on="0"/>
        <pt x="1568" y="1294" on="0"/>
        <pt x="1640" y="1264" on="1"/>
        <pt x="1640" y="1114" on="1"/>
        <pt x="1583" y="1150" on="0"/>
        <pt x="1453" y="1214" on="0"/>
        <pt x="1302" y="1262" on="0"/>
        <pt x="1130" y="1290" on="0"/>
        <pt x="1032" y="1290" on="1"/>
        <pt x="834" y="1290" on="0"/>
        <pt x="544" y="1204" on="0"/>
        <pt x="355" y="1047" on="0"/>
        <pt x="264" y="824" on="0"/>
        <pt x="264" y="686" on="1"/>
        <pt x="264" y="548" on="0"/>
        <pt x="355" y="326" on="0"/>
        <pt x="544" y="169" on="0"/>
        <pt x="834" y="84" on="0"/>
        <pt x="1032" y="84" on="1"/>
        <pt x="1130" y="84" on="0"/>
        <pt x="1305" y="112" on="0"/>
        <pt x="1458" y="160" on="0"/>
        <pt x="1587" y="223" on="0"/>
        <pt x="1640" y="258" on="1"/>
        <pt x="1640" y="109" on="1"/>
      </contour>
    </TTGlyph>
    <TTGlyph name="Cacute" xMin="135" yMin="-27" xMax="1640" yMax="1792">
      <component glyphName="C" x="0" y="0" flags="0x204"/>
      <component glyphName="acute" x="457" y="362" flags="0x4"/>
    </TTGlyph>
    <TTGlyph name="Ccaron" xMin="135" yMin="-27" xMax="1640" yMax="1792">
      <component glyphName="C" x="0" y="0" flags="0x204"/>
      <component glyphName="caron" x="457" y="362" flags="0x4"/>
    </TTGlyph>
    <TTGlyph name="Ccedilla" xMin="135" yMin="-401" xMax="1640" yMax="1399">
      <contour>
        <pt x="969" y="-98" on="1"/>
        <pt x="1013" y="-98" on="0"/>
        <pt x="1090" y="-112" on="0"/>
        <pt x="1147" y="-145" on="0"/>
        <pt x="1180" y="-200" on="0"/>
        <pt x="1180" y="-242" on="1"/>
        <pt x="1180" y="-287" on="0"/>
        <pt x="1143" y="-348" on="0"/>
        <pt x="1077" y="-385" on="0"/>
        <pt x="985" y="-401" on="0"/>
        <pt x="930" y="-401" on="1"/>
        <pt x="873" y="-401" on="0"/>
        <pt x="765" y="-384" on="0"/>
        <pt x="721" y="-375" on="1"/>
        <pt x="721" y="-274" on="1"/>
        <pt x="766" y="-290" on="0"/>
        <pt x="871" y="-311" on="0"/>
        <pt x="922" y="-311" on="1"/>
        <pt x="964" y="-311" on="0"/>
        <pt x="1022" y="-301" on="0"/>
        <pt x="1057" y="-283" on="0"/>
        <pt x="1072" y="-257" on="0"/>
        <pt x="1072" y="-242" on="1"/>
        <pt x="1072" y="-223" on="0"/>
        <pt x="1052" y="-197" on="0"/>
        <pt x="1018" y="-182" on="0"/>
        <pt x="975" y="-176" on="0"/>
        <pt x="951" y="-176" on="1"/>
        <pt x="925" y="-176" on="0"/>
        <pt x="871" y="-179" on="0"/>
        <pt x="848" y="-182" on="1"/>
        <pt x="907" y="-23" on="1"/>
        <pt x="839" y="-18" on="0"/>
        <pt x="773" y="-7" on="1"/>
        <pt x="661" y="13" on="0"/>
        <pt x="467" y="93" on="0"/>
        <pt x="309" y="212" on="0"/>
        <pt x="196" y="370" on="0"/>
        <pt x="135" y="568" on="0"/>
        <pt x="135" y="686" on="1"/>
        <pt x="135" y="804" on="0"/>
        <pt x="196" y="1002" on="0"/>
        <pt x="309" y="1160" on="0"/>
        <pt x="467" y="1279" on="0"/>
        <pt x="661" y="1359" on="0"/>
        <pt x="885" y="1399" on="0"/>
        <pt x="1008" y="1399" on="1"/>
        <pt x="1107" y="1399" on="0"/>
        <pt x="1275" y="1379" on="0"/>
        <pt x="1427" y="1343" on="0"/>
        <pt x="1568" y="1294" on="0"/>
        <pt x="1640" y="1264" on="1"/>
        <pt x="1640" y="1114" on="1"/>
        <pt x="1583" y="1150" on="0"/>
        <pt x="1453" y="1214" on="0"/>
        <pt x="1302" y="1262" on="0"/>
        <pt x="1130" y="1290" on="0"/>
        <pt x="1032" y="1290" on="1"/>
        <pt x="834" y="1290" on="0"/>
        <pt x="544" y="1204" on="0"/>
        <pt x="355" y="1047" on="0"/>
        <pt x="264" y="824" on="0"/>
        <pt x="264" y="686" on="1"/>
        <pt x="264" y="548" on="0"/>
        <pt x="355" y="326" on="0"/>
        <pt x="544" y="169" on="0"/>
        <pt x="834" y="84" on="0"/>
        <pt x="1032" y="84" on="1"/>
        <pt x="1130" y="84" on="0"/>
        <pt x="1305" y="112" on="0"/>
        <pt x="1458" y="160" on="0"/>
        <pt x="1587" y="223" on="0"/>
        <pt x="1640" y="258" on="1"/>
        <pt x="1640" y="109" on="1"/>
        <pt x="1568" y="79" on="0"/>
        <pt x="1427" y="29" on="0"/>
        <pt x="1275" y="-7" on="0"/>
        <pt x="1107" y="-27" on="0"/>
        <pt x="1008" y="-27" on="1"/>
        <pt x="996" y="-27" on="1"/>
      </contour>
    </TTGlyph>
    <TTGlyph name="Ccircumflex" xMin="135" yMin="-27" xMax="1640" yMax="1792">
      <component glyphName="C" x="0" y="0" flags="0x204"/>
      <component glyphName="circumflex" x="457" y="362" flags="0x4"/>
    </TTGlyph>
    <TTGlyph name="Cdotaccent" xMin="135" yMin="-27" xMax="1640" yMax="1675">
      <component glyphName="C" x="0" y="0" flags="0x204"/>
      <component glyphName="dotaccent" x="457" y="362" flags="0x4"/>
    </TTGlyph>
    <TTGlyph name="D" xMin="231" yMin="0" xMax="1731" yMax="1374">
      <contour>
        <pt x="1731" y="688" on="1"/>
        <pt x="1731" y="556" on="0"/>
        <pt x="1676" y="351" on="0"/>
        <pt x="1576" y="199" on="0"/>
        <pt x="1433" y="93" on="0"/>
        <pt x="1258" y="29" on="0"/>
        <pt x="1053" y="0" on="0"/>
        <pt x="940" y="0" on="1"/>
        <pt x="231" y="0" on="1"/>
        <pt x="231" y="1374" on="1"/>
        <pt x="938" y="1374" on="1"/>
        <pt x="1107" y="1374" on="0"/>
        <pt x="1397" y="1308" on="0"/>
        <pt x="1610" y="1149" on="0"/>
        <pt x="1731" y="885" on="0"/>
      </contour>
      <contour>
        <pt x="1602" y="688" on="1"/>
        <pt x="1602" y="800" on="0"/>
        <pt x="1558" y="972" on="0"/>
        <pt x="1476" y="1099" on="0"/>
        <pt x="1358" y="1185" on="0"/>
        <pt x="1210" y="1238" on="0"/>
        <pt x="1036" y="1260" on="0"/>
        <pt x="938" y="1260" on="1"/>
        <pt x="356" y="1260" on="1"/>
        <pt x="356" y="115" on="1"/>
        <pt x="938" y="115" on="1"/>
        <pt x="1085" y="115" on="0"/>
        <pt x="1329" y="168" on="0"/>
        <pt x="1504" y="299" on="0"/>
        <pt x="1602" y="520" on="0"/>
      </contour>
    </TTGlyph>
    <TTGlyph name="Dcaron" xMin="231" yMin="0" xMax="1731" yMax="1792">
      <component glyphName="D" x="0" y="0" flags="0x204"/>
      <component glyphName="caron" x="244" y="362" flags="0x4"/>
    </TTGlyph>
    <TTGlyph name="Dcroat" xMin="31" yMin="0" xMax="1731" yMax="1374">
      <contour>
        <pt x="1731" y="688" on="1"/>
        <pt x="1731" y="530" on="0"/>
        <pt x="1657" y="305" on="0"/>
        <pt x="1526" y="152" on="0"/>
        <pt x="1345" y="61" on="0"/>
        <pt x="1130" y="14" on="0"/>
        <pt x="889" y="0" on="0"/>
        <pt x="764" y="0" on="1"/>
        <pt x="231" y="0" on="1"/>
        <pt x="231" y="651" on="1"/>
        <pt x="31" y="651" on="1"/>
        <pt x="31" y="754" on="1"/>
        <pt x="231" y="754" on="1"/>
        <pt x="231" y="1374" on="1"/>
        <pt x="762" y="1374" on="1"/>
        <pt x="887" y="1374" on="0"/>
        <pt x="1129" y="1360" on="0"/>
        <pt x="1344" y="1313" on="0"/>
        <pt x="1525" y="1223" on="0"/>
        <pt x="1657" y="1070" on="0"/>
        <pt x="1731" y="846" on="0"/>
      </contour>
      <contour>
        <pt x="1602" y="688" on="1"/>
        <pt x="1602" y="851" on="0"/>
        <pt x="1502" y="1071" on="0"/>
        <pt x="1300" y="1204" on="0"/>
        <pt x="996" y="1260" on="0"/>
        <pt x="793" y="1260" on="1"/>
        <pt x="356" y="1260" on="1"/>
        <pt x="356" y="754" on="1"/>
        <pt x="918" y="754" on="1"/>
        <pt x="918" y="651" on="1"/>
        <pt x="356" y="651" on="1"/>
        <pt x="356" y="115" on="1"/>
        <pt x="793" y="115" on="1"/>
        <pt x="901" y="115" on="0"/>
        <pt x="1105" y="126" on="0"/>
        <pt x="1285" y="164" on="0"/>
        <pt x="1434" y="238" on="0"/>
        <pt x="1542" y="366" on="0"/>
        <pt x="1602" y="554" on="0"/>
      </contour>
    </TTGlyph>
    <TTGlyph name="E" xMin="231" yMin="0" xMax="1391" yMax="1374">
      <contour>
        <pt x="231" y="0" on="1"/>
        <pt x="231" y="1374" on="1"/>
        <pt x="1376" y="1374" on="1"/>
        <pt x="1376" y="1257" on="1"/>
        <pt x="367" y="1257" on="1"/>
        <pt x="367" y="784" on="1"/>
        <pt x="1325" y="784" on="1"/>
        <pt x="1325" y="668" on="1"/>
        <pt x="367" y="668" on="1"/>
        <pt x="367" y="117" on="1"/>
        <pt x="1391" y="117" on="1"/>
        <pt x="1391" y="0" on="1"/>
      </contour>
    </TTGlyph>
    <TTGlyph name="Eacute" xMin="231" yMin="0" xMax="1391" yMax="1792">
      <component glyphName="E" x="0" y="0" flags="0x204"/>
      <component glyphName="acute" x="252" y="362" flags="0x4"/>
    </TTGlyph>
    <TTGlyph name="Ebreve" xMin="231" yMin="0" xMax="1391" yMax="1751">
      <component glyphName="E" x="0" y="0" flags="0x204"/>
      <component glyphName="breve" x="252" y="362" flags="0x4"/>
    </TTGlyph>
    <TTGlyph name="Ecaron" xMin="231" yMin="0" xMax="1391" yMax="1792">
      <component glyphName="E" x="0" y="0" flags="0x204"/>
      <component glyphName="caron" x="252" y="362" flags="0x4"/>
    </TTGlyph>
    <TTGlyph name="Ecircumflex" xMin="231" yMin="0" xMax="1391" yMax="1792">
      <component glyphName="E" x="0" y="0" flags="0x204"/>
      <component glyphName="circumflex" x="252" y="362" flags="0x4"/>
    </TTGlyph>
    <TTGlyph name="Edieresis" xMin="231" yMin="0" xMax="1391" yMax="1669">
      <component glyphName="E" x="0" y="0" flags="0x204"/>
      <component glyphName="dieresis" x="252" y="362" flags="0x4"/>
    </TTGlyph>
    <TTGlyph name="Edotaccent" xMin="231" yMin="0" xMax="1391" yMax="1675">
      <component glyphName="E" x="0" y="0" flags="0x204"/>
      <component glyphName="dotaccent" x="252" y="362" flags="0x4"/>
    </TTGlyph>
    <TTGlyph name="Egrave" xMin="231" yMin="0" xMax="1391" yMax="1792">
      <component glyphName="E" x="0" y="0" flags="0x204"/>
      <component glyphName="grave" x="252" y="362" flags="0x4"/>
    </TTGlyph>
    <TTGlyph name="Emacron" xMin="231" yMin="0" xMax="1391" yMax="1644">
      <component glyphName="E" x="0" y="0" flags="0x204"/>
      <component glyphName="macron" x="252" y="362" flags="0x4"/>
    </TTGlyph>
    <TTGlyph name="Eng" xMin="231" yMin="-16" xMax="1686" yMax="1374">
      <contour>
        <pt x="1686" y="440" on="1"/>
        <pt x="1686" y="326" on="0"/>
        <pt x="1619" y="155" on="0"/>
        <pt x="1490" y="41" on="0"/>
        <pt x="1302" y="-16" on="0"/>
        <pt x="1182" y="-16" on="1"/>
        <pt x="1107" y="-16" on="0"/>
        <pt x="993" y="-3" on="0"/>
        <pt x="902" y="17" on="0"/>
        <pt x="823" y="40" on="0"/>
        <pt x="782" y="51" on="1"/>
        <pt x="782" y="180" on="1"/>
        <pt x="824" y="164" on="0"/>
        <pt x="902" y="134" on="0"/>
        <pt x="998" y="110" on="0"/>
        <pt x="1124" y="96" on="0"/>
        <pt x="1214" y="96" on="1"/>
        <pt x="1348" y="96" on="0"/>
        <pt x="1519" y="214" on="0"/>
        <pt x="1548" y="326" on="1"/>
        <pt x="1546" y="326" on="1"/>
        <pt x="356" y="1237" on="1"/>
        <pt x="356" y="0" on="1"/>
        <pt x="231" y="0" on="1"/>
        <pt x="231" y="1374" on="1"/>
        <pt x="369" y="1374" on="1"/>
        <pt x="1561" y="463" on="1"/>
        <pt x="1561" y="1374" on="1"/>
        <pt x="1686" y="1374" on="1"/>
      </contour>
    </TTGlyph>
    <TTGlyph name="Eogonek" xMin="231" yMin="-356" xMax="1391" yMax="1374">
      <contour>
        <pt x="1312" y="0" on="0"/>
        <pt x="1191" y="-39" on="0"/>
        <pt x="1109" y="-96" on="0"/>
        <pt x="1067" y="-158" on="0"/>
        <pt x="1067" y="-182" on="1"/>
        <pt x="1067" y="-224" on="0"/>
        <pt x="1141" y="-262" on="0"/>
        <pt x="1210" y="-262" on="1"/>
        <pt x="1260" y="-262" on="0"/>
        <pt x="1349" y="-247" on="0"/>
        <pt x="1391" y="-236" on="1"/>
        <pt x="1391" y="-338" on="1"/>
        <pt x="1349" y="-344" on="0"/>
        <pt x="1260" y="-356" on="0"/>
        <pt x="1194" y="-356" on="1"/>
        <pt x="1139" y="-356" on="0"/>
        <pt x="1049" y="-339" on="0"/>
        <pt x="986" y="-302" on="0"/>
        <pt x="952" y="-245" on="0"/>
        <pt x="952" y="-205" on="1"/>
        <pt x="952" y="-146" on="0"/>
        <pt x="1030" y="-46" on="0"/>
        <pt x="1108" y="0" on="1"/>
        <pt x="231" y="0" on="1"/>
        <pt x="231" y="1374" on="1"/>
        <pt x="1376" y="1374" on="1"/>
        <pt x="1376" y="1257" on="1"/>
        <pt x="367" y="1257" on="1"/>
        <pt x="367" y="784" on="1"/>
        <pt x="1325" y="784" on="1"/>
        <pt x="1325" y="668" on="1"/>
        <pt x="367" y="668" on="1"/>
        <pt x="367" y="117" on="1"/>
        <pt x="1391" y="117" on="1"/>
        <pt x="1391" y="0" on="1"/>
      </contour>
    </TTGlyph>
    <TTGlyph name="Eth" xMin="31" yMin="0" xMax="1731" yMax="1374">
      <contour>
        <pt x="1731" y="688" on="1"/>
        <pt x="1731" y="530" on="0"/>
        <pt x="1657" y="305" on="0"/>
        <pt x="1526" y="152" on="0"/>
        <pt x="1345" y="61" on="0"/>
        <pt x="1130" y="14" on="0"/>
        <pt x="889" y="0" on="0"/>
        <pt x="764" y="0" on="1"/>
        <pt x="231" y="0" on="1"/>
        <pt x="231" y="651" on="1"/>
        <pt x="31" y="651" on="1"/>
        <pt x="31" y="754" on="1"/>
        <pt x="231" y="754" on="1"/>
        <pt x="231" y="1374" on="1"/>
        <pt x="762" y="1374" on="1"/>
        <pt x="887" y="1374" on="0"/>
        <pt x="1129" y="1360" on="0"/>
        <pt x="1344" y="1313" on="0"/>
        <pt x="1525" y="1223" on="0"/>
        <pt x="1657" y="1070" on="0"/>
        <pt x="1731" y="846" on="0"/>
      </contour>
      <contour>
        <pt x="1602" y="688" on="1"/>
        <pt x="1602" y="851" on="0"/>
        <pt x="1502" y="1071" on="0"/>
        <pt x="1300" y="1204" on="0"/>
        <pt x="996" y="1260" on="0"/>
        <pt x="793" y="1260" on="1"/>
        <pt x="356" y="1260" on="1"/>
        <pt x="356" y="754" on="1"/>
        <pt x="918" y="754" on="1"/>
        <pt x="918" y="651" on="1"/>
        <pt x="356" y="651" on="1"/>
        <pt x="356" y="115" on="1"/>
        <pt x="793" y="115" on="1"/>
        <pt x="901" y="115" on="0"/>
        <pt x="1105" y="126" on="0"/>
        <pt x="1285" y="164" on="0"/>
        <pt x="1434" y="238" on="0"/>
        <pt x="1542" y="366" on="0"/>
        <pt x="1602" y="554" on="0"/>
      </contour>
    </TTGlyph>
    <TTGlyph name="Euro" xMin="55" yMin="-27" xMax="1550" yMax="1399">
      <contour>
        <pt x="90" y="893" on="1"/>
        <pt x="285" y="893" on="1"/>
        <pt x="316" y="1014" on="0"/>
        <pt x="447" y="1203" on="0"/>
        <pt x="636" y="1332" on="0"/>
        <pt x="874" y="1399" on="0"/>
        <pt x="1012" y="1399" on="1"/>
        <pt x="1102" y="1399" on="0"/>
        <pt x="1248" y="1379" on="0"/>
        <pt x="1374" y="1345" on="0"/>
        <pt x="1490" y="1297" on="0"/>
        <pt x="1550" y="1270" on="1"/>
        <pt x="1550" y="1092" on="1"/>
        <pt x="1502" y="1139" on="0"/>
        <pt x="1382" y="1212" on="0"/>
        <pt x="1245" y="1263" on="0"/>
        <pt x="1094" y="1290" on="0"/>
        <pt x="1016" y="1290" on="1"/>
        <pt x="902" y="1290" on="0"/>
        <pt x="705" y="1238" on="0"/>
        <pt x="550" y="1138" on="0"/>
        <pt x="440" y="990" on="0"/>
        <pt x="412" y="893" on="1"/>
        <pt x="1225" y="893" on="1"/>
        <pt x="1190" y="784" on="1"/>
        <pt x="389" y="784" on="1"/>
        <pt x="386" y="760" on="0"/>
        <pt x="385" y="711" on="0"/>
        <pt x="385" y="686" on="1"/>
        <pt x="385" y="664" on="0"/>
        <pt x="387" y="625" on="0"/>
        <pt x="389" y="606" on="1"/>
        <pt x="1126" y="606" on="1"/>
        <pt x="1092" y="498" on="1"/>
        <pt x="408" y="498" on="1"/>
        <pt x="434" y="396" on="0"/>
        <pt x="543" y="241" on="0"/>
        <pt x="700" y="136" on="0"/>
        <pt x="899" y="82" on="0"/>
        <pt x="1016" y="82" on="1"/>
        <pt x="1094" y="82" on="0"/>
        <pt x="1245" y="110" on="0"/>
        <pt x="1382" y="162" on="0"/>
        <pt x="1502" y="236" on="0"/>
        <pt x="1550" y="283" on="1"/>
        <pt x="1550" y="104" on="1"/>
        <pt x="1490" y="77" on="0"/>
        <pt x="1367" y="29" on="0"/>
        <pt x="1237" y="-7" on="0"/>
        <pt x="1093" y="-27" on="0"/>
        <pt x="1012" y="-27" on="1"/>
        <pt x="871" y="-27" on="0"/>
        <pt x="629" y="43" on="0"/>
        <pt x="439" y="176" on="0"/>
        <pt x="309" y="372" on="0"/>
        <pt x="281" y="498" on="1"/>
        <pt x="55" y="498" on="1"/>
        <pt x="90" y="606" on="1"/>
        <pt x="262" y="606" on="1"/>
        <pt x="260" y="625" on="0"/>
        <pt x="260" y="664" on="0"/>
        <pt x="260" y="686" on="1"/>
        <pt x="260" y="711" on="0"/>
        <pt x="262" y="760" on="0"/>
        <pt x="264" y="784" on="1"/>
        <pt x="55" y="784" on="1"/>
      </contour>
    </TTGlyph>
    <TTGlyph name="F" xMin="231" yMin="0" xMax="1319" yMax="1374">
      <contour>
        <pt x="356" y="1257" on="1"/>
        <pt x="356" y="784" on="1"/>
        <pt x="1270" y="784" on="1"/>
        <pt x="1270" y="668" on="1"/>
        <pt x="356" y="668" on="1"/>
        <pt x="356" y="0" on="1"/>
        <pt x="231" y="0" on="1"/>
        <pt x="231" y="1374" on="1"/>
        <pt x="1319" y="1374" on="1"/>
        <pt x="1319" y="1257" on="1"/>
      </contour>
    </TTGlyph>
    <TTGlyph name="G" xMin="135" yMin="-27" xMax="1696" yMax="1399">
      <contour>
        <pt x="1040" y="1399" on="1"/>
        <pt x="1135" y="1399" on="0"/>
        <pt x="1299" y="1380" on="0"/>
        <pt x="1449" y="1345" on="0"/>
        <pt x="1591" y="1296" on="0"/>
        <pt x="1663" y="1266" on="1"/>
        <pt x="1663" y="1114" on="1"/>
        <pt x="1606" y="1150" on="0"/>
        <pt x="1477" y="1214" on="0"/>
        <pt x="1328" y="1262" on="0"/>
        <pt x="1157" y="1290" on="0"/>
        <pt x="1059" y="1290" on="1"/>
        <pt x="859" y="1290" on="0"/>
        <pt x="561" y="1206" on="0"/>
        <pt x="363" y="1050" on="0"/>
        <pt x="264" y="826" on="0"/>
        <pt x="264" y="686" on="1"/>
        <pt x="264" y="555" on="0"/>
        <pt x="361" y="334" on="0"/>
        <pt x="558" y="174" on="0"/>
        <pt x="854" y="84" on="0"/>
        <pt x="1053" y="84" on="1"/>
        <pt x="1131" y="84" on="0"/>
        <pt x="1284" y="96" on="0"/>
        <pt x="1420" y="115" on="0"/>
        <pt x="1532" y="138" on="0"/>
        <pt x="1571" y="150" on="1"/>
        <pt x="1571" y="567" on="1"/>
        <pt x="1012" y="567" on="1"/>
        <pt x="1012" y="684" on="1"/>
        <pt x="1696" y="684" on="1"/>
        <pt x="1696" y="80" on="1"/>
        <pt x="1622" y="54" on="0"/>
        <pt x="1471" y="14" on="0"/>
        <pt x="1310" y="-13" on="0"/>
        <pt x="1137" y="-27" on="0"/>
        <pt x="1042" y="-27" on="1"/>
        <pt x="848" y="-27" on="0"/>
        <pt x="516" y="60" on="0"/>
        <pt x="273" y="237" on="0"/>
        <pt x="135" y="505" on="0"/>
        <pt x="135" y="686" on="1"/>
        <pt x="135" y="807" on="0"/>
        <pt x="199" y="1006" on="0"/>
        <pt x="316" y="1165" on="0"/>
        <pt x="481" y="1283" on="0"/>
        <pt x="682" y="1360" on="0"/>
        <pt x="914" y="1399" on="0"/>
      </contour>
    </TTGlyph>
    <TTGlyph name="Gbreve" xMin="135" yMin="-27" xMax="1696" yMax="1751">
      <component glyphName="G" x="0" y="0" flags="0x204"/>
      <component glyphName="breve" x="473" y="362" flags="0x4"/>
    </TTGlyph>
    <TTGlyph name="Gcircumflex" xMin="135" yMin="-27" xMax="1696" yMax="1792">
      <component glyphName="G" x="0" y="0" flags="0x204"/>
      <component glyphName="circumflex" x="473" y="362" flags="0x4"/>
    </TTGlyph>
    <TTGlyph name="Gcommaaccent" xMin="135" yMin="-416" xMax="1696" yMax="1399">
      <component glyphName="G" x="0" y="0" flags="0x204"/>
      <component glyphName="commaaccent" x="494" y="0" flags="0x4"/>
    </TTGlyph>
    <TTGlyph name="Gdotaccent" xMin="135" yMin="-27" xMax="1696" yMax="1675">
      <component glyphName="G" x="0" y="0" flags="0x204"/>
      <component glyphName="dotaccent" x="473" y="362" flags="0x4"/>
    </TTGlyph>
    <TTGlyph name="H" xMin="231" yMin="0" xMax="1712" yMax="1374">
      <contour>
        <pt x="1587" y="0" on="1"/>
        <pt x="1587" y="666" on="1"/>
        <pt x="356" y="666" on="1"/>
        <pt x="356" y="0" on="1"/>
        <pt x="231" y="0" on="1"/>
        <pt x="231" y="1374" on="1"/>
        <pt x="356" y="1374" on="1"/>
        <pt x="356" y="782" on="1"/>
        <pt x="1587" y="782" on="1"/>
        <pt x="1587" y="1374" on="1"/>
        <pt x="1712" y="1374" on="1"/>
        <pt x="1712" y="0" on="1"/>
      </contour>
    </TTGlyph>
    <TTGlyph name="Hbar" xMin="55" yMin="0" xMax="1888" yMax="1374">
      <contour>
        <pt x="1587" y="0" on="1"/>
        <pt x="1587" y="666" on="1"/>
        <pt x="356" y="666" on="1"/>
        <pt x="356" y="0" on="1"/>
        <pt x="231" y="0" on="1"/>
        <pt x="231" y="981" on="1"/>
        <pt x="55" y="981" on="1"/>
        <pt x="55" y="1094" on="1"/>
        <pt x="231" y="1094" on="1"/>
        <pt x="231" y="1374" on="1"/>
        <pt x="356" y="1374" on="1"/>
        <pt x="356" y="1094" on="1"/>
        <pt x="1587" y="1094" on="1"/>
        <pt x="1587" y="1374" on="1"/>
        <pt x="1712" y="1374" on="1"/>
        <pt x="1712" y="1094" on="1"/>
        <pt x="1888" y="1094" on="1"/>
        <pt x="1888" y="981" on="1"/>
        <pt x="1712" y="981" on="1"/>
        <pt x="1712" y="0" on="1"/>
      </contour>
      <contour>
        <pt x="1587" y="782" on="1"/>
        <pt x="1587" y="981" on="1"/>
        <pt x="356" y="981" on="1"/>
        <pt x="356" y="782" on="1"/>
      </contour>
    </TTGlyph>
    <TTGlyph name="Hcircumflex" xMin="231" yMin="0" xMax="1712" yMax="1792">
      <component glyphName="H" x="0" y="0" flags="0x204"/>
      <component glyphName="circumflex" x="432" y="362" flags="0x4"/>
    </TTGlyph>
    <TTGlyph name="I" xMin="231" yMin="0" xMax="356" yMax="1374">
      <contour>
        <pt x="231" y="0" on="1"/>
        <pt x="231" y="1374" on="1"/>
        <pt x="356" y="1374" on="1"/>
        <pt x="356" y="0" on="1"/>
      </contour>
    </TTGlyph>
    <TTGlyph name="IJ" xMin="231" yMin="-16" xMax="1573" yMax="1374">
      <component glyphName="I" x="0" y="0" flags="0x4"/>
      <component glyphName="J" x="588" y="0" flags="0x4"/>
    </TTGlyph>
    <TTGlyph name="Iacute" xMin="169" yMin="0" xMax="648" yMax="1792">
      <component glyphName="I" x="0" y="0" flags="0x204"/>
      <component glyphName="acute" x="-247" y="362" flags="0x4"/>
    </TTGlyph>
    <TTGlyph name="Ibreve" xMin="-52" yMin="0" xMax="640" yMax="1751">
      <component glyphName="I" x="0" y="0" flags="0x204"/>
      <component glyphName="breve" x="-247" y="362" flags="0x4"/>
    </TTGlyph>
    <TTGlyph name="Icircumflex" xMin="-93" yMin="0" xMax="681" yMax="1792">
      <component glyphName="I" x="0" y="0" flags="0x204"/>
      <component glyphName="circumflex" x="-247" y="362" flags="0x4"/>
    </TTGlyph>
    <TTGlyph name="Idieresis" xMin="19" yMin="0" xMax="568" yMax="1669">
      <component glyphName="I" x="0" y="0" flags="0x204"/>
      <component glyphName="dieresis" x="-247" y="362" flags="0x4"/>
    </TTGlyph>
    <TTGlyph name="Idotaccent" xMin="216" yMin="0" xMax="371" yMax="1675">
      <component glyphName="I" x="0" y="0" flags="0x204"/>
      <component glyphName="dotaccent" x="-247" y="362" flags="0x4"/>
    </TTGlyph>
    <TTGlyph name="Igrave" xMin="-61" yMin="0" xMax="421" yMax="1792">
      <component glyphName="I" x="0" y="0" flags="0x204"/>
      <component glyphName="grave" x="-247" y="362" flags="0x4"/>
    </TTGlyph>
    <TTGlyph name="Imacron" xMin="19" yMin="0" xMax="568" yMax="1644">
      <component glyphName="I" x="0" y="0" flags="0x204"/>
      <component glyphName="macron" x="-247" y="362" flags="0x4"/>
    </TTGlyph>
    <TTGlyph name="Iogonek" xMin="47" yMin="-356" xMax="486" yMax="1374">
      <contour>
        <pt x="231" y="1374" on="1"/>
        <pt x="356" y="1374" on="1"/>
        <pt x="356" y="0" on="1"/>
        <pt x="319" y="0" on="1"/>
        <pt x="302" y="-11" on="0"/>
        <pt x="284" y="-24" on="1"/>
        <pt x="251" y="-48" on="0"/>
        <pt x="197" y="-101" on="0"/>
        <pt x="162" y="-155" on="0"/>
        <pt x="162" y="-182" on="1"/>
        <pt x="162" y="-224" on="0"/>
        <pt x="236" y="-262" on="0"/>
        <pt x="305" y="-262" on="1"/>
        <pt x="355" y="-262" on="0"/>
        <pt x="444" y="-247" on="0"/>
        <pt x="486" y="-236" on="1"/>
        <pt x="486" y="-338" on="1"/>
        <pt x="444" y="-344" on="0"/>
        <pt x="355" y="-356" on="0"/>
        <pt x="289" y="-356" on="1"/>
        <pt x="234" y="-356" on="0"/>
        <pt x="144" y="-339" on="0"/>
        <pt x="81" y="-302" on="0"/>
        <pt x="47" y="-245" on="0"/>
        <pt x="47" y="-205" on="1"/>
        <pt x="47" y="-140" on="0"/>
        <pt x="95" y="-85" on="1"/>
        <pt x="140" y="-34" on="0"/>
        <pt x="231" y="14" on="1"/>
      </contour>
    </TTGlyph>
    <TTGlyph name="Itilde" xMin="-57" yMin="0" xMax="648" yMax="1730">
      <component glyphName="I" x="0" y="0" flags="0x204"/>
      <component glyphName="tilde" x="-245" y="362" flags="0x4"/>
    </TTGlyph>
    <TTGlyph name="J" xMin="0" yMin="-16" xMax="985" yMax="1374">
      <contour>
        <pt x="985" y="440" on="1"/>
        <pt x="985" y="326" on="0"/>
        <pt x="905" y="155" on="0"/>
        <pt x="761" y="41" on="0"/>
        <pt x="561" y="-16" on="0"/>
        <pt x="440" y="-16" on="1"/>
        <pt x="365" y="-16" on="0"/>
        <pt x="239" y="-3" on="0"/>
        <pt x="132" y="17" on="0"/>
        <pt x="41" y="40" on="0"/>
        <pt x="0" y="51" on="1"/>
        <pt x="0" y="180" on="1"/>
        <pt x="42" y="164" on="0"/>
        <pt x="132" y="134" on="0"/>
        <pt x="244" y="110" on="0"/>
        <pt x="383" y="96" on="0"/>
        <pt x="473" y="96" on="1"/>
        <pt x="554" y="96" on="0"/>
        <pt x="695" y="141" on="0"/>
        <pt x="800" y="228" on="0"/>
        <pt x="860" y="353" on="0"/>
        <pt x="860" y="434" on="1"/>
        <pt x="860" y="1374" on="1"/>
        <pt x="985" y="1374" on="1"/>
      </contour>
    </TTGlyph>
    <TTGlyph name="Jcircumflex" xMin="0" yMin="-16" xMax="1311" yMax="1792">
      <component glyphName="J" x="0" y="0" flags="0x204"/>
      <component glyphName="circumflex" x="383" y="362" flags="0x4"/>
    </TTGlyph>
    <TTGlyph name="K" xMin="231" yMin="0" xMax="1616" yMax="1374">
      <contour>
        <pt x="358" y="727" on="1"/>
        <pt x="1380" y="1374" on="1"/>
        <pt x="1554" y="1374" on="1"/>
        <pt x="547" y="715" on="1"/>
        <pt x="1616" y="0" on="1"/>
        <pt x="1403" y="0" on="1"/>
        <pt x="358" y="700" on="1"/>
        <pt x="358" y="0" on="1"/>
        <pt x="231" y="0" on="1"/>
        <pt x="231" y="1374" on="1"/>
        <pt x="358" y="1374" on="1"/>
      </contour>
    </TTGlyph>
    <TTGlyph name="Kcommaaccent" xMin="231" yMin="-416" xMax="1616" yMax="1374">
      <component glyphName="K" x="0" y="0" flags="0x204"/>
      <component glyphName="commaaccent" x="285" y="0" flags="0x4"/>
    </TTGlyph>
    <TTGlyph name="L" xMin="231" yMin="0" xMax="1360" yMax="1374">
      <contour>
        <pt x="231" y="0" on="1"/>
        <pt x="231" y="1374" on="1"/>
        <pt x="356" y="1374" on="1"/>
        <pt x="356" y="117" on="1"/>
        <pt x="1360" y="117" on="1"/>
        <pt x="1360" y="0" on="1"/>
      </contour>
    </TTGlyph>
    <TTGlyph name="Lacute" xMin="171" yMin="0" xMax="1360" yMax="1792">
      <component glyphName="L" x="0" y="0" flags="0x204"/>
      <component glyphName="acute" x="-245" y="362" flags="0x4"/>
    </TTGlyph>
    <TTGlyph name="Lcaron" xMin="231" yMin="0" xMax="1360" yMax="1374">
      <component glyphName="L" x="0" y="0" flags="0x204"/>
      <component glyphName="quoteright" x="821" y="0" flags="0x4"/>
    </TTGlyph>
    <TTGlyph name="Lcommaaccent" xMin="231" yMin="-416" xMax="1360" yMax="1374">
      <component glyphName="L" x="0" y="0" flags="0x204"/>
      <component glyphName="commaaccent" x="266" y="0" flags="0x4"/>
    </TTGlyph>
    <TTGlyph name="Ldot" xMin="231" yMin="0" xMax="1360" yMax="1374">
      <component glyphName="L" x="0" y="0" flags="0x204"/>
      <component glyphName="periodcentered" x="819" y="-3" flags="0x4"/>
    </TTGlyph>
    <TTGlyph name="Lslash" xMin="6" yMin="0" xMax="1360" yMax="1374">
      <contour>
        <pt x="231" y="0" on="1"/>
        <pt x="231" y="598" on="1"/>
        <pt x="43" y="526" on="1"/>
        <pt x="6" y="625" on="1"/>
        <pt x="231" y="711" on="1"/>
        <pt x="231" y="1374" on="1"/>
        <pt x="356" y="1374" on="1"/>
        <pt x="356" y="760" on="1"/>
        <pt x="731" y="905" on="1"/>
        <pt x="768" y="807" on="1"/>
        <pt x="356" y="647" on="1"/>
        <pt x="356" y="117" on="1"/>
        <pt x="1360" y="117" on="1"/>
        <pt x="1360" y="0" on="1"/>
      </contour>
    </TTGlyph>
    <TTGlyph name="M" xMin="231" yMin="0" xMax="2101" yMax="1374">
      <contour>
        <pt x="1978" y="0" on="1"/>
        <pt x="1978" y="1169" on="1"/>
        <pt x="1223" y="0" on="1"/>
        <pt x="1112" y="0" on="1"/>
        <pt x="356" y="1174" on="1"/>
        <pt x="356" y="0" on="1"/>
        <pt x="231" y="0" on="1"/>
        <pt x="231" y="1374" on="1"/>
        <pt x="365" y="1374" on="1"/>
        <pt x="1171" y="129" on="1"/>
        <pt x="1968" y="1374" on="1"/>
        <pt x="2101" y="1374" on="1"/>
        <pt x="2101" y="0" on="1"/>
      </contour>
    </TTGlyph>
    <TTGlyph name="N" xMin="231" yMin="0" xMax="1686" yMax="1374">
      <contour>
        <pt x="1550" y="0" on="1"/>
        <pt x="356" y="1210" on="1"/>
        <pt x="356" y="0" on="1"/>
        <pt x="231" y="0" on="1"/>
        <pt x="231" y="1374" on="1"/>
        <pt x="369" y="1374" on="1"/>
        <pt x="1563" y="160" on="1"/>
        <pt x="1563" y="1374" on="1"/>
        <pt x="1686" y="1374" on="1"/>
        <pt x="1686" y="0" on="1"/>
      </contour>
    </TTGlyph>
    <TTGlyph name="Nacute" xMin="231" yMin="0" xMax="1686" yMax="1792">
      <component glyphName="N" x="0" y="0" flags="0x204"/>
      <component glyphName="acute" x="416" y="362" flags="0x4"/>
    </TTGlyph>
    <TTGlyph name="Ncaron" xMin="231" yMin="0" xMax="1686" yMax="1792">
      <component glyphName="N" x="0" y="0" flags="0x204"/>
      <component glyphName="caron" x="416" y="362" flags="0x4"/>
    </TTGlyph>
    <TTGlyph name="Ncommaaccent" xMin="231" yMin="-416" xMax="1686" yMax="1374">
      <component glyphName="N" x="0" y="0" flags="0x204"/>
      <component glyphName="commaaccent" x="420" y="0" flags="0x4"/>
    </TTGlyph>
    <TTGlyph name="Ntilde" xMin="231" yMin="0" xMax="1686" yMax="1730">
      <component glyphName="N" x="0" y="0" flags="0x204"/>
      <component glyphName="tilde" x="418" y="362" flags="0x4"/>
    </TTGlyph>
    <TTGlyph name="O" xMin="135" yMin="-27" xMax="1880" yMax="1399">
      <contour>
        <pt x="1880" y="686" on="1"/>
        <pt x="1880" y="501" on="0"/>
        <pt x="1746" y="232" on="0"/>
        <pt x="1512" y="57" on="0"/>
        <pt x="1194" y="-27" on="0"/>
        <pt x="1010" y="-27" on="1"/>
        <pt x="825" y="-27" on="0"/>
        <pt x="505" y="57" on="0"/>
        <pt x="269" y="232" on="0"/>
        <pt x="135" y="501" on="0"/>
        <pt x="135" y="686" on="1"/>
        <pt x="135" y="809" on="0"/>
        <pt x="197" y="1010" on="0"/>
        <pt x="309" y="1169" on="0"/>
        <pt x="468" y="1285" on="0"/>
        <pt x="663" y="1362" on="0"/>
        <pt x="887" y="1399" on="0"/>
        <pt x="1010" y="1399" on="1"/>
        <pt x="1194" y="1399" on="0"/>
        <pt x="1512" y="1315" on="0"/>
        <pt x="1746" y="1140" on="0"/>
        <pt x="1880" y="871" on="0"/>
      </contour>
      <contour>
        <pt x="1751" y="686" on="1"/>
        <pt x="1751" y="832" on="0"/>
        <pt x="1656" y="1056" on="0"/>
        <pt x="1470" y="1209" on="0"/>
        <pt x="1193" y="1288" on="0"/>
        <pt x="1010" y="1288" on="1"/>
        <pt x="827" y="1288" on="0"/>
        <pt x="548" y="1208" on="0"/>
        <pt x="360" y="1055" on="0"/>
        <pt x="264" y="830" on="0"/>
        <pt x="264" y="686" on="1"/>
        <pt x="264" y="540" on="0"/>
        <pt x="360" y="316" on="0"/>
        <pt x="548" y="163" on="0"/>
        <pt x="827" y="84" on="0"/>
        <pt x="1010" y="84" on="1"/>
        <pt x="1193" y="84" on="0"/>
        <pt x="1470" y="163" on="0"/>
        <pt x="1656" y="316" on="0"/>
        <pt x="1751" y="540" on="0"/>
      </contour>
    </TTGlyph>
    <TTGlyph name="OE" xMin="135" yMin="-27" xMax="2587" yMax="1399">
      <contour>
        <pt x="1427" y="0" on="1"/>
        <pt x="1374" y="-5" on="0"/>
        <pt x="1271" y="-15" on="0"/>
        <pt x="1164" y="-23" on="0"/>
        <pt x="1051" y="-27" on="0"/>
        <pt x="989" y="-27" on="1"/>
        <pt x="812" y="-27" on="0"/>
        <pt x="500" y="57" on="0"/>
        <pt x="269" y="232" on="0"/>
        <pt x="135" y="501" on="0"/>
        <pt x="135" y="686" on="1"/>
        <pt x="135" y="809" on="0"/>
        <pt x="199" y="1010" on="0"/>
        <pt x="314" y="1169" on="0"/>
        <pt x="474" y="1285" on="0"/>
        <pt x="663" y="1362" on="0"/>
        <pt x="877" y="1399" on="0"/>
        <pt x="989" y="1399" on="1"/>
        <pt x="1051" y="1399" on="0"/>
        <pt x="1164" y="1395" on="0"/>
        <pt x="1271" y="1389" on="0"/>
        <pt x="1374" y="1380" on="0"/>
        <pt x="1427" y="1374" on="1"/>
        <pt x="2572" y="1374" on="1"/>
        <pt x="2572" y="1257" on="1"/>
        <pt x="1563" y="1257" on="1"/>
        <pt x="1563" y="784" on="1"/>
        <pt x="2521" y="784" on="1"/>
        <pt x="2521" y="668" on="1"/>
        <pt x="1563" y="668" on="1"/>
        <pt x="1563" y="117" on="1"/>
        <pt x="2587" y="117" on="1"/>
        <pt x="2587" y="0" on="1"/>
      </contour>
      <contour>
        <pt x="989" y="84" on="1"/>
        <pt x="1114" y="84" on="0"/>
        <pt x="1336" y="101" on="0"/>
        <pt x="1427" y="123" on="1"/>
        <pt x="1427" y="1249" on="1"/>
        <pt x="1336" y="1271" on="0"/>
        <pt x="1114" y="1288" on="0"/>
        <pt x="989" y="1288" on="1"/>
        <pt x="822" y="1288" on="0"/>
        <pt x="553" y="1208" on="0"/>
        <pt x="365" y="1055" on="0"/>
        <pt x="264" y="830" on="0"/>
        <pt x="264" y="686" on="1"/>
        <pt x="264" y="540" on="0"/>
        <pt x="359" y="316" on="0"/>
        <pt x="544" y="163" on="0"/>
        <pt x="814" y="84" on="0"/>
      </contour>
    </TTGlyph>
    <TTGlyph name="Oacute" xMin="135" yMin="-27" xMax="1880" yMax="1792">
      <component glyphName="O" x="0" y="0" flags="0x204"/>
      <component glyphName="acute" x="469" y="362" flags="0x4"/>
    </TTGlyph>
    <TTGlyph name="Obreve" xMin="135" yMin="-27" xMax="1880" yMax="1751">
      <component glyphName="O" x="0" y="0" flags="0x204"/>
      <component glyphName="breve" x="469" y="362" flags="0x4"/>
    </TTGlyph>
    <TTGlyph name="Ocircumflex" xMin="135" yMin="-27" xMax="1880" yMax="1792">
      <component glyphName="O" x="0" y="0" flags="0x204"/>
      <component glyphName="circumflex" x="469" y="362" flags="0x4"/>
    </TTGlyph>
    <TTGlyph name="Odieresis" xMin="135" yMin="-27" xMax="1880" yMax="1669">
      <component glyphName="O" x="0" y="0" flags="0x204"/>
      <component glyphName="dieresis" x="469" y="362" flags="0x4"/>
    </TTGlyph>
    <TTGlyph name="Ograve" xMin="135" yMin="-27" xMax="1880" yMax="1792">
      <component glyphName="O" x="0" y="0" flags="0x204"/>
      <component glyphName="grave" x="469" y="362" flags="0x4"/>
    </TTGlyph>
    <TTGlyph name="Ohungarumlaut" xMin="135" yMin="-27" xMax="1880" yMax="1785">
      <component glyphName="O" x="0" y="0" flags="0x204"/>
      <component glyphName="hungarumlaut" x="469" y="362" flags="0x4"/>
    </TTGlyph>
    <TTGlyph name="Omacron" xMin="135" yMin="-27" xMax="1880" yMax="1644">
      <component glyphName="O" x="0" y="0" flags="0x204"/>
      <component glyphName="macron" x="469" y="362" flags="0x4"/>
    </TTGlyph>
    <TTGlyph name="Oslash" xMin="135" yMin="-182" xMax="1880" yMax="1554">
      <contour>
        <pt x="1880" y="686" on="1"/>
        <pt x="1880" y="501" on="0"/>
        <pt x="1746" y="232" on="0"/>
        <pt x="1512" y="57" on="0"/>
        <pt x="1194" y="-27" on="0"/>
        <pt x="1010" y="-27" on="1"/>
        <pt x="898" y="-27" on="0"/>
        <pt x="696" y="4" on="0"/>
        <pt x="606" y="33" on="1"/>
        <pt x="453" y="-182" on="1"/>
        <pt x="324" y="-182" on="1"/>
        <pt x="506" y="72" on="1"/>
        <pt x="421" y="112" on="0"/>
        <pt x="284" y="229" on="0"/>
        <pt x="187" y="382" on="0"/>
        <pt x="135" y="572" on="0"/>
        <pt x="135" y="686" on="1"/>
        <pt x="135" y="809" on="0"/>
        <pt x="197" y="1010" on="0"/>
        <pt x="309" y="1169" on="0"/>
        <pt x="468" y="1285" on="0"/>
        <pt x="663" y="1362" on="0"/>
        <pt x="887" y="1399" on="0"/>
        <pt x="1010" y="1399" on="1"/>
        <pt x="1230" y="1399" on="0"/>
        <pt x="1413" y="1337" on="1"/>
        <pt x="1569" y="1554" on="1"/>
        <pt x="1696" y="1554" on="1"/>
        <pt x="1511" y="1298" on="1"/>
        <pt x="1596" y="1257" on="0"/>
        <pt x="1732" y="1141" on="0"/>
        <pt x="1828" y="989" on="0"/>
        <pt x="1880" y="800" on="0"/>
      </contour>
      <contour>
        <pt x="1346" y="1245" on="1"/>
        <pt x="1205" y="1288" on="0"/>
        <pt x="1010" y="1288" on="1"/>
        <pt x="827" y="1288" on="0"/>
        <pt x="548" y="1208" on="0"/>
        <pt x="360" y="1055" on="0"/>
        <pt x="264" y="830" on="0"/>
        <pt x="264" y="686" on="1"/>
        <pt x="264" y="497" on="0"/>
        <pt x="419" y="237" on="0"/>
        <pt x="573" y="166" on="1"/>
        <pt x="684" y="319" on="1"/>
      </contour>
      <contour>
        <pt x="674" y="127" on="1"/>
        <pt x="816" y="84" on="0"/>
        <pt x="1010" y="84" on="1"/>
        <pt x="1193" y="84" on="0"/>
        <pt x="1470" y="163" on="0"/>
        <pt x="1656" y="316" on="0"/>
        <pt x="1751" y="540" on="0"/>
        <pt x="1751" y="686" on="1"/>
        <pt x="1751" y="873" on="0"/>
        <pt x="1598" y="1134" on="0"/>
        <pt x="1446" y="1206" on="1"/>
        <pt x="1335" y="1053" on="1"/>
      </contour>
    </TTGlyph>
    <TTGlyph name="Oslashacute" xMin="135" yMin="-182" xMax="1880" yMax="1792">
      <component glyphName="Oslash" x="0" y="0" flags="0x204"/>
      <component glyphName="acute" x="471" y="362" flags="0x4"/>
    </TTGlyph>
    <TTGlyph name="Otilde" xMin="135" yMin="-27" xMax="1880" yMax="1730">
      <component glyphName="O" x="0" y="0" flags="0x204"/>
      <component glyphName="tilde" x="471" y="362" flags="0x4"/>
    </TTGlyph>
    <TTGlyph name="P" xMin="231" yMin="0" xMax="1571" yMax="1374">
      <contour>
        <pt x="1571" y="952" on="1"/>
        <pt x="1571" y="849" on="0"/>
        <pt x="1504" y="691" on="0"/>
        <pt x="1360" y="583" on="0"/>
        <pt x="1133" y="528" on="0"/>
        <pt x="973" y="528" on="1"/>
        <pt x="356" y="528" on="1"/>
        <pt x="356" y="0" on="1"/>
        <pt x="231" y="0" on="1"/>
        <pt x="231" y="1374" on="1"/>
        <pt x="973" y="1374" on="1"/>
        <pt x="1133" y="1374" on="0"/>
        <pt x="1360" y="1319" on="0"/>
        <pt x="1504" y="1213" on="0"/>
        <pt x="1571" y="1055" on="0"/>
      </contour>
      <contour>
        <pt x="1442" y="952" on="1"/>
        <pt x="1442" y="1050" on="0"/>
        <pt x="1377" y="1170" on="0"/>
        <pt x="1242" y="1235" on="0"/>
        <pt x="1035" y="1257" on="0"/>
        <pt x="893" y="1257" on="1"/>
        <pt x="356" y="1257" on="1"/>
        <pt x="356" y="645" on="1"/>
        <pt x="893" y="645" on="1"/>
        <pt x="948" y="645" on="0"/>
        <pt x="1073" y="644" on="0"/>
        <pt x="1195" y="657" on="0"/>
        <pt x="1306" y="690" on="0"/>
        <pt x="1391" y="758" on="0"/>
        <pt x="1442" y="868" on="0"/>
      </contour>
    </TTGlyph>
    <TTGlyph name="Q" xMin="135" yMin="-45" xMax="2003" yMax="1399">
      <contour>
        <pt x="1880" y="686" on="1"/>
        <pt x="1880" y="512" on="0"/>
        <pt x="1762" y="256" on="0"/>
        <pt x="1659" y="168" on="1"/>
        <pt x="1749" y="140" on="0"/>
        <pt x="1922" y="94" on="0"/>
        <pt x="2003" y="80" on="1"/>
        <pt x="1954" y="-45" on="1"/>
        <pt x="1857" y="-20" on="0"/>
        <pt x="1644" y="52" on="0"/>
        <pt x="1542" y="90" on="1"/>
        <pt x="1433" y="30" on="0"/>
        <pt x="1162" y="-27" on="0"/>
        <pt x="1010" y="-27" on="1"/>
        <pt x="825" y="-27" on="0"/>
        <pt x="505" y="57" on="0"/>
        <pt x="269" y="232" on="0"/>
        <pt x="135" y="501" on="0"/>
        <pt x="135" y="686" on="1"/>
        <pt x="135" y="809" on="0"/>
        <pt x="197" y="1010" on="0"/>
        <pt x="309" y="1169" on="0"/>
        <pt x="468" y="1285" on="0"/>
        <pt x="663" y="1362" on="0"/>
        <pt x="887" y="1399" on="0"/>
        <pt x="1010" y="1399" on="1"/>
        <pt x="1194" y="1399" on="0"/>
        <pt x="1512" y="1315" on="0"/>
        <pt x="1746" y="1140" on="0"/>
        <pt x="1880" y="871" on="0"/>
      </contour>
      <contour>
        <pt x="1751" y="686" on="1"/>
        <pt x="1751" y="832" on="0"/>
        <pt x="1656" y="1056" on="0"/>
        <pt x="1470" y="1209" on="0"/>
        <pt x="1193" y="1288" on="0"/>
        <pt x="1010" y="1288" on="1"/>
        <pt x="827" y="1288" on="0"/>
        <pt x="548" y="1208" on="0"/>
        <pt x="360" y="1055" on="0"/>
        <pt x="264" y="830" on="0"/>
        <pt x="264" y="686" on="1"/>
        <pt x="264" y="540" on="0"/>
        <pt x="360" y="316" on="0"/>
        <pt x="548" y="163" on="0"/>
        <pt x="827" y="84" on="0"/>
        <pt x="1010" y="84" on="1"/>
        <pt x="1240" y="84" on="0"/>
        <pt x="1399" y="145" on="1"/>
        <pt x="1338" y="170" on="0"/>
        <pt x="1236" y="213" on="0"/>
        <pt x="1198" y="230" on="1"/>
        <pt x="1154" y="249" on="0"/>
        <pt x="1118" y="266" on="1"/>
        <pt x="1167" y="367" on="1"/>
        <pt x="1248" y="326" on="0"/>
        <pt x="1431" y="248" on="0"/>
        <pt x="1530" y="213" on="1"/>
        <pt x="1639" y="290" on="0"/>
        <pt x="1751" y="527" on="0"/>
      </contour>
    </TTGlyph>
    <TTGlyph name="R" xMin="231" yMin="0" xMax="1632" yMax="1374">
      <contour>
        <pt x="356" y="588" on="1"/>
        <pt x="356" y="0" on="1"/>
        <pt x="231" y="0" on="1"/>
        <pt x="231" y="1374" on="1"/>
        <pt x="915" y="1374" on="1"/>
        <pt x="1072" y="1374" on="0"/>
        <pt x="1296" y="1325" on="0"/>
        <pt x="1439" y="1226" on="0"/>
        <pt x="1505" y="1078" on="0"/>
        <pt x="1505" y="979" on="1"/>
        <pt x="1505" y="825" on="0"/>
        <pt x="1343" y="640" on="0"/>
        <pt x="1163" y="606" on="1"/>
        <pt x="1632" y="0" on="1"/>
        <pt x="1475" y="0" on="1"/>
        <pt x="1032" y="592" on="1"/>
        <pt x="1004" y="590" on="0"/>
        <pt x="946" y="588" on="0"/>
        <pt x="915" y="588" on="1"/>
      </contour>
      <contour>
        <pt x="1376" y="979" on="1"/>
        <pt x="1376" y="1067" on="0"/>
        <pt x="1314" y="1176" on="0"/>
        <pt x="1174" y="1236" on="0"/>
        <pt x="947" y="1257" on="0"/>
        <pt x="782" y="1257" on="1"/>
        <pt x="356" y="1257" on="1"/>
        <pt x="356" y="705" on="1"/>
        <pt x="778" y="705" on="1"/>
        <pt x="943" y="705" on="0"/>
        <pt x="1171" y="724" on="0"/>
        <pt x="1313" y="783" on="0"/>
        <pt x="1376" y="890" on="0"/>
      </contour>
    </TTGlyph>
    <TTGlyph name="Racute" xMin="231" yMin="0" xMax="1632" yMax="1792">
      <component glyphName="R" x="0" y="0" flags="0x204"/>
      <component glyphName="acute" x="238" y="362" flags="0x4"/>
    </TTGlyph>
    <TTGlyph name="Rcaron" xMin="231" yMin="0" xMax="1632" yMax="1792">
      <component glyphName="R" x="0" y="0" flags="0x204"/>
      <component glyphName="caron" x="238" y="362" flags="0x4"/>
    </TTGlyph>
    <TTGlyph name="Rcommaaccent" xMin="231" yMin="-416" xMax="1632" yMax="1374">
      <component glyphName="R" x="0" y="0" flags="0x204"/>
      <component glyphName="commaaccent" x="313" y="0" flags="0x4"/>
    </TTGlyph>
    <TTGlyph name="S" xMin="166" yMin="-27" xMax="1456" yMax="1399">
      <contour>
        <pt x="1341" y="1171" on="1"/>
        <pt x="1302" y="1190" on="0"/>
        <pt x="1200" y="1233" on="0"/>
        <pt x="1069" y="1267" on="0"/>
        <pt x="905" y="1290" on="0"/>
        <pt x="805" y="1290" on="1"/>
        <pt x="684" y="1290" on="0"/>
        <pt x="495" y="1262" on="0"/>
        <pt x="364" y="1203" on="0"/>
        <pt x="295" y="1113" on="0"/>
        <pt x="295" y="1051" on="1"/>
        <pt x="295" y="999" on="0"/>
        <pt x="360" y="921" on="0"/>
        <pt x="471" y="861" on="0"/>
        <pt x="620" y="812" on="0"/>
        <pt x="787" y="769" on="0"/>
        <pt x="964" y="725" on="0"/>
        <pt x="1131" y="674" on="0"/>
        <pt x="1280" y="611" on="0"/>
        <pt x="1391" y="527" on="0"/>
        <pt x="1456" y="419" on="0"/>
        <pt x="1456" y="348" on="1"/>
        <pt x="1456" y="271" on="0"/>
        <pt x="1398" y="156" on="0"/>
        <pt x="1299" y="73" on="0"/>
        <pt x="1166" y="18" on="0"/>
        <pt x="1015" y="-14" on="0"/>
        <pt x="854" y="-27" on="0"/>
        <pt x="776" y="-27" on="1"/>
        <pt x="597" y="-27" on="0"/>
        <pt x="306" y="25" on="0"/>
        <pt x="174" y="70" on="1"/>
        <pt x="174" y="223" on="1"/>
        <pt x="310" y="142" on="0"/>
        <pt x="613" y="82" on="0"/>
        <pt x="780" y="82" on="1"/>
        <pt x="898" y="82" on="0"/>
        <pt x="1098" y="110" on="0"/>
        <pt x="1244" y="171" on="0"/>
        <pt x="1325" y="269" on="0"/>
        <pt x="1325" y="340" on="1"/>
        <pt x="1325" y="397" on="0"/>
        <pt x="1260" y="483" on="0"/>
        <pt x="1149" y="548" on="0"/>
        <pt x="1000" y="598" on="0"/>
        <pt x="834" y="641" on="0"/>
        <pt x="657" y="682" on="0"/>
        <pt x="491" y="730" on="0"/>
        <pt x="342" y="790" on="0"/>
        <pt x="231" y="871" on="0"/>
        <pt x="166" y="977" on="0"/>
        <pt x="166" y="1047" on="1"/>
        <pt x="166" y="1116" on="0"/>
        <pt x="218" y="1223" on="0"/>
        <pt x="309" y="1301" on="0"/>
        <pt x="431" y="1354" on="0"/>
        <pt x="570" y="1385" on="0"/>
        <pt x="720" y="1399" on="0"/>
        <pt x="793" y="1399" on="1"/>
        <pt x="873" y="1399" on="0"/>
        <pt x="1016" y="1385" on="0"/>
        <pt x="1149" y="1362" on="0"/>
        <pt x="1276" y="1332" on="0"/>
        <pt x="1341" y="1315" on="1"/>
      </contour>
    </TTGlyph>
    <TTGlyph name="Sacute" xMin="166" yMin="-27" xMax="1456" yMax="1792">
      <component glyphName="S" x="0" y="0" flags="0x204"/>
      <component glyphName="acute" x="252" y="362" flags="0x4"/>
    </TTGlyph>
    <TTGlyph name="Scaron" xMin="166" yMin="-27" xMax="1456" yMax="1792">
      <component glyphName="S" x="0" y="0" flags="0x204"/>
      <component glyphName="caron" x="252" y="362" flags="0x4"/>
    </TTGlyph>
    <TTGlyph name="Scedilla" xMin="166" yMin="-401" xMax="1456" yMax="1399">
      <contour>
        <pt x="823" y="-98" on="1"/>
        <pt x="867" y="-98" on="0"/>
        <pt x="944" y="-112" on="0"/>
        <pt x="1001" y="-145" on="0"/>
        <pt x="1034" y="-200" on="0"/>
        <pt x="1034" y="-242" on="1"/>
        <pt x="1034" y="-287" on="0"/>
        <pt x="997" y="-348" on="0"/>
        <pt x="931" y="-385" on="0"/>
        <pt x="839" y="-401" on="0"/>
        <pt x="784" y="-401" on="1"/>
        <pt x="727" y="-401" on="0"/>
        <pt x="619" y="-384" on="0"/>
        <pt x="575" y="-375" on="1"/>
        <pt x="575" y="-274" on="1"/>
        <pt x="620" y="-290" on="0"/>
        <pt x="725" y="-311" on="0"/>
        <pt x="776" y="-311" on="1"/>
        <pt x="818" y="-311" on="0"/>
        <pt x="876" y="-301" on="0"/>
        <pt x="911" y="-283" on="0"/>
        <pt x="926" y="-257" on="0"/>
        <pt x="926" y="-242" on="1"/>
        <pt x="926" y="-223" on="0"/>
        <pt x="906" y="-197" on="0"/>
        <pt x="872" y="-182" on="0"/>
        <pt x="829" y="-176" on="0"/>
        <pt x="805" y="-176" on="1"/>
        <pt x="779" y="-176" on="0"/>
        <pt x="725" y="-179" on="0"/>
        <pt x="702" y="-182" on="1"/>
        <pt x="760" y="-27" on="1"/>
        <pt x="590" y="-26" on="0"/>
        <pt x="451" y="-1" on="1"/>
        <pt x="306" y="25" on="0"/>
        <pt x="174" y="70" on="1"/>
        <pt x="174" y="223" on="1"/>
        <pt x="310" y="142" on="0"/>
        <pt x="613" y="82" on="0"/>
        <pt x="780" y="82" on="1"/>
        <pt x="898" y="82" on="0"/>
        <pt x="1098" y="110" on="0"/>
        <pt x="1244" y="171" on="0"/>
        <pt x="1325" y="269" on="0"/>
        <pt x="1325" y="340" on="1"/>
        <pt x="1325" y="397" on="0"/>
        <pt x="1260" y="483" on="0"/>
        <pt x="1149" y="548" on="0"/>
        <pt x="1000" y="598" on="0"/>
        <pt x="834" y="641" on="0"/>
        <pt x="657" y="682" on="0"/>
        <pt x="491" y="730" on="0"/>
        <pt x="342" y="790" on="0"/>
        <pt x="231" y="871" on="0"/>
        <pt x="166" y="977" on="0"/>
        <pt x="166" y="1047" on="1"/>
        <pt x="166" y="1116" on="0"/>
        <pt x="218" y="1223" on="0"/>
        <pt x="309" y="1301" on="0"/>
        <pt x="431" y="1354" on="0"/>
        <pt x="570" y="1385" on="0"/>
        <pt x="720" y="1399" on="0"/>
        <pt x="793" y="1399" on="1"/>
        <pt x="873" y="1399" on="0"/>
        <pt x="1016" y="1385" on="0"/>
        <pt x="1149" y="1362" on="0"/>
        <pt x="1276" y="1332" on="0"/>
        <pt x="1341" y="1315" on="1"/>
        <pt x="1341" y="1171" on="1"/>
        <pt x="1302" y="1190" on="0"/>
        <pt x="1200" y="1233" on="0"/>
        <pt x="1069" y="1267" on="0"/>
        <pt x="905" y="1290" on="0"/>
        <pt x="805" y="1290" on="1"/>
        <pt x="684" y="1290" on="0"/>
        <pt x="495" y="1262" on="0"/>
        <pt x="364" y="1203" on="0"/>
        <pt x="295" y="1113" on="0"/>
        <pt x="295" y="1051" on="1"/>
        <pt x="295" y="999" on="0"/>
        <pt x="360" y="921" on="0"/>
        <pt x="471" y="861" on="0"/>
        <pt x="620" y="812" on="0"/>
        <pt x="787" y="769" on="0"/>
        <pt x="964" y="725" on="0"/>
        <pt x="1131" y="674" on="0"/>
        <pt x="1280" y="611" on="0"/>
        <pt x="1391" y="527" on="0"/>
        <pt x="1456" y="419" on="0"/>
        <pt x="1456" y="348" on="1"/>
        <pt x="1456" y="271" on="0"/>
        <pt x="1398" y="156" on="0"/>
        <pt x="1299" y="73" on="0"/>
        <pt x="1166" y="18" on="0"/>
        <pt x="1015" y="-14" on="0"/>
        <pt x="934" y="-20" on="1"/>
        <pt x="892" y="-24" on="0"/>
        <pt x="850" y="-25" on="1"/>
      </contour>
    </TTGlyph>
    <TTGlyph name="Scircumflex" xMin="166" yMin="-27" xMax="1456" yMax="1792">
      <component glyphName="S" x="0" y="0" flags="0x204"/>
      <component glyphName="circumflex" x="252" y="362" flags="0x4"/>
    </TTGlyph>
    <TTGlyph name="T" xMin="39" yMin="0" xMax="1413" yMax="1374">
      <contour>
        <pt x="788" y="1260" on="1"/>
        <pt x="788" y="0" on="1"/>
        <pt x="664" y="0" on="1"/>
        <pt x="664" y="1260" on="1"/>
        <pt x="39" y="1260" on="1"/>
        <pt x="39" y="1374" on="1"/>
        <pt x="1413" y="1374" on="1"/>
        <pt x="1413" y="1260" on="1"/>
      </contour>
    </TTGlyph>
    <TTGlyph name="Tbar" xMin="39" yMin="0" xMax="1413" yMax="1374">
      <contour>
        <pt x="788" y="1260" on="1"/>
        <pt x="788" y="844" on="1"/>
        <pt x="1270" y="844" on="1"/>
        <pt x="1270" y="731" on="1"/>
        <pt x="788" y="731" on="1"/>
        <pt x="788" y="0" on="1"/>
        <pt x="664" y="0" on="1"/>
        <pt x="664" y="731" on="1"/>
        <pt x="182" y="731" on="1"/>
        <pt x="182" y="844" on="1"/>
        <pt x="664" y="844" on="1"/>
        <pt x="664" y="1260" on="1"/>
        <pt x="39" y="1260" on="1"/>
        <pt x="39" y="1374" on="1"/>
        <pt x="1413" y="1374" on="1"/>
        <pt x="1413" y="1260" on="1"/>
      </contour>
    </TTGlyph>
    <TTGlyph name="Tcaron" xMin="39" yMin="0" xMax="1413" yMax="1792">
      <component glyphName="T" x="0" y="0" flags="0x204"/>
      <component glyphName="caron" x="184" y="362" flags="0x4"/>
    </TTGlyph>
    <TTGlyph name="Tcommaaccent" xMin="39" yMin="-416" xMax="1413" yMax="1374">
      <component glyphName="T" x="0" y="0" flags="0x204"/>
      <component glyphName="commaaccent" x="186" y="0" flags="0x4"/>
    </TTGlyph>
    <TTGlyph name="Thorn" xMin="231" yMin="0" xMax="1489" yMax="1374">
      <contour>
        <pt x="1489" y="725" on="1"/>
        <pt x="1489" y="620" on="0"/>
        <pt x="1422" y="461" on="0"/>
        <pt x="1278" y="354" on="0"/>
        <pt x="1051" y="301" on="0"/>
        <pt x="891" y="301" on="1"/>
        <pt x="356" y="301" on="1"/>
        <pt x="356" y="0" on="1"/>
        <pt x="231" y="0" on="1"/>
        <pt x="231" y="1374" on="1"/>
        <pt x="356" y="1374" on="1"/>
        <pt x="356" y="1147" on="1"/>
        <pt x="891" y="1147" on="1"/>
        <pt x="1051" y="1147" on="0"/>
        <pt x="1278" y="1094" on="0"/>
        <pt x="1422" y="989" on="0"/>
        <pt x="1489" y="830" on="0"/>
      </contour>
      <contour>
        <pt x="1360" y="725" on="1"/>
        <pt x="1360" y="822" on="0"/>
        <pt x="1289" y="942" on="0"/>
        <pt x="1148" y="1008" on="0"/>
        <pt x="936" y="1030" on="0"/>
        <pt x="795" y="1030" on="1"/>
        <pt x="356" y="1030" on="1"/>
        <pt x="356" y="418" on="1"/>
        <pt x="795" y="418" on="1"/>
        <pt x="850" y="418" on="0"/>
        <pt x="977" y="417" on="0"/>
        <pt x="1102" y="429" on="0"/>
        <pt x="1218" y="462" on="0"/>
        <pt x="1307" y="530" on="0"/>
        <pt x="1360" y="641" on="0"/>
      </contour>
    </TTGlyph>
    <TTGlyph name="U" xMin="219" yMin="-27" xMax="1606" yMax="1374">
      <contour>
        <pt x="1606" y="329" on="0"/>
        <pt x="1519" y="160" on="0"/>
        <pt x="1346" y="39" on="0"/>
        <pt x="1086" y="-27" on="0"/>
        <pt x="913" y="-27" on="1"/>
        <pt x="740" y="-27" on="0"/>
        <pt x="480" y="39" on="0"/>
        <pt x="306" y="160" on="0"/>
        <pt x="219" y="329" on="0"/>
        <pt x="219" y="432" on="1"/>
        <pt x="219" y="1374" on="1"/>
        <pt x="344" y="1374" on="1"/>
        <pt x="344" y="422" on="1"/>
        <pt x="344" y="353" on="0"/>
        <pt x="417" y="230" on="0"/>
        <pt x="561" y="138" on="0"/>
        <pt x="773" y="84" on="0"/>
        <pt x="913" y="84" on="1"/>
        <pt x="1052" y="84" on="0"/>
        <pt x="1264" y="138" on="0"/>
        <pt x="1408" y="230" on="0"/>
        <pt x="1481" y="353" on="0"/>
        <pt x="1481" y="422" on="1"/>
        <pt x="1481" y="1374" on="1"/>
        <pt x="1606" y="1374" on="1"/>
        <pt x="1606" y="432" on="1"/>
      </contour>
    </TTGlyph>
    <TTGlyph name="Uacute" xMin="219" yMin="-27" xMax="1606" yMax="1792">
      <component glyphName="U" x="0" y="0" flags="0x204"/>
      <component glyphName="acute" x="373" y="362" flags="0x4"/>
    </TTGlyph>
    <TTGlyph name="Ubreve" xMin="219" yMin="-27" xMax="1606" yMax="1751">
      <component glyphName="U" x="0" y="0" flags="0x204"/>
      <component glyphName="breve" x="373" y="362" flags="0x4"/>
    </TTGlyph>
    <TTGlyph name="Ucircumflex" xMin="219" yMin="-27" xMax="1606" yMax="1792">
      <component glyphName="U" x="0" y="0" flags="0x204"/>
      <component glyphName="circumflex" x="373" y="362" flags="0x4"/>
    </TTGlyph>
    <TTGlyph name="Udieresis" xMin="219" yMin="-27" xMax="1606" yMax="1669">
      <component glyphName="U" x="0" y="0" flags="0x204"/>
      <component glyphName="dieresis" x="373" y="362" flags="0x4"/>
    </TTGlyph>
    <TTGlyph name="Ugrave" xMin="219" yMin="-27" xMax="1606" yMax="1792">
      <component glyphName="U" x="0" y="0" flags="0x204"/>
      <component glyphName="grave" x="373" y="362" flags="0x4"/>
    </TTGlyph>
    <TTGlyph name="Uhungarumlaut" xMin="219" yMin="-27" xMax="1606" yMax="1785">
      <component glyphName="U" x="0" y="0" flags="0x204"/>
      <component glyphName="hungarumlaut" x="373" y="362" flags="0x4"/>
    </TTGlyph>
    <TTGlyph name="Umacron" xMin="219" yMin="-27" xMax="1606" yMax="1644">
      <component glyphName="U" x="0" y="0" flags="0x204"/>
      <component glyphName="macron" x="373" y="362" flags="0x4"/>
    </TTGlyph>
    <TTGlyph name="Uogonek" xMin="219" yMin="-356" xMax="1606" yMax="1374">
      <contour>
        <pt x="1606" y="332" on="0"/>
        <pt x="1525" y="168" on="0"/>
        <pt x="1363" y="48" on="0"/>
        <pt x="1120" y="-22" on="0"/>
        <pt x="958" y="-27" on="1"/>
        <pt x="934" y="-45" on="0"/>
        <pt x="892" y="-83" on="0"/>
        <pt x="859" y="-122" on="0"/>
        <pt x="840" y="-162" on="0"/>
        <pt x="840" y="-182" on="1"/>
        <pt x="840" y="-224" on="0"/>
        <pt x="914" y="-262" on="0"/>
        <pt x="983" y="-262" on="1"/>
        <pt x="1033" y="-262" on="0"/>
        <pt x="1121" y="-247" on="0"/>
        <pt x="1163" y="-236" on="1"/>
        <pt x="1163" y="-338" on="1"/>
        <pt x="1122" y="-344" on="0"/>
        <pt x="1033" y="-356" on="0"/>
        <pt x="967" y="-356" on="1"/>
        <pt x="911" y="-356" on="0"/>
        <pt x="822" y="-339" on="0"/>
        <pt x="759" y="-302" on="0"/>
        <pt x="725" y="-245" on="0"/>
        <pt x="725" y="-205" on="1"/>
        <pt x="725" y="-154" on="0"/>
        <pt x="782" y="-67" on="0"/>
        <pt x="842" y="-25" on="1"/>
        <pt x="686" y="-18" on="0"/>
        <pt x="452" y="54" on="0"/>
        <pt x="297" y="173" on="0"/>
        <pt x="219" y="334" on="0"/>
        <pt x="219" y="432" on="1"/>
        <pt x="219" y="1374" on="1"/>
        <pt x="344" y="1374" on="1"/>
        <pt x="344" y="422" on="1"/>
        <pt x="344" y="353" on="0"/>
        <pt x="417" y="230" on="0"/>
        <pt x="561" y="138" on="0"/>
        <pt x="773" y="84" on="0"/>
        <pt x="913" y="84" on="1"/>
        <pt x="1052" y="84" on="0"/>
        <pt x="1264" y="138" on="0"/>
        <pt x="1408" y="230" on="0"/>
        <pt x="1481" y="353" on="0"/>
        <pt x="1481" y="422" on="1"/>
        <pt x="1481" y="1374" on="1"/>
        <pt x="1606" y="1374" on="1"/>
        <pt x="1606" y="432" on="1"/>
      </contour>
    </TTGlyph>
    <TTGlyph name="Uring" xMin="219" yMin="-27" xMax="1606" yMax="1853">
      <component glyphName="U" x="0" y="0" flags="0x204"/>
      <component glyphName="ring" x="373" y="362" flags="0x4"/>
    </TTGlyph>
    <TTGlyph name="Utilde" xMin="219" yMin="-27" xMax="1606" yMax="1730">
      <component glyphName="U" x="0" y="0" flags="0x204"/>
      <component glyphName="tilde" x="375" y="362" flags="0x4"/>
    </TTGlyph>
    <TTGlyph name="V" xMin="55" yMin="0" xMax="1620" yMax="1374">
      <contour>
        <pt x="928" y="0" on="1"/>
        <pt x="741" y="0" on="1"/>
        <pt x="55" y="1374" on="1"/>
        <pt x="195" y="1374" on="1"/>
        <pt x="838" y="86" on="1"/>
        <pt x="1481" y="1374" on="1"/>
        <pt x="1620" y="1374" on="1"/>
      </contour>
    </TTGlyph>
    <TTGlyph name="W" xMin="76" yMin="0" xMax="2517" yMax="1374">
      <contour>
        <pt x="1380" y="1374" on="1"/>
        <pt x="1870" y="100" on="1"/>
        <pt x="2378" y="1374" on="1"/>
        <pt x="2517" y="1374" on="1"/>
        <pt x="1964" y="0" on="1"/>
        <pt x="1778" y="0" on="1"/>
        <pt x="1296" y="1241" on="1"/>
        <pt x="815" y="0" on="1"/>
        <pt x="629" y="0" on="1"/>
        <pt x="76" y="1374" on="1"/>
        <pt x="215" y="1374" on="1"/>
        <pt x="723" y="100" on="1"/>
        <pt x="1212" y="1374" on="1"/>
      </contour>
    </TTGlyph>
    <TTGlyph name="Wacute" xMin="76" yMin="0" xMax="2517" yMax="1792">
      <component glyphName="W" x="0" y="0" flags="0x204"/>
      <component glyphName="acute" x="754" y="362" flags="0x4"/>
    </TTGlyph>
    <TTGlyph name="Wcircumflex" xMin="76" yMin="0" xMax="2517" yMax="1792">
      <component glyphName="W" x="0" y="0" flags="0x204"/>
      <component glyphName="circumflex" x="754" y="362" flags="0x4"/>
    </TTGlyph>
    <TTGlyph name="Wdieresis" xMin="76" yMin="0" xMax="2517" yMax="1669">
      <component glyphName="W" x="0" y="0" flags="0x204"/>
      <component glyphName="dieresis" x="754" y="362" flags="0x4"/>
    </TTGlyph>
    <TTGlyph name="Wgrave" xMin="76" yMin="0" xMax="2517" yMax="1792">
      <component glyphName="W" x="0" y="0" flags="0x204"/>
      <component glyphName="grave" x="754" y="362" flags="0x4"/>
    </TTGlyph>
    <TTGlyph name="X" xMin="92" yMin="0" xMax="1593" yMax="1374">
      <contour>
        <pt x="842" y="621" on="1"/>
        <pt x="250" y="0" on="1"/>
        <pt x="92" y="0" on="1"/>
        <pt x="764" y="705" on="1"/>
        <pt x="125" y="1374" on="1"/>
        <pt x="283" y="1374" on="1"/>
        <pt x="842" y="786" on="1"/>
        <pt x="1403" y="1374" on="1"/>
        <pt x="1561" y="1374" on="1"/>
        <pt x="922" y="705" on="1"/>
        <pt x="1593" y="0" on="1"/>
        <pt x="1436" y="0" on="1"/>
      </contour>
    </TTGlyph>
    <TTGlyph name="Y" xMin="74" yMin="0" xMax="1489" yMax="1374">
      <contour>
        <pt x="844" y="582" on="1"/>
        <pt x="844" y="0" on="1"/>
        <pt x="719" y="0" on="1"/>
        <pt x="719" y="582" on="1"/>
        <pt x="74" y="1374" on="1"/>
        <pt x="223" y="1374" on="1"/>
        <pt x="782" y="686" on="1"/>
        <pt x="1339" y="1374" on="1"/>
        <pt x="1489" y="1374" on="1"/>
      </contour>
    </TTGlyph>
    <TTGlyph name="Yacute" xMin="74" yMin="0" xMax="1489" yMax="1792">
      <component glyphName="Y" x="0" y="0" flags="0x204"/>
      <component glyphName="acute" x="242" y="362" flags="0x4"/>
    </TTGlyph>
    <TTGlyph name="Ycircumflex" xMin="74" yMin="0" xMax="1489" yMax="1792">
      <component glyphName="Y" x="0" y="0" flags="0x204"/>
      <component glyphName="circumflex" x="242" y="362" flags="0x4"/>
    </TTGlyph>
    <TTGlyph name="Ydieresis" xMin="74" yMin="0" xMax="1489" yMax="1669">
      <component glyphName="Y" x="0" y="0" flags="0x204"/>
      <component glyphName="dieresis" x="242" y="362" flags="0x4"/>
    </TTGlyph>
    <TTGlyph name="Ygrave" xMin="74" yMin="0" xMax="1489" yMax="1792">
      <component glyphName="Y" x="0" y="0" flags="0x204"/>
      <component glyphName="grave" x="242" y="362" flags="0x4"/>
    </TTGlyph>
    <TTGlyph name="Z" xMin="147" yMin="0" xMax="1358" yMax="1374">
      <contour>
        <pt x="147" y="0" on="1"/>
        <pt x="147" y="102" on="1"/>
        <pt x="1143" y="1257" on="1"/>
        <pt x="174" y="1257" on="1"/>
        <pt x="174" y="1374" on="1"/>
        <pt x="1337" y="1374" on="1"/>
        <pt x="1337" y="1307" on="1"/>
        <pt x="311" y="117" on="1"/>
        <pt x="1358" y="117" on="1"/>
        <pt x="1358" y="0" on="1"/>
      </contour>
    </TTGlyph>
    <TTGlyph name="Zacute" xMin="147" yMin="0" xMax="1358" yMax="1792">
      <component glyphName="Z" x="0" y="0" flags="0x204"/>
      <component glyphName="acute" x="219" y="362" flags="0x4"/>
    </TTGlyph>
    <TTGlyph name="Zcaron" xMin="147" yMin="0" xMax="1358" yMax="1792">
      <component glyphName="Z" x="0" y="0" flags="0x204"/>
      <component glyphName="caron" x="219" y="362" flags="0x4"/>
    </TTGlyph>
    <TTGlyph name="Zdotaccent" xMin="147" yMin="0" xMax="1358" yMax="1675">
      <component glyphName="Z" x="0" y="0" flags="0x204"/>
      <component glyphName="dotaccent" x="219" y="362" flags="0x4"/>
    </TTGlyph>
    <TTGlyph name="a" xMin="125" yMin="-27" xMax="1599" yMax="1399">
      <contour>
        <pt x="1475" y="0" on="1"/>
        <pt x="1475" y="152" on="1"/>
        <pt x="1403" y="113" on="0"/>
        <pt x="1220" y="47" on="0"/>
        <pt x="1017" y="-1" on="0"/>
        <pt x="803" y="-27" on="0"/>
        <pt x="700" y="-27" on="1"/>
        <pt x="566" y="-27" on="0"/>
        <pt x="353" y="21" on="0"/>
        <pt x="205" y="116" on="0"/>
        <pt x="125" y="257" on="0"/>
        <pt x="125" y="350" on="1"/>
        <pt x="125" y="442" on="0"/>
        <pt x="218" y="583" on="0"/>
        <pt x="390" y="688" on="0"/>
        <pt x="633" y="761" on="0"/>
        <pt x="933" y="812" on="0"/>
        <pt x="1282" y="845" on="0"/>
        <pt x="1475" y="856" on="1"/>
        <pt x="1475" y="961" on="1"/>
        <pt x="1475" y="1025" on="0"/>
        <pt x="1427" y="1123" on="0"/>
        <pt x="1341" y="1196" on="0"/>
        <pt x="1225" y="1245" on="0"/>
        <pt x="1090" y="1275" on="0"/>
        <pt x="941" y="1288" on="0"/>
        <pt x="866" y="1288" on="1"/>
        <pt x="765" y="1288" on="0"/>
        <pt x="599" y="1268" on="0"/>
        <pt x="455" y="1233" on="0"/>
        <pt x="323" y="1187" on="0"/>
        <pt x="256" y="1161" on="1"/>
        <pt x="256" y="1307" on="1"/>
        <pt x="395" y="1344" on="0"/>
        <pt x="710" y="1399" on="0"/>
        <pt x="887" y="1399" on="1"/>
        <pt x="1037" y="1399" on="0"/>
        <pt x="1297" y="1348" on="0"/>
        <pt x="1489" y="1236" on="0"/>
        <pt x="1599" y="1059" on="0"/>
        <pt x="1599" y="932" on="1"/>
        <pt x="1599" y="0" on="1"/>
      </contour>
      <contour>
        <pt x="1475" y="745" on="1"/>
        <pt x="1148" y="727" on="0"/>
        <pt x="685" y="661" on="0"/>
        <pt x="391" y="565" on="0"/>
        <pt x="254" y="437" on="0"/>
        <pt x="254" y="356" on="1"/>
        <pt x="254" y="290" on="0"/>
        <pt x="321" y="188" on="0"/>
        <pt x="447" y="119" on="0"/>
        <pt x="627" y="84" on="0"/>
        <pt x="739" y="84" on="1"/>
        <pt x="805" y="84" on="0"/>
        <pt x="946" y="99" on="0"/>
        <pt x="1086" y="126" on="0"/>
        <pt x="1222" y="163" on="0"/>
        <pt x="1342" y="207" on="0"/>
        <pt x="1441" y="257" on="0"/>
        <pt x="1475" y="283" on="1"/>
      </contour>
    </TTGlyph>
    <TTGlyph name="aacute" xMin="125" yMin="-27" xMax="1599" yMax="1792">
      <component glyphName="a" x="0" y="0" flags="0x204"/>
      <component glyphName="acute" x="360" y="362" flags="0x4"/>
    </TTGlyph>
    <TTGlyph name="abreve" xMin="125" yMin="-27" xMax="1599" yMax="1751">
      <component glyphName="a" x="0" y="0" flags="0x204"/>
      <component glyphName="breve" x="360" y="362" flags="0x4"/>
    </TTGlyph>
    <TTGlyph name="acircumflex" xMin="125" yMin="-27" xMax="1599" yMax="1792">
      <component glyphName="a" x="0" y="0" flags="0x204"/>
      <component glyphName="circumflex" x="360" y="362" flags="0x4"/>
    </TTGlyph>
    <TTGlyph name="acute" xMin="416" yMin="1139" xMax="895" yMax="1430">
      <contour>
        <pt x="895" y="1325" on="1"/>
        <pt x="455" y="1139" on="1"/>
        <pt x="416" y="1217" on="1"/>
        <pt x="844" y="1430" on="1"/>
      </contour>
    </TTGlyph>
    <TTGlyph name="adieresis" xMin="125" yMin="-27" xMax="1599" yMax="1669">
      <component glyphName="a" x="0" y="0" flags="0x204"/>
      <component glyphName="dieresis" x="360" y="362" flags="0x4"/>
    </TTGlyph>
    <TTGlyph name="ae" xMin="125" yMin="-27" xMax="3064" yMax="1399">
      <contour>
        <pt x="2951" y="72" on="1"/>
        <pt x="2867" y="46" on="0"/>
        <pt x="2723" y="9" on="0"/>
        <pt x="2584" y="-14" on="0"/>
        <pt x="2438" y="-25" on="0"/>
        <pt x="2351" y="-25" on="1"/>
        <pt x="2113" y="-25" on="0"/>
        <pt x="1751" y="108" on="0"/>
        <pt x="1636" y="231" on="1"/>
        <pt x="1509" y="160" on="0"/>
        <pt x="1280" y="61" on="0"/>
        <pt x="1056" y="0" on="0"/>
        <pt x="827" y="-27" on="0"/>
        <pt x="700" y="-27" on="1"/>
        <pt x="566" y="-27" on="0"/>
        <pt x="353" y="21" on="0"/>
        <pt x="205" y="116" on="0"/>
        <pt x="125" y="257" on="0"/>
        <pt x="125" y="350" on="1"/>
        <pt x="125" y="442" on="0"/>
        <pt x="218" y="583" on="0"/>
        <pt x="390" y="688" on="0"/>
        <pt x="633" y="761" on="0"/>
        <pt x="933" y="812" on="0"/>
        <pt x="1282" y="845" on="0"/>
        <pt x="1475" y="856" on="1"/>
        <pt x="1475" y="961" on="1"/>
        <pt x="1475" y="1025" on="0"/>
        <pt x="1427" y="1123" on="0"/>
        <pt x="1341" y="1196" on="0"/>
        <pt x="1225" y="1245" on="0"/>
        <pt x="1090" y="1275" on="0"/>
        <pt x="941" y="1288" on="0"/>
        <pt x="866" y="1288" on="1"/>
        <pt x="765" y="1288" on="0"/>
        <pt x="599" y="1268" on="0"/>
        <pt x="455" y="1233" on="0"/>
        <pt x="323" y="1187" on="0"/>
        <pt x="256" y="1161" on="1"/>
        <pt x="256" y="1307" on="1"/>
        <pt x="395" y="1344" on="0"/>
        <pt x="710" y="1399" on="0"/>
        <pt x="887" y="1399" on="1"/>
        <pt x="1016" y="1399" on="0"/>
        <pt x="1245" y="1361" on="0"/>
        <pt x="1428" y="1280" on="0"/>
        <pt x="1555" y="1150" on="0"/>
        <pt x="1581" y="1059" on="1"/>
        <pt x="1632" y="1136" on="0"/>
        <pt x="1776" y="1258" on="0"/>
        <pt x="1954" y="1344" on="0"/>
        <pt x="2164" y="1389" on="0"/>
        <pt x="2281" y="1389" on="1"/>
        <pt x="2468" y="1389" on="0"/>
        <pt x="2760" y="1289" on="0"/>
        <pt x="2960" y="1103" on="0"/>
        <pt x="3064" y="838" on="0"/>
        <pt x="3064" y="672" on="1"/>
        <pt x="3064" y="641" on="1"/>
        <pt x="1599" y="641" on="1"/>
        <pt x="1610" y="513" on="0"/>
        <pt x="1716" y="307" on="0"/>
        <pt x="1911" y="163" on="0"/>
        <pt x="2196" y="86" on="0"/>
        <pt x="2386" y="86" on="1"/>
        <pt x="2467" y="86" on="0"/>
        <pt x="2634" y="108" on="0"/>
        <pt x="2785" y="145" on="0"/>
        <pt x="2911" y="192" on="0"/>
        <pt x="2951" y="217" on="1"/>
      </contour>
      <contour>
        <pt x="739" y="84" on="1"/>
        <pt x="883" y="84" on="0"/>
        <pt x="1136" y="132" on="0"/>
        <pt x="1345" y="205" on="0"/>
        <pt x="1507" y="291" on="0"/>
        <pt x="1561" y="330" on="1"/>
        <pt x="1470" y="479" on="0"/>
        <pt x="1470" y="678" on="1"/>
        <pt x="1470" y="695" on="0"/>
        <pt x="1471" y="728" on="0"/>
        <pt x="1473" y="743" on="1"/>
        <pt x="1149" y="725" on="0"/>
        <pt x="687" y="659" on="0"/>
        <pt x="392" y="563" on="0"/>
        <pt x="254" y="436" on="0"/>
        <pt x="254" y="356" on="1"/>
        <pt x="254" y="290" on="0"/>
        <pt x="321" y="188" on="0"/>
        <pt x="447" y="119" on="0"/>
        <pt x="627" y="84" on="0"/>
      </contour>
      <contour>
        <pt x="2941" y="750" on="1"/>
        <pt x="2934" y="855" on="0"/>
        <pt x="2854" y="1046" on="0"/>
        <pt x="2695" y="1192" on="0"/>
        <pt x="2450" y="1278" on="0"/>
        <pt x="2279" y="1278" on="1"/>
        <pt x="2118" y="1278" on="0"/>
        <pt x="1876" y="1192" on="0"/>
        <pt x="1708" y="1047" on="0"/>
        <pt x="1612" y="856" on="0"/>
        <pt x="1599" y="750" on="1"/>
      </contour>
    </TTGlyph>
    <TTGlyph name="aeacute" xMin="125" yMin="-27" xMax="3064" yMax="1792">
      <component glyphName="ae" x="0" y="0" flags="0x204"/>
      <component glyphName="acute" x="1073" y="362" flags="0x4"/>
    </TTGlyph>
    <TTGlyph name="agrave" xMin="125" yMin="-27" xMax="1599" yMax="1792">
      <component glyphName="a" x="0" y="0" flags="0x204"/>
      <component glyphName="grave" x="360" y="362" flags="0x4"/>
    </TTGlyph>
    <TTGlyph name="amacron" xMin="125" yMin="-27" xMax="1599" yMax="1644">
      <component glyphName="a" x="0" y="0" flags="0x204"/>
      <component glyphName="macron" x="360" y="362" flags="0x4"/>
    </TTGlyph>
    <TTGlyph name="ampersand" xMin="158" yMin="-27" xMax="1772" yMax="1399">
      <contour>
        <pt x="1686" y="649" on="1"/>
        <pt x="1673" y="531" on="0"/>
        <pt x="1562" y="299" on="0"/>
        <pt x="1460" y="205" on="1"/>
        <pt x="1491" y="183" on="0"/>
        <pt x="1554" y="141" on="0"/>
        <pt x="1626" y="94" on="0"/>
        <pt x="1714" y="37" on="0"/>
        <pt x="1772" y="0" on="1"/>
        <pt x="1589" y="0" on="1"/>
        <pt x="1530" y="35" on="0"/>
        <pt x="1425" y="105" on="0"/>
        <pt x="1372" y="139" on="1"/>
        <pt x="1266" y="65" on="0"/>
        <pt x="967" y="-27" on="0"/>
        <pt x="774" y="-27" on="1"/>
        <pt x="654" y="-27" on="0"/>
        <pt x="431" y="17" on="0"/>
        <pt x="260" y="109" on="0"/>
        <pt x="158" y="252" on="0"/>
        <pt x="158" y="350" on="1"/>
        <pt x="158" y="418" on="0"/>
        <pt x="221" y="536" on="0"/>
        <pt x="328" y="638" on="0"/>
        <pt x="469" y="727" on="0"/>
        <pt x="547" y="766" on="1"/>
        <pt x="456" y="860" on="0"/>
        <pt x="369" y="1020" on="0"/>
        <pt x="369" y="1096" on="1"/>
        <pt x="369" y="1172" on="0"/>
        <pt x="443" y="1286" on="0"/>
        <pt x="570" y="1362" on="0"/>
        <pt x="741" y="1399" on="0"/>
        <pt x="838" y="1399" on="1"/>
        <pt x="922" y="1399" on="0"/>
        <pt x="1067" y="1364" on="0"/>
        <pt x="1175" y="1301" on="0"/>
        <pt x="1237" y="1210" on="0"/>
        <pt x="1237" y="1155" on="1"/>
        <pt x="1237" y="1087" on="0"/>
        <pt x="1148" y="975" on="0"/>
        <pt x="1004" y="876" on="0"/>
        <pt x="822" y="786" on="0"/>
        <pt x="729" y="741" on="1"/>
        <pt x="835" y="647" on="0"/>
        <pt x="1150" y="414" on="0"/>
        <pt x="1370" y="266" on="1"/>
        <pt x="1460" y="345" on="0"/>
        <pt x="1555" y="544" on="0"/>
        <pt x="1565" y="649" on="1"/>
      </contour>
      <contour>
        <pt x="797" y="78" on="1"/>
        <pt x="949" y="78" on="0"/>
        <pt x="1191" y="144" on="0"/>
        <pt x="1282" y="201" on="1"/>
        <pt x="1064" y="344" on="0"/>
        <pt x="737" y="584" on="0"/>
        <pt x="623" y="690" on="1"/>
        <pt x="593" y="675" on="0"/>
        <pt x="519" y="636" on="0"/>
        <pt x="443" y="589" on="0"/>
        <pt x="371" y="533" on="0"/>
        <pt x="315" y="467" on="0"/>
        <pt x="281" y="392" on="0"/>
        <pt x="281" y="350" on="1"/>
        <pt x="281" y="298" on="0"/>
        <pt x="340" y="200" on="0"/>
        <pt x="465" y="124" on="0"/>
        <pt x="660" y="78" on="0"/>
      </contour>
      <contour>
        <pt x="492" y="1096" on="1"/>
        <pt x="492" y="1034" on="0"/>
        <pt x="569" y="900" on="0"/>
        <pt x="653" y="815" on="1"/>
        <pt x="741" y="857" on="0"/>
        <pt x="907" y="934" on="0"/>
        <pt x="1036" y="1014" on="0"/>
        <pt x="1114" y="1099" on="0"/>
        <pt x="1114" y="1147" on="1"/>
        <pt x="1114" y="1173" on="0"/>
        <pt x="1088" y="1226" on="0"/>
        <pt x="1026" y="1268" on="0"/>
        <pt x="922" y="1294" on="0"/>
        <pt x="844" y="1294" on="1"/>
        <pt x="767" y="1294" on="0"/>
        <pt x="638" y="1271" on="0"/>
        <pt x="544" y="1223" on="0"/>
        <pt x="492" y="1148" on="0"/>
      </contour>
    </TTGlyph>
    <TTGlyph name="aogonek" xMin="125" yMin="-356" xMax="1745" yMax="1399">
      <contour>
        <pt x="1599" y="0" on="1"/>
        <pt x="1518" y="-34" on="0"/>
        <pt x="1421" y="-131" on="0"/>
        <pt x="1421" y="-182" on="1"/>
        <pt x="1421" y="-224" on="0"/>
        <pt x="1496" y="-262" on="0"/>
        <pt x="1565" y="-262" on="1"/>
        <pt x="1614" y="-262" on="0"/>
        <pt x="1703" y="-247" on="0"/>
        <pt x="1745" y="-236" on="1"/>
        <pt x="1745" y="-338" on="1"/>
        <pt x="1704" y="-344" on="0"/>
        <pt x="1614" y="-356" on="0"/>
        <pt x="1548" y="-356" on="1"/>
        <pt x="1493" y="-356" on="0"/>
        <pt x="1404" y="-339" on="0"/>
        <pt x="1341" y="-302" on="0"/>
        <pt x="1307" y="-245" on="0"/>
        <pt x="1307" y="-205" on="1"/>
        <pt x="1307" y="-145" on="0"/>
        <pt x="1388" y="-42" on="0"/>
        <pt x="1475" y="6" on="1"/>
        <pt x="1475" y="152" on="1"/>
        <pt x="1403" y="113" on="0"/>
        <pt x="1220" y="47" on="0"/>
        <pt x="1017" y="-1" on="0"/>
        <pt x="803" y="-27" on="0"/>
        <pt x="700" y="-27" on="1"/>
        <pt x="566" y="-27" on="0"/>
        <pt x="353" y="21" on="0"/>
        <pt x="205" y="116" on="0"/>
        <pt x="125" y="257" on="0"/>
        <pt x="125" y="350" on="1"/>
        <pt x="125" y="442" on="0"/>
        <pt x="218" y="583" on="0"/>
        <pt x="390" y="688" on="0"/>
        <pt x="633" y="761" on="0"/>
        <pt x="933" y="812" on="0"/>
        <pt x="1282" y="845" on="0"/>
        <pt x="1475" y="856" on="1"/>
        <pt x="1475" y="961" on="1"/>
        <pt x="1475" y="1025" on="0"/>
        <pt x="1427" y="1123" on="0"/>
        <pt x="1341" y="1196" on="0"/>
        <pt x="1225" y="1245" on="0"/>
        <pt x="1090" y="1275" on="0"/>
        <pt x="941" y="1288" on="0"/>
        <pt x="866" y="1288" on="1"/>
        <pt x="765" y="1288" on="0"/>
        <pt x="599" y="1268" on="0"/>
        <pt x="455" y="1233" on="0"/>
        <pt x="323" y="1187" on="0"/>
        <pt x="256" y="1161" on="1"/>
        <pt x="256" y="1307" on="1"/>
        <pt x="395" y="1344" on="0"/>
        <pt x="710" y="1399" on="0"/>
        <pt x="887" y="1399" on="1"/>
        <pt x="1037" y="1399" on="0"/>
        <pt x="1297" y="1348" on="0"/>
        <pt x="1489" y="1236" on="0"/>
        <pt x="1599" y="1059" on="0"/>
        <pt x="1599" y="932" on="1"/>
      </contour>
      <contour>
        <pt x="1475" y="745" on="1"/>
        <pt x="1148" y="727" on="0"/>
        <pt x="685" y="661" on="0"/>
        <pt x="391" y="565" on="0"/>
        <pt x="254" y="437" on="0"/>
        <pt x="254" y="356" on="1"/>
        <pt x="254" y="290" on="0"/>
        <pt x="321" y="188" on="0"/>
        <pt x="447" y="119" on="0"/>
        <pt x="627" y="84" on="0"/>
        <pt x="739" y="84" on="1"/>
        <pt x="805" y="84" on="0"/>
        <pt x="946" y="99" on="0"/>
        <pt x="1086" y="126" on="0"/>
        <pt x="1222" y="163" on="0"/>
        <pt x="1342" y="207" on="0"/>
        <pt x="1441" y="257" on="0"/>
        <pt x="1475" y="283" on="1"/>
      </contour>
    </TTGlyph>
    <TTGlyph name="approxequal" xMin="156" yMin="428" xMax="1145" yMax="1001">
      <contour>
        <pt x="1145" y="532" on="1"/>
        <pt x="1103" y="490" on="0"/>
        <pt x="984" y="432" on="0"/>
        <pt x="903" y="432" on="1"/>
        <pt x="841" y="432" on="0"/>
        <pt x="713" y="466" on="0"/>
        <pt x="582" y="507" on="0"/>
        <pt x="451" y="541" on="0"/>
        <pt x="387" y="541" on="1"/>
        <pt x="352" y="541" on="0"/>
        <pt x="286" y="521" on="0"/>
        <pt x="226" y="488" on="0"/>
        <pt x="175" y="448" on="0"/>
        <pt x="156" y="428" on="1"/>
        <pt x="156" y="547" on="1"/>
        <pt x="177" y="568" on="0"/>
        <pt x="231" y="606" on="0"/>
        <pt x="294" y="633" on="0"/>
        <pt x="361" y="649" on="0"/>
        <pt x="395" y="649" on="1"/>
        <pt x="456" y="649" on="0"/>
        <pt x="586" y="615" on="0"/>
        <pt x="718" y="573" on="0"/>
        <pt x="849" y="539" on="0"/>
        <pt x="913" y="539" on="1"/>
        <pt x="948" y="539" on="0"/>
        <pt x="1014" y="559" on="0"/>
        <pt x="1074" y="592" on="0"/>
        <pt x="1125" y="632" on="0"/>
        <pt x="1145" y="653" on="1"/>
      </contour>
      <contour>
        <pt x="1145" y="881" on="1"/>
        <pt x="1103" y="839" on="0"/>
        <pt x="984" y="780" on="0"/>
        <pt x="903" y="780" on="1"/>
        <pt x="841" y="780" on="0"/>
        <pt x="713" y="814" on="0"/>
        <pt x="582" y="855" on="0"/>
        <pt x="451" y="889" on="0"/>
        <pt x="387" y="889" on="1"/>
        <pt x="352" y="889" on="0"/>
        <pt x="286" y="869" on="0"/>
        <pt x="226" y="836" on="0"/>
        <pt x="175" y="796" on="0"/>
        <pt x="156" y="776" on="1"/>
        <pt x="156" y="895" on="1"/>
        <pt x="177" y="916" on="0"/>
        <pt x="231" y="954" on="0"/>
        <pt x="294" y="981" on="0"/>
        <pt x="361" y="997" on="0"/>
        <pt x="395" y="997" on="1"/>
        <pt x="456" y="997" on="0"/>
        <pt x="586" y="963" on="0"/>
        <pt x="718" y="921" on="0"/>
        <pt x="849" y="887" on="0"/>
        <pt x="913" y="887" on="1"/>
        <pt x="948" y="887" on="0"/>
        <pt x="1014" y="907" on="0"/>
        <pt x="1074" y="940" on="0"/>
        <pt x="1125" y="980" on="0"/>
        <pt x="1145" y="1001" on="1"/>
      </contour>
    </TTGlyph>
    <TTGlyph name="aring" xMin="125" yMin="-27" xMax="1599" yMax="1853">
      <component glyphName="a" x="0" y="0" flags="0x204"/>
      <component glyphName="ring" x="360" y="362" flags="0x4"/>
    </TTGlyph>
    <TTGlyph name="asciicircum" xMin="61" yMin="784" xMax="881" yMax="1374">
      <contour>
        <pt x="748" y="784" on="1"/>
        <pt x="471" y="1278" on="1"/>
        <pt x="195" y="784" on="1"/>
        <pt x="61" y="784" on="1"/>
        <pt x="403" y="1374" on="1"/>
        <pt x="539" y="1374" on="1"/>
        <pt x="881" y="784" on="1"/>
      </contour>
    </TTGlyph>
    <TTGlyph name="asciitilde" xMin="156" yMin="573" xMax="1145" yMax="799">
      <contour>
        <pt x="1103" y="636" on="0"/>
        <pt x="984" y="578" on="0"/>
        <pt x="903" y="578" on="1"/>
        <pt x="841" y="578" on="0"/>
        <pt x="713" y="612" on="0"/>
        <pt x="582" y="652" on="0"/>
        <pt x="451" y="686" on="0"/>
        <pt x="387" y="686" on="1"/>
        <pt x="352" y="686" on="0"/>
        <pt x="286" y="666" on="0"/>
        <pt x="226" y="634" on="0"/>
        <pt x="175" y="593" on="0"/>
        <pt x="156" y="573" on="1"/>
        <pt x="156" y="692" on="1"/>
        <pt x="177" y="714" on="0"/>
        <pt x="231" y="751" on="0"/>
        <pt x="294" y="779" on="0"/>
        <pt x="361" y="795" on="0"/>
        <pt x="395" y="795" on="1"/>
        <pt x="456" y="795" on="0"/>
        <pt x="586" y="760" on="0"/>
        <pt x="718" y="719" on="0"/>
        <pt x="849" y="684" on="0"/>
        <pt x="913" y="684" on="1"/>
        <pt x="948" y="684" on="0"/>
        <pt x="1014" y="704" on="0"/>
        <pt x="1074" y="737" on="0"/>
        <pt x="1125" y="778" on="0"/>
        <pt x="1145" y="799" on="1"/>
        <pt x="1145" y="678" on="1"/>
      </contour>
    </TTGlyph>
    <TTGlyph name="asterisk" xMin="123" yMin="578" xMax="909" yMax="1374">
      <contour>
        <pt x="854" y="719" on="1"/>
        <pt x="559" y="903" on="1"/>
        <pt x="571" y="578" on="1"/>
        <pt x="459" y="578" on="1"/>
        <pt x="473" y="903" on="1"/>
        <pt x="180" y="719" on="1"/>
        <pt x="123" y="813" on="1"/>
        <pt x="432" y="977" on="1"/>
        <pt x="123" y="1141" on="1"/>
        <pt x="180" y="1233" on="1"/>
        <pt x="473" y="1051" on="1"/>
        <pt x="459" y="1374" on="1"/>
        <pt x="571" y="1374" on="1"/>
        <pt x="557" y="1051" on="1"/>
        <pt x="854" y="1233" on="1"/>
        <pt x="909" y="1141" on="1"/>
        <pt x="598" y="977" on="1"/>
        <pt x="909" y="813" on="1"/>
      </contour>
    </TTGlyph>
    <TTGlyph name="at" xMin="156" yMin="-29" xMax="1925" yMax="1415">
      <contour>
        <pt x="1262" y="436" on="1"/>
        <pt x="1241" y="417" on="0"/>
        <pt x="1184" y="377" on="0"/>
        <pt x="1108" y="345" on="0"/>
        <pt x="1012" y="324" on="0"/>
        <pt x="952" y="324" on="1"/>
        <pt x="883" y="324" on="0"/>
        <pt x="760" y="362" on="0"/>
        <pt x="668" y="437" on="0"/>
        <pt x="614" y="547" on="0"/>
        <pt x="614" y="618" on="1"/>
        <pt x="614" y="726" on="0"/>
        <pt x="694" y="888" on="0"/>
        <pt x="825" y="998" on="0"/>
        <pt x="993" y="1053" on="0"/>
        <pt x="1081" y="1053" on="1"/>
        <pt x="1154" y="1053" on="0"/>
        <pt x="1265" y="1019" on="0"/>
        <pt x="1319" y="991" on="1"/>
        <pt x="1329" y="1038" on="1"/>
        <pt x="1448" y="1038" on="1"/>
        <pt x="1372" y="584" on="1"/>
        <pt x="1371" y="581" on="0"/>
        <pt x="1369" y="562" on="0"/>
        <pt x="1366" y="542" on="0"/>
        <pt x="1364" y="524" on="0"/>
        <pt x="1364" y="522" on="1"/>
        <pt x="1364" y="471" on="0"/>
        <pt x="1436" y="424" on="0"/>
        <pt x="1495" y="424" on="1"/>
        <pt x="1559" y="424" on="0"/>
        <pt x="1670" y="481" on="0"/>
        <pt x="1752" y="580" on="0"/>
        <pt x="1798" y="712" on="0"/>
        <pt x="1798" y="788" on="1"/>
        <pt x="1798" y="912" on="0"/>
        <pt x="1698" y="1104" on="0"/>
        <pt x="1515" y="1235" on="0"/>
        <pt x="1257" y="1303" on="0"/>
        <pt x="1100" y="1303" on="1"/>
        <pt x="983" y="1303" on="0"/>
        <pt x="771" y="1257" on="0"/>
        <pt x="590" y="1172" on="0"/>
        <pt x="445" y="1054" on="0"/>
        <pt x="342" y="909" on="0"/>
        <pt x="287" y="742" on="0"/>
        <pt x="287" y="651" on="1"/>
        <pt x="287" y="519" on="0"/>
        <pt x="390" y="308" on="0"/>
        <pt x="583" y="161" on="0"/>
        <pt x="859" y="82" on="0"/>
        <pt x="1032" y="82" on="1"/>
        <pt x="1166" y="82" on="0"/>
        <pt x="1411" y="131" on="0"/>
        <pt x="1530" y="188" on="1"/>
        <pt x="1581" y="88" on="1"/>
        <pt x="1448" y="22" on="0"/>
        <pt x="1173" y="-29" on="0"/>
        <pt x="1024" y="-29" on="1"/>
        <pt x="830" y="-29" on="0"/>
        <pt x="511" y="64" on="0"/>
        <pt x="282" y="240" on="0"/>
        <pt x="156" y="492" on="0"/>
        <pt x="156" y="651" on="1"/>
        <pt x="156" y="757" on="0"/>
        <pt x="224" y="954" on="0"/>
        <pt x="346" y="1123" on="0"/>
        <pt x="519" y="1262" on="0"/>
        <pt x="727" y="1361" on="0"/>
        <pt x="967" y="1415" on="0"/>
        <pt x="1096" y="1415" on="1"/>
        <pt x="1282" y="1415" on="0"/>
        <pt x="1587" y="1326" on="0"/>
        <pt x="1805" y="1163" on="0"/>
        <pt x="1925" y="933" on="0"/>
        <pt x="1925" y="793" on="1"/>
        <pt x="1925" y="701" on="0"/>
        <pt x="1862" y="532" on="0"/>
        <pt x="1745" y="402" on="0"/>
        <pt x="1580" y="324" on="0"/>
        <pt x="1479" y="324" on="1"/>
        <pt x="1447" y="324" on="0"/>
        <pt x="1387" y="334" on="0"/>
        <pt x="1332" y="359" on="0"/>
        <pt x="1283" y="402" on="0"/>
      </contour>
      <contour>
        <pt x="979" y="418" on="1"/>
        <pt x="1013" y="418" on="0"/>
        <pt x="1083" y="431" on="0"/>
        <pt x="1152" y="461" on="0"/>
        <pt x="1216" y="508" on="0"/>
        <pt x="1245" y="543" on="1"/>
        <pt x="1300" y="877" on="1"/>
        <pt x="1250" y="918" on="0"/>
        <pt x="1145" y="958" on="0"/>
        <pt x="1079" y="958" on="1"/>
        <pt x="1014" y="958" on="0"/>
        <pt x="894" y="917" on="0"/>
        <pt x="801" y="835" on="0"/>
        <pt x="745" y="709" on="0"/>
        <pt x="745" y="625" on="1"/>
        <pt x="745" y="568" on="0"/>
        <pt x="779" y="489" on="0"/>
        <pt x="841" y="440" on="0"/>
        <pt x="927" y="418" on="0"/>
      </contour>
    </TTGlyph>
    <TTGlyph name="atilde" xMin="125" yMin="-27" xMax="1599" yMax="1730">
      <component glyphName="a" x="0" y="0" flags="0x204"/>
      <component glyphName="tilde" x="362" y="362" flags="0x4"/>
    </TTGlyph>
    <TTGlyph name="b" xMin="231" yMin="0" xMax="1593" yMax="1374">
      <contour>
        <pt x="1593" y="379" on="1"/>
        <pt x="1593" y="299" on="0"/>
        <pt x="1551" y="181" on="0"/>
        <pt x="1476" y="96" on="0"/>
        <pt x="1371" y="43" on="0"/>
        <pt x="1245" y="12" on="0"/>
        <pt x="1101" y="0" on="0"/>
        <pt x="1024" y="0" on="1"/>
        <pt x="231" y="0" on="1"/>
        <pt x="231" y="1374" on="1"/>
        <pt x="1006" y="1374" on="1"/>
        <pt x="1065" y="1374" on="0"/>
        <pt x="1183" y="1364" on="0"/>
        <pt x="1292" y="1337" on="0"/>
        <pt x="1385" y="1289" on="0"/>
        <pt x="1454" y="1211" on="0"/>
        <pt x="1493" y="1101" on="0"/>
        <pt x="1493" y="1026" on="1"/>
        <pt x="1493" y="959" on="0"/>
        <pt x="1460" y="861" on="0"/>
        <pt x="1393" y="791" on="0"/>
        <pt x="1289" y="746" on="0"/>
        <pt x="1219" y="733" on="1"/>
        <pt x="1319" y="726" on="0"/>
        <pt x="1461" y="672" on="0"/>
        <pt x="1551" y="582" on="0"/>
        <pt x="1593" y="457" on="0"/>
      </contour>
      <contour>
        <pt x="1376" y="1024" on="1"/>
        <pt x="1376" y="1053" on="0"/>
        <pt x="1368" y="1111" on="0"/>
        <pt x="1340" y="1164" on="0"/>
        <pt x="1287" y="1210" on="0"/>
        <pt x="1195" y="1243" on="0"/>
        <pt x="1060" y="1262" on="0"/>
        <pt x="965" y="1262" on="1"/>
        <pt x="356" y="1262" on="1"/>
        <pt x="356" y="782" on="1"/>
        <pt x="965" y="782" on="1"/>
        <pt x="1100" y="782" on="0"/>
        <pt x="1262" y="821" on="0"/>
        <pt x="1349" y="887" on="0"/>
        <pt x="1376" y="975" on="0"/>
      </contour>
      <contour>
        <pt x="1462" y="381" on="1"/>
        <pt x="1462" y="459" on="0"/>
        <pt x="1408" y="569" on="0"/>
        <pt x="1296" y="639" on="0"/>
        <pt x="1120" y="672" on="0"/>
        <pt x="999" y="672" on="1"/>
        <pt x="356" y="672" on="1"/>
        <pt x="356" y="113" on="1"/>
        <pt x="1016" y="113" on="1"/>
        <pt x="1141" y="113" on="0"/>
        <pt x="1312" y="142" on="0"/>
        <pt x="1417" y="207" on="0"/>
        <pt x="1462" y="309" on="0"/>
      </contour>
    </TTGlyph>
    <TTGlyph name="backslash" xMin="113" yMin="-41" xMax="911" yMax="1436">
      <contour>
        <pt x="113" y="1436" on="1"/>
        <pt x="233" y="1436" on="1"/>
        <pt x="911" y="-41" on="1"/>
        <pt x="791" y="-41" on="1"/>
      </contour>
    </TTGlyph>
    <TTGlyph name="bar" xMin="205" yMin="-483" xMax="328" yMax="1565">
      <contour>
        <pt x="205" y="-483" on="1"/>
        <pt x="205" y="1565" on="1"/>
        <pt x="328" y="1565" on="1"/>
        <pt x="328" y="-483" on="1"/>
      </contour>
    </TTGlyph>
    <TTGlyph name="braceleft" xMin="61" yMin="-121" xMax="688" yMax="1489">
      <contour>
        <pt x="291" y="354" on="1"/>
        <pt x="291" y="429" on="0"/>
        <pt x="279" y="535" on="0"/>
        <pt x="238" y="603" on="0"/>
        <pt x="163" y="635" on="0"/>
        <pt x="100" y="635" on="1"/>
        <pt x="61" y="635" on="1"/>
        <pt x="61" y="737" on="1"/>
        <pt x="100" y="737" on="1"/>
        <pt x="164" y="737" on="0"/>
        <pt x="240" y="770" on="0"/>
        <pt x="280" y="839" on="0"/>
        <pt x="291" y="946" on="0"/>
        <pt x="291" y="1020" on="1"/>
        <pt x="291" y="1143" on="1"/>
        <pt x="291" y="1236" on="0"/>
        <pt x="325" y="1367" on="0"/>
        <pt x="397" y="1451" on="0"/>
        <pt x="510" y="1489" on="0"/>
        <pt x="588" y="1489" on="1"/>
        <pt x="688" y="1489" on="1"/>
        <pt x="688" y="1382" on="1"/>
        <pt x="602" y="1382" on="1"/>
        <pt x="556" y="1382" on="0"/>
        <pt x="486" y="1373" on="0"/>
        <pt x="440" y="1333" on="0"/>
        <pt x="416" y="1251" on="0"/>
        <pt x="416" y="1178" on="1"/>
        <pt x="416" y="1020" on="1"/>
        <pt x="416" y="964" on="0"/>
        <pt x="402" y="856" on="0"/>
        <pt x="363" y="766" on="0"/>
        <pt x="293" y="700" on="0"/>
        <pt x="236" y="686" on="1"/>
        <pt x="292" y="671" on="0"/>
        <pt x="362" y="606" on="0"/>
        <pt x="402" y="516" on="0"/>
        <pt x="416" y="408" on="0"/>
        <pt x="416" y="352" on="1"/>
        <pt x="416" y="190" on="1"/>
        <pt x="416" y="117" on="0"/>
        <pt x="440" y="35" on="0"/>
        <pt x="486" y="-5" on="0"/>
        <pt x="556" y="-14" on="0"/>
        <pt x="602" y="-14" on="1"/>
        <pt x="688" y="-14" on="1"/>
        <pt x="688" y="-121" on="1"/>
        <pt x="588" y="-121" on="1"/>
        <pt x="510" y="-121" on="0"/>
        <pt x="397" y="-83" on="0"/>
        <pt x="325" y="1" on="0"/>
        <pt x="291" y="132" on="0"/>
        <pt x="291" y="225" on="1"/>
      </contour>
    </TTGlyph>
    <TTGlyph name="braceright" xMin="102" yMin="-121" xMax="729" yMax="1489">
      <contour>
        <pt x="500" y="225" on="1"/>
        <pt x="500" y="132" on="0"/>
        <pt x="466" y="1" on="0"/>
        <pt x="394" y="-83" on="0"/>
        <pt x="281" y="-121" on="0"/>
        <pt x="203" y="-121" on="1"/>
        <pt x="102" y="-121" on="1"/>
        <pt x="102" y="-14" on="1"/>
        <pt x="188" y="-14" on="1"/>
        <pt x="234" y="-14" on="0"/>
        <pt x="304" y="-5" on="0"/>
        <pt x="351" y="35" on="0"/>
        <pt x="375" y="117" on="0"/>
        <pt x="375" y="190" on="1"/>
        <pt x="375" y="352" on="1"/>
        <pt x="375" y="408" on="0"/>
        <pt x="389" y="516" on="0"/>
        <pt x="429" y="606" on="0"/>
        <pt x="499" y="671" on="0"/>
        <pt x="555" y="686" on="1"/>
        <pt x="498" y="700" on="0"/>
        <pt x="427" y="766" on="0"/>
        <pt x="388" y="856" on="0"/>
        <pt x="375" y="964" on="0"/>
        <pt x="375" y="1020" on="1"/>
        <pt x="375" y="1178" on="1"/>
        <pt x="375" y="1251" on="0"/>
        <pt x="351" y="1333" on="0"/>
        <pt x="304" y="1373" on="0"/>
        <pt x="234" y="1382" on="0"/>
        <pt x="188" y="1382" on="1"/>
        <pt x="102" y="1382" on="1"/>
        <pt x="102" y="1489" on="1"/>
        <pt x="203" y="1489" on="1"/>
        <pt x="281" y="1489" on="0"/>
        <pt x="394" y="1451" on="0"/>
        <pt x="466" y="1367" on="0"/>
        <pt x="500" y="1236" on="0"/>
        <pt x="500" y="1143" on="1"/>
        <pt x="500" y="1020" on="1"/>
        <pt x="500" y="946" on="0"/>
        <pt x="511" y="839" on="0"/>
        <pt x="550" y="770" on="0"/>
        <pt x="625" y="737" on="0"/>
        <pt x="690" y="737" on="1"/>
        <pt x="729" y="737" on="1"/>
        <pt x="729" y="635" on="1"/>
        <pt x="690" y="635" on="1"/>
        <pt x="627" y="635" on="0"/>
        <pt x="552" y="603" on="0"/>
        <pt x="512" y="535" on="0"/>
        <pt x="500" y="429" on="0"/>
        <pt x="500" y="354" on="1"/>
      </contour>
    </TTGlyph>
    <TTGlyph name="bracketleft" xMin="258" yMin="-121" xMax="735" yMax="1489">
      <contour>
        <pt x="258" y="-121" on="1"/>
        <pt x="258" y="1489" on="1"/>
        <pt x="735" y="1489" on="1"/>
        <pt x="735" y="1382" on="1"/>
        <pt x="383" y="1382" on="1"/>
        <pt x="383" y="-14" on="1"/>
        <pt x="735" y="-14" on="1"/>
        <pt x="735" y="-121" on="1"/>
      </contour>
    </TTGlyph>
    <TTGlyph name="bracketright" xMin="102" yMin="-121" xMax="580" yMax="1489">
      <contour>
        <pt x="102" y="-121" on="1"/>
        <pt x="102" y="-14" on="1"/>
        <pt x="455" y="-14" on="1"/>
        <pt x="455" y="1382" on="1"/>
        <pt x="102" y="1382" on="1"/>
        <pt x="102" y="1489" on="1"/>
        <pt x="580" y="1489" on="1"/>
        <pt x="580" y="-121" on="1"/>
      </contour>
    </TTGlyph>
    <TTGlyph name="breve" xMin="195" yMin="1151" xMax="887" yMax="1389">
      <contour>
        <pt x="878" y="1352" on="0"/>
        <pt x="834" y="1268" on="0"/>
        <pt x="754" y="1198" on="0"/>
        <pt x="631" y="1151" on="0"/>
        <pt x="541" y="1151" on="1"/>
        <pt x="451" y="1151" on="0"/>
        <pt x="327" y="1198" on="0"/>
        <pt x="247" y="1268" on="0"/>
        <pt x="204" y="1352" on="0"/>
        <pt x="195" y="1389" on="1"/>
        <pt x="311" y="1389" on="1"/>
        <pt x="317" y="1371" on="0"/>
        <pt x="346" y="1324" on="0"/>
        <pt x="399" y="1282" on="0"/>
        <pt x="481" y="1253" on="0"/>
        <pt x="541" y="1253" on="1"/>
        <pt x="600" y="1253" on="0"/>
        <pt x="682" y="1282" on="0"/>
        <pt x="736" y="1324" on="0"/>
        <pt x="766" y="1371" on="0"/>
        <pt x="772" y="1389" on="1"/>
        <pt x="887" y="1389" on="1"/>
      </contour>
    </TTGlyph>
    <TTGlyph name="brokenbar" xMin="205" yMin="-352" xMax="328" yMax="1430">
      <contour>
        <pt x="205" y="672" on="1"/>
        <pt x="205" y="1430" on="1"/>
        <pt x="328" y="1430" on="1"/>
        <pt x="328" y="672" on="1"/>
      </contour>
      <contour>
        <pt x="205" y="-352" on="1"/>
        <pt x="205" y="406" on="1"/>
        <pt x="328" y="406" on="1"/>
        <pt x="328" y="-352" on="1"/>
      </contour>
    </TTGlyph>
    <TTGlyph name="bullet" xMin="164" yMin="510" xMax="557" yMax="903">
      <contour>
        <pt x="164" y="707" on="1"/>
        <pt x="164" y="747" on="0"/>
        <pt x="195" y="819" on="0"/>
        <pt x="248" y="872" on="0"/>
        <pt x="319" y="903" on="0"/>
        <pt x="360" y="903" on="1"/>
        <pt x="401" y="903" on="0"/>
        <pt x="473" y="872" on="0"/>
        <pt x="526" y="819" on="0"/>
        <pt x="557" y="747" on="0"/>
        <pt x="557" y="707" on="1"/>
        <pt x="557" y="666" on="0"/>
        <pt x="526" y="594" on="0"/>
        <pt x="473" y="541" on="0"/>
        <pt x="401" y="510" on="0"/>
        <pt x="360" y="510" on="1"/>
        <pt x="319" y="510" on="0"/>
        <pt x="248" y="541" on="0"/>
        <pt x="195" y="594" on="0"/>
        <pt x="164" y="666" on="0"/>
      </contour>
    </TTGlyph>
    <TTGlyph name="c" xMin="135" yMin="-27" xMax="1640" yMax="1399">
      <contour>
        <pt x="1568" y="79" on="0"/>
        <pt x="1427" y="29" on="0"/>
        <pt x="1275" y="-7" on="0"/>
        <pt x="1107" y="-27" on="0"/>
        <pt x="1008" y="-27" on="1"/>
        <pt x="886" y="-27" on="0"/>
        <pt x="661" y="13" on="0"/>
        <pt x="467" y="93" on="0"/>
        <pt x="309" y="212" on="0"/>
        <pt x="196" y="370" on="0"/>
        <pt x="135" y="568" on="0"/>
        <pt x="135" y="686" on="1"/>
        <pt x="135" y="804" on="0"/>
        <pt x="196" y="1002" on="0"/>
        <pt x="309" y="1160" on="0"/>
        <pt x="467" y="1279" on="0"/>
        <pt x="661" y="1359" on="0"/>
        <pt x="885" y="1399" on="0"/>
        <pt x="1008" y="1399" on="1"/>
        <pt x="1107" y="1399" on="0"/>
        <pt x="1275" y="1379" on="0"/>
        <pt x="1427" y="1343" on="0"/>
        <pt x="1568" y="1294" on="0"/>
        <pt x="1640" y="1264" on="1"/>
        <pt x="1640" y="1114" on="1"/>
        <pt x="1583" y="1150" on="0"/>
        <pt x="1453" y="1214" on="0"/>
        <pt x="1302" y="1262" on="0"/>
        <pt x="1130" y="1290" on="0"/>
        <pt x="1032" y="1290" on="1"/>
        <pt x="834" y="1290" on="0"/>
        <pt x="544" y="1204" on="0"/>
        <pt x="355" y="1047" on="0"/>
        <pt x="264" y="824" on="0"/>
        <pt x="264" y="686" on="1"/>
        <pt x="264" y="548" on="0"/>
        <pt x="355" y="326" on="0"/>
        <pt x="544" y="169" on="0"/>
        <pt x="834" y="84" on="0"/>
        <pt x="1032" y="84" on="1"/>
        <pt x="1130" y="84" on="0"/>
        <pt x="1305" y="112" on="0"/>
        <pt x="1458" y="160" on="0"/>
        <pt x="1587" y="223" on="0"/>
        <pt x="1640" y="258" on="1"/>
        <pt x="1640" y="109" on="1"/>
      </contour>
    </TTGlyph>
    <TTGlyph name="cacute" xMin="135" yMin="-27" xMax="1640" yMax="1792">
      <component glyphName="c" x="0" y="0" flags="0x204"/>
      <component glyphName="acute" x="459" y="362" flags="0x4"/>
    </TTGlyph>
    <TTGlyph name="caron" xMin="154" yMin="1139" xMax="928" yMax="1430">
      <contour>
        <pt x="928" y="1358" on="1"/>
        <pt x="541" y="1139" on="1"/>
        <pt x="154" y="1358" on="1"/>
        <pt x="193" y="1430" on="1"/>
        <pt x="541" y="1270" on="1"/>
        <pt x="889" y="1430" on="1"/>
      </contour>
    </TTGlyph>
    <TTGlyph name="ccaron" xMin="135" yMin="-27" xMax="1640" yMax="1792">
      <component glyphName="c" x="0" y="0" flags="0x204"/>
      <component glyphName="caron" x="459" y="362" flags="0x4"/>
    </TTGlyph>
    <TTGlyph name="ccedilla" xMin="135" yMin="-401" xMax="1640" yMax="1399">
      <contour>
        <pt x="969" y="-98" on="1"/>
        <pt x="1013" y="-98" on="0"/>
        <pt x="1090" y="-112" on="0"/>
        <pt x="1147" y="-145" on="0"/>
        <pt x="1180" y="-200" on="0"/>
        <pt x="1180" y="-242" on="1"/>
        <pt x="1180" y="-287" on="0"/>
        <pt x="1143" y="-348" on="0"/>
        <pt x="1077" y="-385" on="0"/>
        <pt x="985" y="-401" on="0"/>
        <pt x="930" y="-401" on="1"/>
        <pt x="873" y="-401" on="0"/>
        <pt x="765" y="-384" on="0"/>
        <pt x="721" y="-375" on="1"/>
        <pt x="721" y="-274" on="1"/>
        <pt x="766" y="-290" on="0"/>
        <pt x="871" y="-311" on="0"/>
        <pt x="922" y="-311" on="1"/>
        <pt x="964" y="-311" on="0"/>
        <pt x="1022" y="-301" on="0"/>
        <pt x="1057" y="-283" on="0"/>
        <pt x="1072" y="-257" on="0"/>
        <pt x="1072" y="-242" on="1"/>
        <pt x="1072" y="-223" on="0"/>
        <pt x="1052" y="-197" on="0"/>
        <pt x="1018" y="-182" on="0"/>
        <pt x="975" y="-176" on="0"/>
        <pt x="951" y="-176" on="1"/>
        <pt x="925" y="-176" on="0"/>
        <pt x="871" y="-179" on="0"/>
        <pt x="848" y="-182" on="1"/>
        <pt x="907" y="-23" on="1"/>
        <pt x="839" y="-18" on="0"/>
        <pt x="773" y="-7" on="1"/>
        <pt x="661" y="13" on="0"/>
        <pt x="467" y="93" on="0"/>
        <pt x="309" y="212" on="0"/>
        <pt x="196" y="370" on="0"/>
        <pt x="135" y="568" on="0"/>
        <pt x="135" y="686" on="1"/>
        <pt x="135" y="804" on="0"/>
        <pt x="196" y="1002" on="0"/>
        <pt x="309" y="1160" on="0"/>
        <pt x="467" y="1279" on="0"/>
        <pt x="661" y="1359" on="0"/>
        <pt x="885" y="1399" on="0"/>
        <pt x="1008" y="1399" on="1"/>
        <pt x="1107" y="1399" on="0"/>
        <pt x="1275" y="1379" on="0"/>
        <pt x="1427" y="1343" on="0"/>
        <pt x="1568" y="1294" on="0"/>
        <pt x="1640" y="1264" on="1"/>
        <pt x="1640" y="1114" on="1"/>
        <pt x="1583" y="1150" on="0"/>
        <pt x="1453" y="1214" on="0"/>
        <pt x="1302" y="1262" on="0"/>
        <pt x="1130" y="1290" on="0"/>
        <pt x="1032" y="1290" on="1"/>
        <pt x="834" y="1290" on="0"/>
        <pt x="544" y="1204" on="0"/>
        <pt x="355" y="1047" on="0"/>
        <pt x="264" y="824" on="0"/>
        <pt x="264" y="686" on="1"/>
        <pt x="264" y="548" on="0"/>
        <pt x="355" y="326" on="0"/>
        <pt x="544" y="169" on="0"/>
        <pt x="834" y="84" on="0"/>
        <pt x="1032" y="84" on="1"/>
        <pt x="1130" y="84" on="0"/>
        <pt x="1305" y="112" on="0"/>
        <pt x="1458" y="160" on="0"/>
        <pt x="1587" y="223" on="0"/>
        <pt x="1640" y="258" on="1"/>
        <pt x="1640" y="109" on="1"/>
        <pt x="1568" y="79" on="0"/>
        <pt x="1427" y="29" on="0"/>
        <pt x="1275" y="-7" on="0"/>
        <pt x="1107" y="-27" on="0"/>
        <pt x="1008" y="-27" on="1"/>
        <pt x="996" y="-27" on="1"/>
      </contour>
    </TTGlyph>
    <TTGlyph name="ccircumflex" xMin="135" yMin="-27" xMax="1640" yMax="1792">
      <component glyphName="c" x="0" y="0" flags="0x204"/>
      <component glyphName="circumflex" x="459" y="362" flags="0x4"/>
    </TTGlyph>
    <TTGlyph name="cdotaccent" xMin="135" yMin="-27" xMax="1640" yMax="1675">
      <component glyphName="c" x="0" y="0" flags="0x204"/>
      <component glyphName="dotaccent" x="459" y="362" flags="0x4"/>
    </TTGlyph>
    <TTGlyph name="cedilla" xMin="313" yMin="-401" xMax="772" yMax="20">
      <contour>
        <pt x="561" y="-98" on="1"/>
        <pt x="605" y="-98" on="0"/>
        <pt x="682" y="-112" on="0"/>
        <pt x="739" y="-145" on="0"/>
        <pt x="772" y="-200" on="0"/>
        <pt x="772" y="-242" on="1"/>
        <pt x="772" y="-287" on="0"/>
        <pt x="735" y="-348" on="0"/>
        <pt x="669" y="-385" on="0"/>
        <pt x="577" y="-401" on="0"/>
        <pt x="522" y="-401" on="1"/>
        <pt x="465" y="-401" on="0"/>
        <pt x="357" y="-384" on="0"/>
        <pt x="313" y="-375" on="1"/>
        <pt x="313" y="-274" on="1"/>
        <pt x="358" y="-290" on="0"/>
        <pt x="463" y="-311" on="0"/>
        <pt x="514" y="-311" on="1"/>
        <pt x="556" y="-311" on="0"/>
        <pt x="614" y="-301" on="0"/>
        <pt x="649" y="-283" on="0"/>
        <pt x="664" y="-257" on="0"/>
        <pt x="664" y="-242" on="1"/>
        <pt x="664" y="-223" on="0"/>
        <pt x="644" y="-197" on="0"/>
        <pt x="610" y="-182" on="0"/>
        <pt x="567" y="-176" on="0"/>
        <pt x="543" y="-176" on="1"/>
        <pt x="517" y="-176" on="0"/>
        <pt x="463" y="-179" on="0"/>
        <pt x="440" y="-182" on="1"/>
        <pt x="516" y="20" on="1"/>
        <pt x="606" y="20" on="1"/>
      </contour>
    </TTGlyph>
    <TTGlyph name="cent" xMin="102" yMin="-109" xMax="1407" yMax="1483">
      <contour>
        <pt x="1407" y="201" on="1"/>
        <pt x="1345" y="175" on="0"/>
        <pt x="1227" y="132" on="0"/>
        <pt x="1101" y="100" on="0"/>
        <pt x="962" y="83" on="0"/>
        <pt x="881" y="82" on="1"/>
        <pt x="881" y="-109" on="1"/>
        <pt x="774" y="-109" on="1"/>
        <pt x="774" y="84" on="1"/>
        <pt x="630" y="94" on="0"/>
        <pt x="384" y="181" on="0"/>
        <pt x="204" y="335" on="0"/>
        <pt x="102" y="555" on="0"/>
        <pt x="102" y="698" on="1"/>
        <pt x="102" y="841" on="0"/>
        <pt x="204" y="1062" on="0"/>
        <pt x="384" y="1216" on="0"/>
        <pt x="630" y="1304" on="0"/>
        <pt x="774" y="1313" on="1"/>
        <pt x="774" y="1483" on="1"/>
        <pt x="881" y="1483" on="1"/>
        <pt x="881" y="1317" on="1"/>
        <pt x="962" y="1315" on="0"/>
        <pt x="1101" y="1298" on="0"/>
        <pt x="1227" y="1267" on="0"/>
        <pt x="1345" y="1224" on="0"/>
        <pt x="1407" y="1198" on="1"/>
        <pt x="1407" y="1059" on="1"/>
        <pt x="1357" y="1090" on="0"/>
        <pt x="1244" y="1145" on="0"/>
        <pt x="1114" y="1186" on="0"/>
        <pt x="966" y="1210" on="0"/>
        <pt x="881" y="1210" on="1"/>
        <pt x="881" y="190" on="1"/>
        <pt x="966" y="190" on="0"/>
        <pt x="1117" y="214" on="0"/>
        <pt x="1249" y="256" on="0"/>
        <pt x="1361" y="310" on="0"/>
        <pt x="1407" y="340" on="1"/>
      </contour>
      <contour>
        <pt x="236" y="698" on="1"/>
        <pt x="236" y="589" on="0"/>
        <pt x="302" y="413" on="0"/>
        <pt x="435" y="284" on="0"/>
        <pt x="637" y="205" on="0"/>
        <pt x="774" y="195" on="1"/>
        <pt x="774" y="1206" on="1"/>
        <pt x="637" y="1195" on="0"/>
        <pt x="435" y="1115" on="0"/>
        <pt x="302" y="985" on="0"/>
        <pt x="236" y="807" on="0"/>
      </contour>
    </TTGlyph>
    <TTGlyph name="circumflex" xMin="154" yMin="1139" xMax="928" yMax="1430">
      <contour>
        <pt x="889" y="1139" on="1"/>
        <pt x="541" y="1298" on="1"/>
        <pt x="193" y="1139" on="1"/>
        <pt x="154" y="1210" on="1"/>
        <pt x="541" y="1430" on="1"/>
        <pt x="928" y="1210" on="1"/>
      </contour>
    </TTGlyph>
    <TTGlyph name="colon" xMin="164" yMin="0" xMax="338" yMax="956">
      <contour>
        <pt x="164" y="0" on="1"/>
        <pt x="164" y="217" on="1"/>
        <pt x="338" y="217" on="1"/>
        <pt x="338" y="0" on="1"/>
      </contour>
      <contour>
        <pt x="164" y="739" on="1"/>
        <pt x="164" y="956" on="1"/>
        <pt x="338" y="956" on="1"/>
        <pt x="338" y="739" on="1"/>
      </contour>
    </TTGlyph>
    <TTGlyph name="comma" xMin="49" yMin="-203" xMax="295" yMax="217">
      <contour>
        <pt x="170" y="-203" on="1"/>
        <pt x="49" y="-203" on="1"/>
        <pt x="131" y="217" on="1"/>
        <pt x="295" y="217" on="1"/>
      </contour>
    </TTGlyph>
    <TTGlyph name="commaaccent" xMin="446" yMin="-416" xMax="629" yMax="-143">
      <contour>
        <pt x="547" y="-416" on="1"/>
        <pt x="446" y="-416" on="1"/>
        <pt x="485" y="-143" on="1"/>
        <pt x="629" y="-143" on="1"/>
      </contour>
    </TTGlyph>
    <TTGlyph name="copyright" xMin="102" yMin="0" xMax="1477" yMax="1374">
      <contour>
        <pt x="1477" y="686" on="1"/>
        <pt x="1477" y="591" on="0"/>
        <pt x="1428" y="416" on="0"/>
        <pt x="1338" y="263" on="0"/>
        <pt x="1213" y="138" on="0"/>
        <pt x="1059" y="49" on="0"/>
        <pt x="883" y="0" on="0"/>
        <pt x="788" y="0" on="1"/>
        <pt x="694" y="0" on="0"/>
        <pt x="518" y="49" on="0"/>
        <pt x="366" y="138" on="0"/>
        <pt x="241" y="263" on="0"/>
        <pt x="151" y="416" on="0"/>
        <pt x="102" y="591" on="0"/>
        <pt x="102" y="686" on="1"/>
        <pt x="102" y="781" on="0"/>
        <pt x="151" y="957" on="0"/>
        <pt x="241" y="1110" on="0"/>
        <pt x="366" y="1236" on="0"/>
        <pt x="518" y="1325" on="0"/>
        <pt x="693" y="1374" on="0"/>
        <pt x="788" y="1374" on="1"/>
        <pt x="883" y="1374" on="0"/>
        <pt x="1059" y="1325" on="0"/>
        <pt x="1213" y="1236" on="0"/>
        <pt x="1338" y="1110" on="0"/>
        <pt x="1428" y="957" on="0"/>
        <pt x="1477" y="781" on="0"/>
      </contour>
      <contour>
        <pt x="1083" y="346" on="1"/>
        <pt x="1049" y="328" on="0"/>
        <pt x="983" y="300" on="0"/>
        <pt x="914" y="281" on="0"/>
        <pt x="837" y="270" on="0"/>
        <pt x="793" y="270" on="1"/>
        <pt x="707" y="270" on="0"/>
        <pt x="559" y="327" on="0"/>
        <pt x="450" y="434" on="0"/>
        <pt x="387" y="588" on="0"/>
        <pt x="387" y="686" on="1"/>
        <pt x="387" y="783" on="0"/>
        <pt x="450" y="938" on="0"/>
        <pt x="559" y="1045" on="0"/>
        <pt x="707" y="1102" on="0"/>
        <pt x="793" y="1102" on="1"/>
        <pt x="837" y="1102" on="0"/>
        <pt x="914" y="1091" on="0"/>
        <pt x="983" y="1071" on="0"/>
        <pt x="1049" y="1043" on="0"/>
        <pt x="1083" y="1026" on="1"/>
        <pt x="1083" y="907" on="1"/>
        <pt x="1015" y="957" on="0"/>
        <pt x="884" y="1016" on="0"/>
        <pt x="807" y="1016" on="1"/>
        <pt x="733" y="1016" on="0"/>
        <pt x="619" y="968" on="0"/>
        <pt x="541" y="881" on="0"/>
        <pt x="500" y="760" on="0"/>
        <pt x="500" y="686" on="1"/>
        <pt x="500" y="612" on="0"/>
        <pt x="541" y="491" on="0"/>
        <pt x="619" y="404" on="0"/>
        <pt x="733" y="356" on="0"/>
        <pt x="807" y="356" on="1"/>
        <pt x="884" y="356" on="0"/>
        <pt x="1015" y="415" on="0"/>
        <pt x="1083" y="463" on="1"/>
      </contour>
      <contour>
        <pt x="197" y="686" on="1"/>
        <pt x="197" y="563" on="0"/>
        <pt x="290" y="347" on="0"/>
        <pt x="450" y="187" on="0"/>
        <pt x="665" y="94" on="0"/>
        <pt x="788" y="94" on="1"/>
        <pt x="912" y="94" on="0"/>
        <pt x="1129" y="187" on="0"/>
        <pt x="1291" y="347" on="0"/>
        <pt x="1384" y="563" on="0"/>
        <pt x="1384" y="686" on="1"/>
        <pt x="1384" y="810" on="0"/>
        <pt x="1291" y="1027" on="0"/>
        <pt x="1129" y="1189" on="0"/>
        <pt x="912" y="1282" on="0"/>
        <pt x="788" y="1282" on="1"/>
        <pt x="665" y="1282" on="0"/>
        <pt x="450" y="1189" on="0"/>
        <pt x="290" y="1027" on="0"/>
        <pt x="197" y="810" on="0"/>
      </contour>
    </TTGlyph>
    <TTGlyph name="currency" xMin="121" yMin="229" xMax="1026" yMax="1137">
      <contour>
        <pt x="870" y="903" on="1"/>
        <pt x="906" y="854" on="0"/>
        <pt x="942" y="741" on="0"/>
        <pt x="942" y="682" on="1"/>
        <pt x="942" y="623" on="0"/>
        <pt x="908" y="511" on="0"/>
        <pt x="870" y="463" on="1"/>
        <pt x="1026" y="307" on="1"/>
        <pt x="950" y="229" on="1"/>
        <pt x="793" y="387" on="1"/>
        <pt x="743" y="352" on="0"/>
        <pt x="630" y="313" on="0"/>
        <pt x="573" y="313" on="1"/>
        <pt x="515" y="313" on="0"/>
        <pt x="402" y="350" on="0"/>
        <pt x="354" y="387" on="1"/>
        <pt x="197" y="229" on="1"/>
        <pt x="121" y="307" on="1"/>
        <pt x="279" y="465" on="1"/>
        <pt x="243" y="513" on="0"/>
        <pt x="205" y="625" on="0"/>
        <pt x="205" y="682" on="1"/>
        <pt x="205" y="742" on="0"/>
        <pt x="241" y="852" on="0"/>
        <pt x="279" y="901" on="1"/>
        <pt x="121" y="1061" on="1"/>
        <pt x="197" y="1137" on="1"/>
        <pt x="354" y="979" on="1"/>
        <pt x="405" y="1016" on="0"/>
        <pt x="518" y="1051" on="0"/>
        <pt x="578" y="1051" on="1"/>
        <pt x="635" y="1051" on="0"/>
        <pt x="745" y="1016" on="0"/>
        <pt x="793" y="981" on="1"/>
        <pt x="950" y="1137" on="1"/>
        <pt x="1026" y="1061" on="1"/>
      </contour>
      <contour>
        <pt x="385" y="494" on="1"/>
        <pt x="423" y="455" on="0"/>
        <pt x="521" y="418" on="0"/>
        <pt x="573" y="418" on="1"/>
        <pt x="623" y="418" on="0"/>
        <pt x="720" y="453" on="0"/>
        <pt x="796" y="520" on="0"/>
        <pt x="842" y="618" on="0"/>
        <pt x="842" y="682" on="1"/>
        <pt x="842" y="736" on="0"/>
        <pt x="799" y="834" on="0"/>
        <pt x="725" y="907" on="0"/>
        <pt x="628" y="950" on="0"/>
        <pt x="573" y="950" on="1"/>
        <pt x="516" y="950" on="0"/>
        <pt x="419" y="905" on="0"/>
        <pt x="348" y="831" on="0"/>
        <pt x="307" y="734" on="0"/>
        <pt x="307" y="682" on="1"/>
        <pt x="307" y="629" on="0"/>
        <pt x="345" y="532" on="0"/>
      </contour>
    </TTGlyph>
    <TTGlyph name="d" xMin="231" yMin="0" xMax="1731" yMax="1374">
      <contour>
        <pt x="1731" y="688" on="1"/>
        <pt x="1731" y="556" on="0"/>
        <pt x="1676" y="351" on="0"/>
        <pt x="1576" y="199" on="0"/>
        <pt x="1433" y="93" on="0"/>
        <pt x="1258" y="29" on="0"/>
        <pt x="1053" y="0" on="0"/>
        <pt x="940" y="0" on="1"/>
        <pt x="231" y="0" on="1"/>
        <pt x="231" y="1374" on="1"/>
        <pt x="938" y="1374" on="1"/>
        <pt x="1107" y="1374" on="0"/>
        <pt x="1397" y="1308" on="0"/>
        <pt x="1610" y="1149" on="0"/>
        <pt x="1731" y="885" on="0"/>
      </contour>
      <contour>
        <pt x="1602" y="688" on="1"/>
        <pt x="1602" y="800" on="0"/>
        <pt x="1558" y="972" on="0"/>
        <pt x="1476" y="1099" on="0"/>
        <pt x="1358" y="1185" on="0"/>
        <pt x="1210" y="1238" on="0"/>
        <pt x="1036" y="1260" on="0"/>
        <pt x="938" y="1260" on="1"/>
        <pt x="356" y="1260" on="1"/>
        <pt x="356" y="115" on="1"/>
        <pt x="938" y="115" on="1"/>
        <pt x="1085" y="115" on="0"/>
        <pt x="1329" y="168" on="0"/>
        <pt x="1504" y="299" on="0"/>
        <pt x="1602" y="520" on="0"/>
      </contour>
    </TTGlyph>
    <TTGlyph name="dagger" xMin="184" yMin="-23" xMax="840" yMax="1374">
      <contour>
        <pt x="184" y="1006" on="1"/>
        <pt x="451" y="1006" on="1"/>
        <pt x="451" y="1374" on="1"/>
        <pt x="573" y="1374" on="1"/>
        <pt x="573" y="1006" on="1"/>
        <pt x="840" y="1006" on="1"/>
        <pt x="840" y="891" on="1"/>
        <pt x="573" y="891" on="1"/>
        <pt x="573" y="-23" on="1"/>
        <pt x="451" y="-23" on="1"/>
        <pt x="451" y="891" on="1"/>
        <pt x="184" y="891" on="1"/>
      </contour>
    </TTGlyph>
    <TTGlyph name="daggerdbl" xMin="184" yMin="-23" xMax="840" yMax="1374">
      <contour>
        <pt x="184" y="1006" on="1"/>
        <pt x="451" y="1006" on="1"/>
        <pt x="451" y="1374" on="1"/>
        <pt x="573" y="1374" on="1"/>
        <pt x="573" y="1006" on="1"/>
        <pt x="840" y="1006" on="1"/>
        <pt x="840" y="891" on="1"/>
        <pt x="573" y="891" on="1"/>
        <pt x="573" y="575" on="1"/>
        <pt x="840" y="575" on="1"/>
        <pt x="840" y="461" on="1"/>
        <pt x="573" y="461" on="1"/>
        <pt x="573" y="-23" on="1"/>
        <pt x="451" y="-23" on="1"/>
        <pt x="451" y="461" on="1"/>
        <pt x="184" y="461" on="1"/>
        <pt x="184" y="575" on="1"/>
        <pt x="451" y="575" on="1"/>
        <pt x="451" y="891" on="1"/>
        <pt x="184" y="891" on="1"/>
      </contour>
    </TTGlyph>
    <TTGlyph name="dcaron" xMin="231" yMin="0" xMax="1731" yMax="1792">
      <component glyphName="d" x="0" y="0" flags="0x204"/>
      <component glyphName="caron" x="246" y="362" flags="0x4"/>
    </TTGlyph>
    <TTGlyph name="dcroat" xMin="31" yMin="0" xMax="1731" yMax="1374">
      <contour>
        <pt x="1731" y="688" on="1"/>
        <pt x="1731" y="530" on="0"/>
        <pt x="1657" y="305" on="0"/>
        <pt x="1526" y="152" on="0"/>
        <pt x="1345" y="61" on="0"/>
        <pt x="1130" y="14" on="0"/>
        <pt x="889" y="0" on="0"/>
        <pt x="764" y="0" on="1"/>
        <pt x="231" y="0" on="1"/>
        <pt x="231" y="651" on="1"/>
        <pt x="31" y="651" on="1"/>
        <pt x="31" y="754" on="1"/>
        <pt x="231" y="754" on="1"/>
        <pt x="231" y="1374" on="1"/>
        <pt x="762" y="1374" on="1"/>
        <pt x="887" y="1374" on="0"/>
        <pt x="1129" y="1360" on="0"/>
        <pt x="1344" y="1313" on="0"/>
        <pt x="1525" y="1223" on="0"/>
        <pt x="1657" y="1070" on="0"/>
        <pt x="1731" y="846" on="0"/>
      </contour>
      <contour>
        <pt x="1602" y="688" on="1"/>
        <pt x="1602" y="851" on="0"/>
        <pt x="1502" y="1071" on="0"/>
        <pt x="1300" y="1204" on="0"/>
        <pt x="996" y="1260" on="0"/>
        <pt x="793" y="1260" on="1"/>
        <pt x="356" y="1260" on="1"/>
        <pt x="356" y="754" on="1"/>
        <pt x="918" y="754" on="1"/>
        <pt x="918" y="651" on="1"/>
        <pt x="356" y="651" on="1"/>
        <pt x="356" y="115" on="1"/>
        <pt x="793" y="115" on="1"/>
        <pt x="901" y="115" on="0"/>
        <pt x="1105" y="126" on="0"/>
        <pt x="1285" y="164" on="0"/>
        <pt x="1434" y="238" on="0"/>
        <pt x="1542" y="366" on="0"/>
        <pt x="1602" y="554" on="0"/>
      </contour>
    </TTGlyph>
    <TTGlyph name="degree" xMin="133" yMin="877" xMax="631" yMax="1374">
      <contour>
        <pt x="133" y="1124" on="1"/>
        <pt x="133" y="1176" on="0"/>
        <pt x="172" y="1267" on="0"/>
        <pt x="239" y="1335" on="0"/>
        <pt x="330" y="1374" on="0"/>
        <pt x="381" y="1374" on="1"/>
        <pt x="432" y="1374" on="0"/>
        <pt x="523" y="1335" on="0"/>
        <pt x="591" y="1267" on="0"/>
        <pt x="631" y="1176" on="0"/>
        <pt x="631" y="1124" on="1"/>
        <pt x="631" y="1073" on="0"/>
        <pt x="591" y="983" on="0"/>
        <pt x="523" y="916" on="0"/>
        <pt x="432" y="877" on="0"/>
        <pt x="381" y="877" on="1"/>
        <pt x="330" y="877" on="0"/>
        <pt x="239" y="916" on="0"/>
        <pt x="172" y="983" on="0"/>
        <pt x="133" y="1073" on="0"/>
      </contour>
      <contour>
        <pt x="231" y="1124" on="1"/>
        <pt x="231" y="1092" on="0"/>
        <pt x="254" y="1038" on="0"/>
        <pt x="295" y="998" on="0"/>
        <pt x="349" y="975" on="0"/>
        <pt x="381" y="975" on="1"/>
        <pt x="412" y="975" on="0"/>
        <pt x="468" y="998" on="0"/>
        <pt x="508" y="1038" on="0"/>
        <pt x="532" y="1092" on="0"/>
        <pt x="532" y="1124" on="1"/>
        <pt x="532" y="1155" on="0"/>
        <pt x="508" y="1211" on="0"/>
        <pt x="468" y="1252" on="0"/>
        <pt x="412" y="1276" on="0"/>
        <pt x="381" y="1276" on="1"/>
        <pt x="349" y="1276" on="0"/>
        <pt x="295" y="1252" on="0"/>
        <pt x="254" y="1211" on="0"/>
        <pt x="231" y="1155" on="0"/>
      </contour>
    </TTGlyph>
    <TTGlyph name="dieresis" xMin="266" yMin="1159" xMax="815" yMax="1307">
      <contour>
        <pt x="266" y="1159" on="1"/>
        <pt x="266" y="1307" on="1"/>
        <pt x="414" y="1307" on="1"/>
        <pt x="414" y="1159" on="1"/>
      </contour>
      <contour>
        <pt x="668" y="1159" on="1"/>
        <pt x="668" y="1307" on="1"/>
        <pt x="815" y="1307" on="1"/>
        <pt x="815" y="1159" on="1"/>
      </contour>
    </TTGlyph>
    <TTGlyph name="divide" xMin="172" yMin="279" xMax="1128" yMax="1092">
      <contour>
        <pt x="584" y="279" on="1"/>
        <pt x="584" y="440" on="1"/>
        <pt x="715" y="440" on="1"/>
        <pt x="715" y="279" on="1"/>
      </contour>
      <contour>
        <pt x="172" y="631" on="1"/>
        <pt x="172" y="739" on="1"/>
        <pt x="1128" y="739" on="1"/>
        <pt x="1128" y="631" on="1"/>
      </contour>
      <contour>
        <pt x="584" y="930" on="1"/>
        <pt x="584" y="1092" on="1"/>
        <pt x="715" y="1092" on="1"/>
        <pt x="715" y="930" on="1"/>
      </contour>
    </TTGlyph>
    <TTGlyph name="dollar" xMin="164" yMin="-109" xMax="1407" yMax="1483">
      <contour>
        <pt x="1296" y="1155" on="1"/>
        <pt x="1261" y="1172" on="0"/>
        <pt x="1171" y="1210" on="0"/>
        <pt x="1056" y="1243" on="0"/>
        <pt x="915" y="1266" on="0"/>
        <pt x="829" y="1268" on="1"/>
        <pt x="829" y="750" on="1"/>
        <pt x="936" y="723" on="0"/>
        <pt x="1143" y="660" on="0"/>
        <pt x="1307" y="570" on="0"/>
        <pt x="1407" y="447" on="0"/>
        <pt x="1407" y="360" on="1"/>
        <pt x="1407" y="293" on="0"/>
        <pt x="1360" y="188" on="0"/>
        <pt x="1279" y="110" on="0"/>
        <pt x="1168" y="56" on="0"/>
        <pt x="1040" y="21" on="0"/>
        <pt x="899" y="3" on="0"/>
        <pt x="829" y="0" on="1"/>
        <pt x="829" y="-109" on="1"/>
        <pt x="729" y="-109" on="1"/>
        <pt x="729" y="0" on="1"/>
        <pt x="646" y="1" on="0"/>
        <pt x="497" y="14" on="0"/>
        <pt x="361" y="38" on="0"/>
        <pt x="233" y="71" on="0"/>
        <pt x="172" y="92" on="1"/>
        <pt x="172" y="242" on="1"/>
        <pt x="298" y="166" on="0"/>
        <pt x="575" y="105" on="0"/>
        <pt x="729" y="104" on="1"/>
        <pt x="729" y="662" on="1"/>
        <pt x="623" y="687" on="0"/>
        <pt x="420" y="745" on="0"/>
        <pt x="261" y="829" on="0"/>
        <pt x="164" y="948" on="0"/>
        <pt x="164" y="1034" on="1"/>
        <pt x="164" y="1130" on="0"/>
        <pt x="264" y="1259" on="0"/>
        <pt x="425" y="1337" on="0"/>
        <pt x="627" y="1372" on="0"/>
        <pt x="729" y="1374" on="1"/>
        <pt x="729" y="1483" on="1"/>
        <pt x="829" y="1483" on="1"/>
        <pt x="829" y="1372" on="1"/>
        <pt x="895" y="1370" on="0"/>
        <pt x="1016" y="1356" on="0"/>
        <pt x="1130" y="1335" on="0"/>
        <pt x="1240" y="1307" on="0"/>
        <pt x="1296" y="1292" on="1"/>
      </contour>
      <contour>
        <pt x="1282" y="354" on="1"/>
        <pt x="1282" y="414" on="0"/>
        <pt x="1208" y="501" on="0"/>
        <pt x="1083" y="566" on="0"/>
        <pt x="919" y="615" on="0"/>
        <pt x="829" y="637" on="1"/>
        <pt x="829" y="104" on="1"/>
        <pt x="929" y="108" on="0"/>
        <pt x="1096" y="140" on="0"/>
        <pt x="1216" y="200" on="0"/>
        <pt x="1282" y="291" on="0"/>
      </contour>
      <contour>
        <pt x="289" y="1038" on="1"/>
        <pt x="289" y="984" on="0"/>
        <pt x="360" y="905" on="0"/>
        <pt x="481" y="844" on="0"/>
        <pt x="641" y="796" on="0"/>
        <pt x="729" y="774" on="1"/>
        <pt x="729" y="1268" on="1"/>
        <pt x="624" y="1266" on="0"/>
        <pt x="460" y="1235" on="0"/>
        <pt x="348" y="1178" on="0"/>
        <pt x="289" y="1094" on="0"/>
      </contour>
    </TTGlyph>
    <TTGlyph name="dotaccent" xMin="463" yMin="1159" xMax="618" yMax="1313">
      <contour>
        <pt x="463" y="1159" on="1"/>
        <pt x="463" y="1313" on="1"/>
        <pt x="618" y="1313" on="1"/>
        <pt x="618" y="1159" on="1"/>
      </contour>
    </TTGlyph>
    <TTGlyph name="dotlessi" xMin="231" yMin="0" xMax="356" yMax="1374">
      <contour>
        <pt x="231" y="0" on="1"/>
        <pt x="231" y="1374" on="1"/>
        <pt x="356" y="1374" on="1"/>
        <pt x="356" y="0" on="1"/>
      </contour>
    </TTGlyph>
    <TTGlyph name="dotlessj" xMin="0" yMin="-16" xMax="985" yMax="1374">
      <contour>
        <pt x="985" y="440" on="1"/>
        <pt x="985" y="326" on="0"/>
        <pt x="905" y="155" on="0"/>
        <pt x="761" y="41" on="0"/>
        <pt x="561" y="-16" on="0"/>
        <pt x="440" y="-16" on="1"/>
        <pt x="365" y="-16" on="0"/>
        <pt x="239" y="-3" on="0"/>
        <pt x="132" y="17" on="0"/>
        <pt x="41" y="40" on="0"/>
        <pt x="0" y="51" on="1"/>
        <pt x="0" y="180" on="1"/>
        <pt x="42" y="164" on="0"/>
        <pt x="132" y="134" on="0"/>
        <pt x="244" y="110" on="0"/>
        <pt x="383" y="96" on="0"/>
        <pt x="473" y="96" on="1"/>
        <pt x="554" y="96" on="0"/>
        <pt x="695" y="141" on="0"/>
        <pt x="800" y="228" on="0"/>
        <pt x="860" y="353" on="0"/>
        <pt x="860" y="434" on="1"/>
        <pt x="860" y="1374" on="1"/>
        <pt x="985" y="1374" on="1"/>
      </contour>
    </TTGlyph>
    <TTGlyph name="e" xMin="135" yMin="-25" xMax="1729" yMax="1389">
      <contour>
        <pt x="1616" y="72" on="1"/>
        <pt x="1532" y="46" on="0"/>
        <pt x="1388" y="9" on="0"/>
        <pt x="1248" y="-14" on="0"/>
        <pt x="1103" y="-25" on="0"/>
        <pt x="1016" y="-25" on="1"/>
        <pt x="814" y="-25" on="0"/>
        <pt x="488" y="73" on="0"/>
        <pt x="259" y="256" on="0"/>
        <pt x="135" y="516" on="0"/>
        <pt x="135" y="678" on="1"/>
        <pt x="135" y="835" on="0"/>
        <pt x="254" y="1097" on="0"/>
        <pt x="468" y="1285" on="0"/>
        <pt x="766" y="1389" on="0"/>
        <pt x="946" y="1389" on="1"/>
        <pt x="1133" y="1389" on="0"/>
        <pt x="1425" y="1289" on="0"/>
        <pt x="1625" y="1103" on="0"/>
        <pt x="1729" y="838" on="0"/>
        <pt x="1729" y="672" on="1"/>
        <pt x="1729" y="641" on="1"/>
        <pt x="264" y="641" on="1"/>
        <pt x="275" y="513" on="0"/>
        <pt x="381" y="307" on="0"/>
        <pt x="576" y="163" on="0"/>
        <pt x="861" y="86" on="0"/>
        <pt x="1051" y="86" on="1"/>
        <pt x="1132" y="86" on="0"/>
        <pt x="1298" y="108" on="0"/>
        <pt x="1450" y="145" on="0"/>
        <pt x="1576" y="192" on="0"/>
        <pt x="1616" y="217" on="1"/>
      </contour>
      <contour>
        <pt x="1606" y="750" on="1"/>
        <pt x="1599" y="855" on="0"/>
        <pt x="1519" y="1046" on="0"/>
        <pt x="1360" y="1192" on="0"/>
        <pt x="1115" y="1278" on="0"/>
        <pt x="944" y="1278" on="1"/>
        <pt x="783" y="1278" on="0"/>
        <pt x="541" y="1192" on="0"/>
        <pt x="373" y="1047" on="0"/>
        <pt x="277" y="856" on="0"/>
        <pt x="264" y="750" on="1"/>
      </contour>
    </TTGlyph>
    <TTGlyph name="eacute" xMin="135" yMin="-25" xMax="1729" yMax="1792">
      <component glyphName="e" x="0" y="0" flags="0x204"/>
      <component glyphName="acute" x="395" y="362" flags="0x4"/>
    </TTGlyph>
    <TTGlyph name="ebreve" xMin="135" yMin="-25" xMax="1729" yMax="1751">
      <component glyphName="e" x="0" y="0" flags="0x204"/>
      <component glyphName="breve" x="395" y="362" flags="0x4"/>
    </TTGlyph>
    <TTGlyph name="ecaron" xMin="135" yMin="-25" xMax="1729" yMax="1792">
      <component glyphName="e" x="0" y="0" flags="0x204"/>
      <component glyphName="caron" x="395" y="362" flags="0x4"/>
    </TTGlyph>
    <TTGlyph name="ecircumflex" xMin="135" yMin="-25" xMax="1729" yMax="1792">
      <component glyphName="e" x="0" y="0" flags="0x204"/>
      <component glyphName="circumflex" x="395" y="362" flags="0x4"/>
    </TTGlyph>
    <TTGlyph name="edieresis" xMin="135" yMin="-25" xMax="1729" yMax="1669">
      <component glyphName="e" x="0" y="0" flags="0x204"/>
      <component glyphName="dieresis" x="395" y="362" flags="0x4"/>
    </TTGlyph>
    <TTGlyph name="edotaccent" xMin="135" yMin="-25" xMax="1729" yMax="1675">
      <component glyphName="e" x="0" y="0" flags="0x204"/>
      <component glyphName="dotaccent" x="395" y="362" flags="0x4"/>
    </TTGlyph>
    <TTGlyph name="egrave" xMin="135" yMin="-25" xMax="1729" yMax="1792">
      <component glyphName="e" x="0" y="0" flags="0x204"/>
      <component glyphName="grave" x="395" y="362" flags="0x4"/>
    </TTGlyph>
    <TTGlyph name="eight" xMin="111" yMin="-27" xMax="1516" yMax="1399">
      <contour>
        <pt x="1047" y="752" on="1"/>
        <pt x="1164" y="717" on="0"/>
        <pt x="1339" y="639" on="0"/>
        <pt x="1457" y="545" on="0"/>
        <pt x="1516" y="432" on="0"/>
        <pt x="1516" y="362" on="1"/>
        <pt x="1516" y="271" on="0"/>
        <pt x="1412" y="127" on="0"/>
        <pt x="1226" y="26" on="0"/>
        <pt x="967" y="-27" on="0"/>
        <pt x="813" y="-27" on="1"/>
        <pt x="659" y="-27" on="0"/>
        <pt x="401" y="21" on="0"/>
        <pt x="215" y="116" on="0"/>
        <pt x="111" y="255" on="0"/>
        <pt x="111" y="346" on="1"/>
        <pt x="111" y="416" on="0"/>
        <pt x="141" y="475" on="1"/>
        <pt x="186" y="563" on="0"/>
        <pt x="405" y="693" on="0"/>
        <pt x="582" y="745" on="1"/>
        <pt x="514" y="768" on="0"/>
        <pt x="394" y="818" on="0"/>
        <pt x="346" y="850" on="1"/>
        <pt x="298" y="881" on="0"/>
        <pt x="266" y="922" on="1"/>
        <pt x="243" y="951" on="0"/>
        <pt x="217" y="1022" on="0"/>
        <pt x="217" y="1065" on="1"/>
        <pt x="217" y="1143" on="0"/>
        <pt x="303" y="1266" on="0"/>
        <pt x="459" y="1353" on="0"/>
        <pt x="679" y="1399" on="0"/>
        <pt x="813" y="1399" on="1"/>
        <pt x="1034" y="1399" on="0"/>
        <pt x="1315" y="1291" on="0"/>
        <pt x="1372" y="1200" on="1"/>
        <pt x="1391" y="1169" on="0"/>
        <pt x="1411" y="1102" on="0"/>
        <pt x="1411" y="1065" on="1"/>
        <pt x="1411" y="965" on="0"/>
        <pt x="1226" y="817" on="0"/>
      </contour>
      <contour>
        <pt x="1288" y="1063" on="1"/>
        <pt x="1288" y="1108" on="0"/>
        <pt x="1239" y="1190" on="0"/>
        <pt x="1128" y="1254" on="0"/>
        <pt x="949" y="1292" on="0"/>
        <pt x="819" y="1292" on="1"/>
        <pt x="689" y="1292" on="0"/>
        <pt x="506" y="1254" on="0"/>
        <pt x="390" y="1190" on="0"/>
        <pt x="338" y="1108" on="0"/>
        <pt x="340" y="1063" on="1"/>
        <pt x="342" y="972" on="0"/>
        <pt x="582" y="837" on="0"/>
        <pt x="821" y="797" on="1"/>
        <pt x="932" y="819" on="0"/>
        <pt x="1106" y="874" on="0"/>
        <pt x="1226" y="940" on="0"/>
        <pt x="1288" y="1018" on="0"/>
      </contour>
      <contour>
        <pt x="811" y="696" on="1"/>
        <pt x="686" y="675" on="0"/>
        <pt x="475" y="611" on="0"/>
        <pt x="323" y="525" on="0"/>
        <pt x="238" y="419" on="0"/>
        <pt x="238" y="358" on="1"/>
        <pt x="238" y="302" on="0"/>
        <pt x="312" y="201" on="0"/>
        <pt x="458" y="125" on="0"/>
        <pt x="672" y="80" on="0"/>
        <pt x="813" y="80" on="1"/>
        <pt x="954" y="80" on="0"/>
        <pt x="1169" y="124" on="0"/>
        <pt x="1314" y="200" on="0"/>
        <pt x="1389" y="301" on="0"/>
        <pt x="1389" y="358" on="1"/>
        <pt x="1389" y="419" on="0"/>
        <pt x="1302" y="525" on="0"/>
        <pt x="1148" y="611" on="0"/>
        <pt x="936" y="675" on="0"/>
      </contour>
    </TTGlyph>
    <TTGlyph name="ellipsis" xMin="102" yMin="0" xMax="1034" yMax="217">
      <contour>
        <pt x="102" y="0" on="1"/>
        <pt x="102" y="217" on="1"/>
        <pt x="276" y="217" on="1"/>
        <pt x="276" y="0" on="1"/>
      </contour>
      <contour>
        <pt x="481" y="0" on="1"/>
        <pt x="481" y="217" on="1"/>
        <pt x="655" y="217" on="1"/>
        <pt x="655" y="0" on="1"/>
      </contour>
      <contour>
        <pt x="860" y="0" on="1"/>
        <pt x="860" y="217" on="1"/>
        <pt x="1034" y="217" on="1"/>
        <pt x="1034" y="0" on="1"/>
      </contour>
    </TTGlyph>
    <TTGlyph name="emacron" xMin="135" yMin="-25" xMax="1729" yMax="1644">
      <component glyphName="e" x="0" y="0" flags="0x204"/>
      <component glyphName="macron" x="395" y="362" flags="0x4"/>
    </TTGlyph>
    <TTGlyph name="emdash" xMin="0" yMin="631" xMax="2048" yMax="741">
      <contour>
        <pt x="0" y="631" on="1"/>
        <pt x="0" y="741" on="1"/>
        <pt x="2048" y="741" on="1"/>
        <pt x="2048" y="631" on="1"/>
      </contour>
    </TTGlyph>
    <TTGlyph name="endash" xMin="41" yMin="631" xMax="819" yMax="741">
      <contour>
        <pt x="41" y="631" on="1"/>
        <pt x="41" y="741" on="1"/>
        <pt x="819" y="741" on="1"/>
        <pt x="819" y="631" on="1"/>
      </contour>
    </TTGlyph>
    <TTGlyph name="eng" xMin="231" yMin="-14" xMax="1686" yMax="1407">
      <contour>
        <pt x="1561" y="907" on="1"/>
        <pt x="1561" y="1021" on="0"/>
        <pt x="1500" y="1168" on="0"/>
        <pt x="1387" y="1254" on="0"/>
        <pt x="1225" y="1288" on="0"/>
        <pt x="1124" y="1288" on="1"/>
        <pt x="1007" y="1288" on="0"/>
        <pt x="782" y="1231" on="0"/>
        <pt x="582" y="1144" on="0"/>
        <pt x="414" y="1038" on="0"/>
        <pt x="356" y="989" on="1"/>
        <pt x="356" y="0" on="1"/>
        <pt x="231" y="0" on="1"/>
        <pt x="231" y="1374" on="1"/>
        <pt x="356" y="1374" on="1"/>
        <pt x="356" y="1133" on="1"/>
        <pt x="426" y="1177" on="0"/>
        <pt x="595" y="1274" on="0"/>
        <pt x="790" y="1355" on="0"/>
        <pt x="1012" y="1407" on="0"/>
        <pt x="1135" y="1407" on="1"/>
        <pt x="1274" y="1407" on="0"/>
        <pt x="1481" y="1340" on="0"/>
        <pt x="1618" y="1217" on="0"/>
        <pt x="1686" y="1042" on="0"/>
        <pt x="1686" y="934" on="1"/>
        <pt x="1686" y="442" on="1"/>
        <pt x="1686" y="328" on="0"/>
        <pt x="1619" y="157" on="0"/>
        <pt x="1494" y="43" on="0"/>
        <pt x="1315" y="-14" on="0"/>
        <pt x="1202" y="-14" on="1"/>
        <pt x="1137" y="-14" on="0"/>
        <pt x="1026" y="-2" on="0"/>
        <pt x="929" y="16" on="0"/>
        <pt x="843" y="38" on="0"/>
        <pt x="803" y="49" on="1"/>
        <pt x="803" y="182" on="1"/>
        <pt x="844" y="166" on="0"/>
        <pt x="925" y="136" on="0"/>
        <pt x="1020" y="112" on="0"/>
        <pt x="1134" y="98" on="0"/>
        <pt x="1208" y="98" on="1"/>
        <pt x="1383" y="98" on="0"/>
        <pt x="1561" y="274" on="0"/>
        <pt x="1561" y="436" on="1"/>
      </contour>
    </TTGlyph>
    <TTGlyph name="eogonek" xMin="135" yMin="-319" xMax="1729" yMax="1389">
      <contour>
        <pt x="1616" y="72" on="1"/>
        <pt x="1561" y="54" on="0"/>
        <pt x="1474" y="1" on="0"/>
        <pt x="1413" y="-58" on="0"/>
        <pt x="1380" y="-118" on="0"/>
        <pt x="1380" y="-145" on="1"/>
        <pt x="1380" y="-187" on="0"/>
        <pt x="1455" y="-225" on="0"/>
        <pt x="1524" y="-225" on="1"/>
        <pt x="1573" y="-225" on="0"/>
        <pt x="1662" y="-210" on="0"/>
        <pt x="1704" y="-199" on="1"/>
        <pt x="1704" y="-301" on="1"/>
        <pt x="1663" y="-307" on="0"/>
        <pt x="1573" y="-319" on="0"/>
        <pt x="1507" y="-319" on="1"/>
        <pt x="1452" y="-319" on="0"/>
        <pt x="1363" y="-302" on="0"/>
        <pt x="1300" y="-265" on="0"/>
        <pt x="1266" y="-208" on="0"/>
        <pt x="1266" y="-168" on="1"/>
        <pt x="1266" y="-118" on="0"/>
        <pt x="1321" y="-32" on="0"/>
        <pt x="1376" y="8" on="1"/>
        <pt x="1292" y="-9" on="0"/>
        <pt x="1120" y="-25" on="0"/>
        <pt x="1016" y="-25" on="1"/>
        <pt x="814" y="-25" on="0"/>
        <pt x="488" y="73" on="0"/>
        <pt x="259" y="256" on="0"/>
        <pt x="135" y="516" on="0"/>
        <pt x="135" y="678" on="1"/>
        <pt x="135" y="835" on="0"/>
        <pt x="254" y="1097" on="0"/>
        <pt x="468" y="1285" on="0"/>
        <pt x="766" y="1389" on="0"/>
        <pt x="946" y="1389" on="1"/>
        <pt x="1133" y="1389" on="0"/>
        <pt x="1425" y="1289" on="0"/>
        <pt x="1625" y="1103" on="0"/>
        <pt x="1729" y="838" on="0"/>
        <pt x="1729" y="672" on="1"/>
        <pt x="1729" y="641" on="1"/>
        <pt x="264" y="641" on="1"/>
        <pt x="275" y="513" on="0"/>
        <pt x="381" y="307" on="0"/>
        <pt x="576" y="163" on="0"/>
        <pt x="861" y="86" on="0"/>
        <pt x="1051" y="86" on="1"/>
        <pt x="1132" y="86" on="0"/>
        <pt x="1298" y="108" on="0"/>
        <pt x="1450" y="145" on="0"/>
        <pt x="1576" y="192" on="0"/>
        <pt x="1616" y="217" on="1"/>
      </contour>
      <contour>
        <pt x="1606" y="750" on="1"/>
        <pt x="1599" y="855" on="0"/>
        <pt x="1519" y="1046" on="0"/>
        <pt x="1360" y="1192" on="0"/>
        <pt x="1115" y="1278" on="0"/>
        <pt x="944" y="1278" on="1"/>
        <pt x="783" y="1278" on="0"/>
        <pt x="541" y="1192" on="0"/>
        <pt x="373" y="1047" on="0"/>
        <pt x="277" y="856" on="0"/>
        <pt x="264" y="750" on="1"/>
      </contour>
    </TTGlyph>
    <TTGlyph name="equal" xMin="172" yMin="438" xMax="1128" yMax="930">
      <contour>
        <pt x="172" y="821" on="1"/>
        <pt x="172" y="930" on="1"/>
        <pt x="1128" y="930" on="1"/>
        <pt x="1128" y="821" on="1"/>
      </contour>
      <contour>
        <pt x="172" y="438" on="1"/>
        <pt x="172" y="549" on="1"/>
        <pt x="1128" y="549" on="1"/>
        <pt x="1128" y="438" on="1"/>
      </contour>
    </TTGlyph>
    <TTGlyph name="eth" xMin="31" yMin="0" xMax="1731" yMax="1374">
      <contour>
        <pt x="1731" y="688" on="1"/>
        <pt x="1731" y="530" on="0"/>
        <pt x="1657" y="305" on="0"/>
        <pt x="1526" y="152" on="0"/>
        <pt x="1345" y="61" on="0"/>
        <pt x="1130" y="14" on="0"/>
        <pt x="889" y="0" on="0"/>
        <pt x="764" y="0" on="1"/>
        <pt x="231" y="0" on="1"/>
        <pt x="231" y="651" on="1"/>
        <pt x="31" y="651" on="1"/>
        <pt x="31" y="754" on="1"/>
        <pt x="231" y="754" on="1"/>
        <pt x="231" y="1374" on="1"/>
        <pt x="762" y="1374" on="1"/>
        <pt x="887" y="1374" on="0"/>
        <pt x="1129" y="1360" on="0"/>
        <pt x="1344" y="1313" on="0"/>
        <pt x="1525" y="1223" on="0"/>
        <pt x="1657" y="1070" on="0"/>
        <pt x="1731" y="846" on="0"/>
      </contour>
      <contour>
        <pt x="1602" y="688" on="1"/>
        <pt x="1602" y="851" on="0"/>
        <pt x="1502" y="1071" on="0"/>
        <pt x="1300" y="1204" on="0"/>
        <pt x="996" y="1260" on="0"/>
        <pt x="793" y="1260" on="1"/>
        <pt x="356" y="1260" on="1"/>
        <pt x="356" y="754" on="1"/>
        <pt x="918" y="754" on="1"/>
        <pt x="918" y="651" on="1"/>
        <pt x="356" y="651" on="1"/>
        <pt x="356" y="115" on="1"/>
        <pt x="793" y="115" on="1"/>
        <pt x="901" y="115" on="0"/>
        <pt x="1105" y="126" on="0"/>
        <pt x="1285" y="164" on="0"/>
        <pt x="1434" y="238" on="0"/>
        <pt x="1542" y="366" on="0"/>
        <pt x="1602" y="554" on="0"/>
      </contour>
    </TTGlyph>
    <TTGlyph name="exclam" xMin="205" yMin="0" xMax="358" yMax="1374">
      <contour>
        <pt x="324" y="369" on="1"/>
        <pt x="240" y="369" on="1"/>
        <pt x="205" y="1157" on="1"/>
        <pt x="205" y="1374" on="1"/>
        <pt x="358" y="1374" on="1"/>
        <pt x="358" y="1157" on="1"/>
      </contour>
      <contour>
        <pt x="205" y="0" on="1"/>
        <pt x="205" y="197" on="1"/>
        <pt x="358" y="197" on="1"/>
        <pt x="358" y="0" on="1"/>
      </contour>
    </TTGlyph>
    <TTGlyph name="exclamdown" xMin="205" yMin="0" xMax="358" yMax="1374">
      <contour>
        <pt x="358" y="217" on="1"/>
        <pt x="358" y="0" on="1"/>
        <pt x="205" y="0" on="1"/>
        <pt x="205" y="217" on="1"/>
        <pt x="240" y="1006" on="1"/>
        <pt x="324" y="1006" on="1"/>
      </contour>
      <contour>
        <pt x="358" y="1374" on="1"/>
        <pt x="358" y="1178" on="1"/>
        <pt x="205" y="1178" on="1"/>
        <pt x="205" y="1374" on="1"/>
      </contour>
    </TTGlyph>
    <TTGlyph name="f" xMin="231" yMin="0" xMax="1550" yMax="1374">
      <contour>
        <pt x="934" y="1257" on="1"/>
        <pt x="783" y="1257" on="0"/>
        <pt x="565" y="1216" on="0"/>
        <pt x="424" y="1130" on="0"/>
        <pt x="356" y="996" on="0"/>
        <pt x="356" y="903" on="1"/>
        <pt x="356" y="750" on="1"/>
        <pt x="1530" y="750" on="1"/>
        <pt x="1530" y="633" on="1"/>
        <pt x="356" y="633" on="1"/>
        <pt x="356" y="0" on="1"/>
        <pt x="231" y="0" on="1"/>
        <pt x="231" y="924" on="1"/>
        <pt x="231" y="1030" on="0"/>
        <pt x="306" y="1198" on="0"/>
        <pt x="470" y="1313" on="0"/>
        <pt x="727" y="1374" on="0"/>
        <pt x="909" y="1374" on="1"/>
        <pt x="1550" y="1374" on="1"/>
        <pt x="1550" y="1257" on="1"/>
      </contour>
    </TTGlyph>
    <TTGlyph name="fi" xMin="231" yMin="0" xMax="2031" yMax="1374">
      <component glyphName="f" x="0" y="0" flags="0x4"/>
      <component glyphName="i" x="1675" y="0" flags="0x4"/>
    </TTGlyph>
    <TTGlyph name="five" xMin="123" yMin="-27" xMax="1391" yMax="1374">
      <contour>
        <pt x="1274" y="1260" on="1"/>
        <pt x="299" y="1260" on="1"/>
        <pt x="299" y="799" on="1"/>
        <pt x="331" y="804" on="0"/>
        <pt x="408" y="816" on="0"/>
        <pt x="501" y="825" on="0"/>
        <pt x="614" y="831" on="0"/>
        <pt x="682" y="831" on="1"/>
        <pt x="1032" y="831" on="0"/>
        <pt x="1391" y="607" on="0"/>
        <pt x="1391" y="401" on="1"/>
        <pt x="1391" y="298" on="0"/>
        <pt x="1293" y="139" on="0"/>
        <pt x="1107" y="30" on="0"/>
        <pt x="836" y="-27" on="0"/>
        <pt x="664" y="-27" on="1"/>
        <pt x="584" y="-27" on="0"/>
        <pt x="431" y="-11" on="0"/>
        <pt x="293" y="16" on="0"/>
        <pt x="171" y="51" on="0"/>
        <pt x="123" y="70" on="1"/>
        <pt x="123" y="209" on="1"/>
        <pt x="166" y="186" on="0"/>
        <pt x="278" y="140" on="0"/>
        <pt x="415" y="104" on="0"/>
        <pt x="574" y="82" on="0"/>
        <pt x="664" y="82" on="1"/>
        <pt x="806" y="82" on="0"/>
        <pt x="1030" y="124" on="0"/>
        <pt x="1185" y="206" on="0"/>
        <pt x="1266" y="324" on="0"/>
        <pt x="1266" y="401" on="1"/>
        <pt x="1266" y="489" on="0"/>
        <pt x="1175" y="611" on="0"/>
        <pt x="1012" y="688" on="0"/>
        <pt x="784" y="723" on="0"/>
        <pt x="647" y="723" on="1"/>
        <pt x="576" y="723" on="0"/>
        <pt x="455" y="713" on="0"/>
        <pt x="350" y="696" on="0"/>
        <pt x="259" y="674" on="0"/>
        <pt x="217" y="662" on="1"/>
        <pt x="178" y="662" on="1"/>
        <pt x="178" y="1374" on="1"/>
        <pt x="1274" y="1374" on="1"/>
      </contour>
    </TTGlyph>
    <TTGlyph name="fl" xMin="231" yMin="0" xMax="3109" yMax="1374">
      <component glyphName="f" x="0" y="0" flags="0x4"/>
      <component glyphName="l" x="1675" y="0" flags="0x4"/>
    </TTGlyph>
    <TTGlyph name="florin" xMin="61" yMin="-70" xMax="1651" yMax="1399">
      <contour>
        <pt x="879" y="893" on="1"/>
        <pt x="924" y="1049" on="1"/>
        <pt x="945" y="1123" on="0"/>
        <pt x="999" y="1251" on="0"/>
        <pt x="1096" y="1345" on="0"/>
        <pt x="1251" y="1399" on="0"/>
        <pt x="1374" y="1399" on="1"/>
        <pt x="1446" y="1399" on="0"/>
        <pt x="1585" y="1376" on="0"/>
        <pt x="1651" y="1358" on="1"/>
        <pt x="1651" y="1210" on="1"/>
        <pt x="1628" y="1225" on="0"/>
        <pt x="1578" y="1253" on="0"/>
        <pt x="1514" y="1276" on="0"/>
        <pt x="1429" y="1290" on="0"/>
        <pt x="1372" y="1290" on="1"/>
        <pt x="1285" y="1290" on="0"/>
        <pt x="1175" y="1253" on="0"/>
        <pt x="1106" y="1187" on="0"/>
        <pt x="1067" y="1093" on="0"/>
        <pt x="1051" y="1036" on="1"/>
        <pt x="1010" y="893" on="1"/>
        <pt x="1331" y="893" on="1"/>
        <pt x="1331" y="786" on="1"/>
        <pt x="979" y="786" on="1"/>
        <pt x="854" y="373" on="1"/>
        <pt x="835" y="309" on="0"/>
        <pt x="794" y="194" on="0"/>
        <pt x="741" y="95" on="0"/>
        <pt x="670" y="16" on="0"/>
        <pt x="571" y="-40" on="0"/>
        <pt x="438" y="-70" on="0"/>
        <pt x="350" y="-70" on="1"/>
        <pt x="318" y="-70" on="0"/>
        <pt x="247" y="-64" on="0"/>
        <pt x="172" y="-52" on="0"/>
        <pt x="97" y="-34" on="0"/>
        <pt x="61" y="-23" on="1"/>
        <pt x="61" y="123" on="1"/>
        <pt x="86" y="108" on="0"/>
        <pt x="147" y="78" on="0"/>
        <pt x="218" y="54" on="0"/>
        <pt x="302" y="39" on="0"/>
        <pt x="350" y="39" on="1"/>
        <pt x="447" y="39" on="0"/>
        <pt x="570" y="82" on="0"/>
        <pt x="649" y="166" on="0"/>
        <pt x="698" y="290" on="0"/>
        <pt x="723" y="371" on="1"/>
        <pt x="848" y="786" on="1"/>
        <pt x="541" y="786" on="1"/>
        <pt x="541" y="893" on="1"/>
      </contour>
    </TTGlyph>
    <TTGlyph name="four" xMin="61" yMin="0" xMax="1513" yMax="1374">
      <contour>
        <pt x="1161" y="352" on="1"/>
        <pt x="1161" y="0" on="1"/>
        <pt x="1038" y="0" on="1"/>
        <pt x="1038" y="352" on="1"/>
        <pt x="61" y="352" on="1"/>
        <pt x="61" y="463" on="1"/>
        <pt x="950" y="1374" on="1"/>
        <pt x="1161" y="1374" on="1"/>
        <pt x="1161" y="467" on="1"/>
        <pt x="1513" y="467" on="1"/>
        <pt x="1513" y="352" on="1"/>
      </contour>
      <contour>
        <pt x="1038" y="1300" on="1"/>
        <pt x="225" y="467" on="1"/>
        <pt x="1038" y="467" on="1"/>
      </contour>
    </TTGlyph>
    <TTGlyph name="fraction" xMin="-410" yMin="0" xMax="819" yMax="1374">
      <contour>
        <pt x="-274" y="0" on="1"/>
        <pt x="-410" y="0" on="1"/>
        <pt x="686" y="1374" on="1"/>
        <pt x="819" y="1374" on="1"/>
      </contour>
    </TTGlyph>
    <TTGlyph name="g" xMin="135" yMin="-27" xMax="1696" yMax="1399">
      <contour>
        <pt x="1040" y="1399" on="1"/>
        <pt x="1135" y="1399" on="0"/>
        <pt x="1299" y="1380" on="0"/>
        <pt x="1449" y="1345" on="0"/>
        <pt x="1591" y="1296" on="0"/>
        <pt x="1663" y="1266" on="1"/>
        <pt x="1663" y="1114" on="1"/>
        <pt x="1606" y="1150" on="0"/>
        <pt x="1477" y="1214" on="0"/>
        <pt x="1328" y="1262" on="0"/>
        <pt x="1157" y="1290" on="0"/>
        <pt x="1059" y="1290" on="1"/>
        <pt x="859" y="1290" on="0"/>
        <pt x="561" y="1206" on="0"/>
        <pt x="363" y="1050" on="0"/>
        <pt x="264" y="826" on="0"/>
        <pt x="264" y="686" on="1"/>
        <pt x="264" y="555" on="0"/>
        <pt x="361" y="334" on="0"/>
        <pt x="558" y="174" on="0"/>
        <pt x="854" y="84" on="0"/>
        <pt x="1053" y="84" on="1"/>
        <pt x="1131" y="84" on="0"/>
        <pt x="1284" y="96" on="0"/>
        <pt x="1420" y="115" on="0"/>
        <pt x="1532" y="138" on="0"/>
        <pt x="1571" y="150" on="1"/>
        <pt x="1571" y="567" on="1"/>
        <pt x="1012" y="567" on="1"/>
        <pt x="1012" y="684" on="1"/>
        <pt x="1696" y="684" on="1"/>
        <pt x="1696" y="80" on="1"/>
        <pt x="1622" y="54" on="0"/>
        <pt x="1471" y="14" on="0"/>
        <pt x="1310" y="-13" on="0"/>
        <pt x="1137" y="-27" on="0"/>
        <pt x="1042" y="-27" on="1"/>
        <pt x="848" y="-27" on="0"/>
        <pt x="516" y="60" on="0"/>
        <pt x="273" y="237" on="0"/>
        <pt x="135" y="505" on="0"/>
        <pt x="135" y="686" on="1"/>
        <pt x="135" y="807" on="0"/>
        <pt x="199" y="1006" on="0"/>
        <pt x="316" y="1165" on="0"/>
        <pt x="481" y="1283" on="0"/>
        <pt x="682" y="1360" on="0"/>
        <pt x="914" y="1399" on="0"/>
      </contour>
    </TTGlyph>
    <TTGlyph name="gbreve" xMin="135" yMin="-27" xMax="1696" yMax="1751">
      <component glyphName="g" x="0" y="0" flags="0x204"/>
      <component glyphName="breve" x="473" y="362" flags="0x4"/>
    </TTGlyph>
    <TTGlyph name="gcircumflex" xMin="135" yMin="-27" xMax="1696" yMax="1792">
      <component glyphName="g" x="0" y="0" flags="0x204"/>
      <component glyphName="circumflex" x="473" y="362" flags="0x4"/>
    </TTGlyph>
    <TTGlyph name="gcommaaccent" xMin="135" yMin="-416" xMax="1696" yMax="1399">
      <component glyphName="g" x="0" y="0" flags="0x204"/>
      <component glyphName="commaaccent" x="494" y="0" flags="0x4"/>
    </TTGlyph>
    <TTGlyph name="gdotaccent" xMin="135" yMin="-27" xMax="1696" yMax="1675">
      <component glyphName="g" x="0" y="0" flags="0x204"/>
      <component glyphName="dotaccent" x="473" y="362" flags="0x4"/>
    </TTGlyph>
    <TTGlyph name="germandbls" xMin="190" yMin="-20" xMax="1647" yMax="1415">
      <contour>
        <pt x="544" y="175" on="0"/>
        <pt x="649" y="141" on="0"/>
        <pt x="779" y="110" on="0"/>
        <pt x="928" y="88" on="0"/>
        <pt x="1006" y="88" on="1"/>
        <pt x="1107" y="88" on="0"/>
        <pt x="1292" y="122" on="0"/>
        <pt x="1433" y="195" on="0"/>
        <pt x="1516" y="309" on="0"/>
        <pt x="1516" y="389" on="1"/>
        <pt x="1516" y="474" on="0"/>
        <pt x="1415" y="600" on="0"/>
        <pt x="1245" y="682" on="0"/>
        <pt x="1019" y="723" on="0"/>
        <pt x="895" y="723" on="1"/>
        <pt x="639" y="723" on="1"/>
        <pt x="639" y="829" on="1"/>
        <pt x="895" y="829" on="1"/>
        <pt x="935" y="829" on="0"/>
        <pt x="1041" y="833" on="0"/>
        <pt x="1153" y="848" on="0"/>
        <pt x="1261" y="878" on="0"/>
        <pt x="1347" y="929" on="0"/>
        <pt x="1399" y="1005" on="0"/>
        <pt x="1399" y="1059" on="1"/>
        <pt x="1399" y="1110" on="0"/>
        <pt x="1330" y="1200" on="0"/>
        <pt x="1198" y="1267" on="0"/>
        <pt x="1006" y="1307" on="0"/>
        <pt x="883" y="1307" on="1"/>
        <pt x="760" y="1307" on="0"/>
        <pt x="579" y="1270" on="0"/>
        <pt x="453" y="1210" on="0"/>
        <pt x="374" y="1133" on="0"/>
        <pt x="331" y="1053" on="0"/>
        <pt x="315" y="977" on="0"/>
        <pt x="315" y="948" on="1"/>
        <pt x="315" y="0" on="1"/>
        <pt x="190" y="0" on="1"/>
        <pt x="190" y="940" on="1"/>
        <pt x="190" y="1029" on="0"/>
        <pt x="267" y="1200" on="0"/>
        <pt x="431" y="1333" on="0"/>
        <pt x="686" y="1415" on="0"/>
        <pt x="864" y="1415" on="1"/>
        <pt x="1017" y="1415" on="0"/>
        <pt x="1263" y="1368" on="0"/>
        <pt x="1435" y="1278" on="0"/>
        <pt x="1528" y="1147" on="0"/>
        <pt x="1528" y="1063" on="1"/>
        <pt x="1528" y="998" on="0"/>
        <pt x="1474" y="901" on="0"/>
        <pt x="1392" y="832" on="0"/>
        <pt x="1297" y="789" on="0"/>
        <pt x="1255" y="780" on="1"/>
        <pt x="1341" y="765" on="0"/>
        <pt x="1485" y="699" on="0"/>
        <pt x="1589" y="601" on="0"/>
        <pt x="1647" y="474" on="0"/>
        <pt x="1647" y="399" on="1"/>
        <pt x="1647" y="306" on="0"/>
        <pt x="1562" y="151" on="0"/>
        <pt x="1403" y="41" on="0"/>
        <pt x="1177" y="-20" on="0"/>
        <pt x="1036" y="-20" on="1"/>
        <pt x="932" y="-20" on="0"/>
        <pt x="760" y="-3" on="0"/>
        <pt x="626" y="19" on="0"/>
        <pt x="534" y="40" on="0"/>
        <pt x="510" y="45" on="1"/>
        <pt x="510" y="188" on="1"/>
      </contour>
    </TTGlyph>
    <TTGlyph name="grave" xMin="186" yMin="1139" xMax="668" yMax="1430">
      <contour>
        <pt x="238" y="1430" on="1"/>
        <pt x="668" y="1217" on="1"/>
        <pt x="627" y="1139" on="1"/>
        <pt x="186" y="1325" on="1"/>
      </contour>
    </TTGlyph>
    <TTGlyph name="greater" xMin="170" yMin="199" xMax="1145" yMax="1171">
      <contour>
        <pt x="1145" y="637" on="1"/>
        <pt x="170" y="199" on="1"/>
        <pt x="170" y="313" on="1"/>
        <pt x="999" y="684" on="1"/>
        <pt x="170" y="1057" on="1"/>
        <pt x="170" y="1171" on="1"/>
        <pt x="1145" y="731" on="1"/>
      </contour>
    </TTGlyph>
    <TTGlyph name="greaterequal" xMin="170" yMin="98" xMax="1145" yMax="1171">
      <contour>
        <pt x="172" y="98" on="1"/>
        <pt x="172" y="207" on="1"/>
        <pt x="1128" y="207" on="1"/>
        <pt x="1128" y="98" on="1"/>
      </contour>
      <contour>
        <pt x="170" y="281" on="1"/>
        <pt x="170" y="395" on="1"/>
        <pt x="999" y="725" on="1"/>
        <pt x="170" y="1057" on="1"/>
        <pt x="170" y="1171" on="1"/>
        <pt x="1145" y="772" on="1"/>
        <pt x="1145" y="678" on="1"/>
      </contour>
    </TTGlyph>
    <TTGlyph name="guillemotleft" xMin="82" yMin="305" xMax="821" yMax="1067">
      <contour>
        <pt x="82" y="641" on="1"/>
        <pt x="82" y="731" on="1"/>
        <pt x="367" y="1067" on="1"/>
        <pt x="453" y="993" on="1"/>
        <pt x="197" y="686" on="1"/>
        <pt x="453" y="379" on="1"/>
        <pt x="367" y="305" on="1"/>
      </contour>
      <contour>
        <pt x="451" y="641" on="1"/>
        <pt x="451" y="731" on="1"/>
        <pt x="735" y="1067" on="1"/>
        <pt x="821" y="993" on="1"/>
        <pt x="565" y="686" on="1"/>
        <pt x="821" y="379" on="1"/>
        <pt x="735" y="305" on="1"/>
      </contour>
    </TTGlyph>
    <TTGlyph name="guillemotright" xMin="82" yMin="305" xMax="821" yMax="1067">
      <contour>
        <pt x="537" y="305" on="1"/>
        <pt x="451" y="379" on="1"/>
        <pt x="707" y="686" on="1"/>
        <pt x="451" y="993" on="1"/>
        <pt x="537" y="1067" on="1"/>
        <pt x="821" y="731" on="1"/>
        <pt x="821" y="641" on="1"/>
      </contour>
      <contour>
        <pt x="168" y="305" on="1"/>
        <pt x="82" y="379" on="1"/>
        <pt x="338" y="686" on="1"/>
        <pt x="82" y="993" on="1"/>
        <pt x="168" y="1067" on="1"/>
        <pt x="453" y="731" on="1"/>
        <pt x="453" y="641" on="1"/>
      </contour>
    </TTGlyph>
    <TTGlyph name="guilsinglleft" xMin="82" yMin="305" xMax="453" yMax="1067">
      <contour>
        <pt x="82" y="641" on="1"/>
        <pt x="82" y="731" on="1"/>
        <pt x="367" y="1067" on="1"/>
        <pt x="453" y="993" on="1"/>
        <pt x="197" y="686" on="1"/>
        <pt x="453" y="379" on="1"/>
        <pt x="367" y="305" on="1"/>
      </contour>
    </TTGlyph>
    <TTGlyph name="guilsinglright" xMin="82" yMin="305" xMax="453" yMax="1067">
      <contour>
        <pt x="168" y="305" on="1"/>
        <pt x="82" y="379" on="1"/>
        <pt x="338" y="686" on="1"/>
        <pt x="82" y="993" on="1"/>
        <pt x="168" y="1067" on="1"/>
        <pt x="453" y="731" on="1"/>
        <pt x="453" y="641" on="1"/>
      </contour>
    </TTGlyph>
    <TTGlyph name="h" xMin="231" yMin="0" xMax="1712" yMax="1374">
      <contour>
        <pt x="1587" y="0" on="1"/>
        <pt x="1587" y="666" on="1"/>
        <pt x="356" y="666" on="1"/>
        <pt x="356" y="0" on="1"/>
        <pt x="231" y="0" on="1"/>
        <pt x="231" y="1374" on="1"/>
        <pt x="356" y="1374" on="1"/>
        <pt x="356" y="782" on="1"/>
        <pt x="1587" y="782" on="1"/>
        <pt x="1587" y="1374" on="1"/>
        <pt x="1712" y="1374" on="1"/>
        <pt x="1712" y="0" on="1"/>
      </contour>
    </TTGlyph>
    <TTGlyph name="hbar" xMin="55" yMin="0" xMax="1888" yMax="1374">
      <contour>
        <pt x="1587" y="0" on="1"/>
        <pt x="1587" y="666" on="1"/>
        <pt x="356" y="666" on="1"/>
        <pt x="356" y="0" on="1"/>
        <pt x="231" y="0" on="1"/>
        <pt x="231" y="981" on="1"/>
        <pt x="55" y="981" on="1"/>
        <pt x="55" y="1094" on="1"/>
        <pt x="231" y="1094" on="1"/>
        <pt x="231" y="1374" on="1"/>
        <pt x="356" y="1374" on="1"/>
        <pt x="356" y="1094" on="1"/>
        <pt x="1587" y="1094" on="1"/>
        <pt x="1587" y="1374" on="1"/>
        <pt x="1712" y="1374" on="1"/>
        <pt x="1712" y="1094" on="1"/>
        <pt x="1888" y="1094" on="1"/>
        <pt x="1888" y="981" on="1"/>
        <pt x="1712" y="981" on="1"/>
        <pt x="1712" y="0" on="1"/>
      </contour>
      <contour>
        <pt x="1587" y="782" on="1"/>
        <pt x="1587" y="981" on="1"/>
        <pt x="356" y="981" on="1"/>
        <pt x="356" y="782" on="1"/>
      </contour>
    </TTGlyph>
    <TTGlyph name="hcircumflex" xMin="231" yMin="0" xMax="1712" yMax="1792">
      <component glyphName="h" x="0" y="0" flags="0x204"/>
      <component glyphName="circumflex" x="432" y="362" flags="0x4"/>
    </TTGlyph>
    <TTGlyph name="hungarumlaut" xMin="258" yMin="1139" xMax="963" yMax="1423">
      <contour>
        <pt x="608" y="1325" on="1"/>
        <pt x="311" y="1139" on="1"/>
        <pt x="258" y="1210" on="1"/>
        <pt x="543" y="1423" on="1"/>
      </contour>
      <contour>
        <pt x="963" y="1325" on="1"/>
        <pt x="666" y="1139" on="1"/>
        <pt x="612" y="1210" on="1"/>
        <pt x="897" y="1423" on="1"/>
      </contour>
    </TTGlyph>
    <TTGlyph name="hyphen" xMin="164" yMin="625" xMax="942" yMax="748">
      <contour>
        <pt x="164" y="625" on="1"/>
        <pt x="164" y="748" on="1"/>
        <pt x="942" y="748" on="1"/>
        <pt x="942" y="625" on="1"/>
      </contour>
    </TTGlyph>
    <TTGlyph name="i" xMin="231" yMin="0" xMax="356" yMax="1374">
      <contour>
        <pt x="231" y="0" on="1"/>
        <pt x="231" y="1374" on="1"/>
        <pt x="356" y="1374" on="1"/>
        <pt x="356" y="0" on="1"/>
      </contour>
    </TTGlyph>
    <TTGlyph name="iacute" xMin="171" yMin="0" xMax="650" yMax="1792">
      <component glyphName="dotlessi" x="0" y="0" flags="0x204"/>
      <component glyphName="acute" x="-245" y="362" flags="0x4"/>
    </TTGlyph>
    <TTGlyph name="ibreve" xMin="-50" yMin="0" xMax="642" yMax="1751">
      <component glyphName="dotlessi" x="0" y="0" flags="0x204"/>
      <component glyphName="breve" x="-245" y="362" flags="0x4"/>
    </TTGlyph>
    <TTGlyph name="icircumflex" xMin="-91" yMin="0" xMax="683" yMax="1792">
      <component glyphName="dotlessi" x="0" y="0" flags="0x204"/>
      <component glyphName="circumflex" x="-245" y="362" flags="0x4"/>
    </TTGlyph>
    <TTGlyph name="idieresis" xMin="21" yMin="0" xMax="570" yMax="1669">
      <component glyphName="dotlessi" x="0" y="0" flags="0x204"/>
      <component glyphName="dieresis" x="-245" y="362" flags="0x4"/>
    </TTGlyph>
    <TTGlyph name="igrave" xMin="-59" yMin="0" xMax="423" yMax="1792">
      <component glyphName="dotlessi" x="0" y="0" flags="0x204"/>
      <component glyphName="grave" x="-245" y="362" flags="0x4"/>
    </TTGlyph>
    <TTGlyph name="ij" xMin="231" yMin="-16" xMax="1573" yMax="1374">
      <component glyphName="i" x="0" y="0" flags="0x4"/>
      <component glyphName="j" x="588" y="0" flags="0x4"/>
    </TTGlyph>
    <TTGlyph name="imacron" xMin="21" yMin="0" xMax="570" yMax="1644">
      <component glyphName="dotlessi" x="0" y="0" flags="0x204"/>
      <component glyphName="macron" x="-245" y="362" flags="0x4"/>
    </TTGlyph>
    <TTGlyph name="iogonek" xMin="47" yMin="-356" xMax="486" yMax="1374">
      <contour>
        <pt x="231" y="1374" on="1"/>
        <pt x="356" y="1374" on="1"/>
        <pt x="356" y="0" on="1"/>
        <pt x="319" y="0" on="1"/>
        <pt x="302" y="-11" on="0"/>
        <pt x="284" y="-24" on="1"/>
        <pt x="251" y="-48" on="0"/>
        <pt x="197" y="-101" on="0"/>
        <pt x="162" y="-155" on="0"/>
        <pt x="162" y="-182" on="1"/>
        <pt x="162" y="-224" on="0"/>
        <pt x="236" y="-262" on="0"/>
        <pt x="305" y="-262" on="1"/>
        <pt x="355" y="-262" on="0"/>
        <pt x="444" y="-247" on="0"/>
        <pt x="486" y="-236" on="1"/>
        <pt x="486" y="-338" on="1"/>
        <pt x="444" y="-344" on="0"/>
        <pt x="355" y="-356" on="0"/>
        <pt x="289" y="-356" on="1"/>
        <pt x="234" y="-356" on="0"/>
        <pt x="144" y="-339" on="0"/>
        <pt x="81" y="-302" on="0"/>
        <pt x="47" y="-245" on="0"/>
        <pt x="47" y="-205" on="1"/>
        <pt x="47" y="-140" on="0"/>
        <pt x="95" y="-85" on="1"/>
        <pt x="140" y="-34" on="0"/>
        <pt x="231" y="14" on="1"/>
      </contour>
    </TTGlyph>
    <TTGlyph name="itilde" xMin="-55" yMin="0" xMax="650" yMax="1730">
      <component glyphName="dotlessi" x="0" y="0" flags="0x204"/>
      <component glyphName="tilde" x="-243" y="362" flags="0x4"/>
    </TTGlyph>
    <TTGlyph name="j" xMin="0" yMin="-16" xMax="985" yMax="1374">
      <contour>
        <pt x="985" y="440" on="1"/>
        <pt x="985" y="326" on="0"/>
        <pt x="905" y="155" on="0"/>
        <pt x="761" y="41" on="0"/>
        <pt x="561" y="-16" on="0"/>
        <pt x="440" y="-16" on="1"/>
        <pt x="365" y="-16" on="0"/>
        <pt x="239" y="-3" on="0"/>
        <pt x="132" y="17" on="0"/>
        <pt x="41" y="40" on="0"/>
        <pt x="0" y="51" on="1"/>
        <pt x="0" y="180" on="1"/>
        <pt x="42" y="164" on="0"/>
        <pt x="132" y="134" on="0"/>
        <pt x="244" y="110" on="0"/>
        <pt x="383" y="96" on="0"/>
        <pt x="473" y="96" on="1"/>
        <pt x="554" y="96" on="0"/>
        <pt x="695" y="141" on="0"/>
        <pt x="800" y="228" on="0"/>
        <pt x="860" y="353" on="0"/>
        <pt x="860" y="434" on="1"/>
        <pt x="860" y="1374" on="1"/>
        <pt x="985" y="1374" on="1"/>
      </contour>
    </TTGlyph>
    <TTGlyph name="jcircumflex" xMin="0" yMin="-16" xMax="1311" yMax="1792">
      <component glyphName="j" x="0" y="0" flags="0x204"/>
      <component glyphName="circumflex" x="383" y="362" flags="0x4"/>
    </TTGlyph>
    <TTGlyph name="k" xMin="231" yMin="0" xMax="1649" yMax="1374">
      <contour>
        <pt x="1520" y="0" on="1"/>
        <pt x="1510" y="112" on="0"/>
        <pt x="1420" y="293" on="0"/>
        <pt x="1279" y="433" on="0"/>
        <pt x="1097" y="534" on="0"/>
        <pt x="893" y="600" on="0"/>
        <pt x="675" y="631" on="0"/>
        <pt x="569" y="631" on="1"/>
        <pt x="356" y="631" on="1"/>
        <pt x="356" y="0" on="1"/>
        <pt x="231" y="0" on="1"/>
        <pt x="231" y="1374" on="1"/>
        <pt x="356" y="1374" on="1"/>
        <pt x="356" y="741" on="1"/>
        <pt x="535" y="741" on="1"/>
        <pt x="642" y="741" on="0"/>
        <pt x="854" y="780" on="0"/>
        <pt x="1047" y="855" on="0"/>
        <pt x="1214" y="964" on="0"/>
        <pt x="1342" y="1105" on="0"/>
        <pt x="1424" y="1275" on="0"/>
        <pt x="1434" y="1374" on="1"/>
        <pt x="1563" y="1374" on="1"/>
        <pt x="1553" y="1265" on="0"/>
        <pt x="1476" y="1088" on="0"/>
        <pt x="1364" y="946" on="0"/>
        <pt x="1226" y="839" on="0"/>
        <pt x="1084" y="762" on="0"/>
        <pt x="948" y="711" on="0"/>
        <pt x="893" y="698" on="1"/>
        <pt x="962" y="687" on="0"/>
        <pt x="1123" y="642" on="0"/>
        <pt x="1284" y="567" on="0"/>
        <pt x="1436" y="458" on="0"/>
        <pt x="1557" y="310" on="0"/>
        <pt x="1639" y="120" on="0"/>
        <pt x="1649" y="0" on="1"/>
      </contour>
    </TTGlyph>
    <TTGlyph name="kcommaaccent" xMin="231" yMin="-416" xMax="1649" yMax="1374">
      <component glyphName="k" x="0" y="0" flags="0x204"/>
      <component glyphName="commaaccent" x="348" y="0" flags="0x4"/>
    </TTGlyph>
    <TTGlyph name="kgreenlandic" xMin="231" yMin="0" xMax="1649" yMax="1374">
      <contour>
        <pt x="1520" y="0" on="1"/>
        <pt x="1510" y="112" on="0"/>
        <pt x="1420" y="293" on="0"/>
        <pt x="1279" y="433" on="0"/>
        <pt x="1097" y="534" on="0"/>
        <pt x="893" y="600" on="0"/>
        <pt x="675" y="631" on="0"/>
        <pt x="569" y="631" on="1"/>
        <pt x="356" y="631" on="1"/>
        <pt x="356" y="0" on="1"/>
        <pt x="231" y="0" on="1"/>
        <pt x="231" y="1374" on="1"/>
        <pt x="356" y="1374" on="1"/>
        <pt x="356" y="741" on="1"/>
        <pt x="535" y="741" on="1"/>
        <pt x="642" y="741" on="0"/>
        <pt x="854" y="780" on="0"/>
        <pt x="1047" y="855" on="0"/>
        <pt x="1214" y="964" on="0"/>
        <pt x="1342" y="1105" on="0"/>
        <pt x="1424" y="1275" on="0"/>
        <pt x="1434" y="1374" on="1"/>
        <pt x="1563" y="1374" on="1"/>
        <pt x="1553" y="1265" on="0"/>
        <pt x="1476" y="1088" on="0"/>
        <pt x="1364" y="946" on="0"/>
        <pt x="1226" y="839" on="0"/>
        <pt x="1084" y="762" on="0"/>
        <pt x="948" y="711" on="0"/>
        <pt x="893" y="698" on="1"/>
        <pt x="962" y="687" on="0"/>
        <pt x="1123" y="642" on="0"/>
        <pt x="1284" y="567" on="0"/>
        <pt x="1436" y="458" on="0"/>
        <pt x="1557" y="310" on="0"/>
        <pt x="1639" y="120" on="0"/>
        <pt x="1649" y="0" on="1"/>
      </contour>
    </TTGlyph>
    <TTGlyph name="l" xMin="231" yMin="0" xMax="1434" yMax="1374">
      <contour>
        <pt x="356" y="475" on="1"/>
        <pt x="356" y="382" on="0"/>
        <pt x="386" y="248" on="0"/>
        <pt x="482" y="162" on="0"/>
        <pt x="663" y="121" on="0"/>
        <pt x="813" y="121" on="1"/>
        <pt x="1434" y="121" on="1"/>
        <pt x="1434" y="0" on="1"/>
        <pt x="788" y="0" on="1"/>
        <pt x="623" y="0" on="0"/>
        <pt x="408" y="53" on="0"/>
        <pt x="281" y="164" on="0"/>
        <pt x="231" y="334" on="0"/>
        <pt x="231" y="451" on="1"/>
        <pt x="231" y="1374" on="1"/>
        <pt x="356" y="1374" on="1"/>
      </contour>
    </TTGlyph>
    <TTGlyph name="lacute" xMin="171" yMin="0" xMax="1434" yMax="1792">
      <component glyphName="l" x="0" y="0" flags="0x204"/>
      <component glyphName="acute" x="-245" y="362" flags="0x4"/>
    </TTGlyph>
    <TTGlyph name="lcaron" xMin="231" yMin="0" xMax="1434" yMax="1374">
      <component glyphName="l" x="0" y="0" flags="0x204"/>
      <component glyphName="quoteright" x="823" y="0" flags="0x4"/>
    </TTGlyph>
    <TTGlyph name="lcommaaccent" xMin="231" yMin="-416" xMax="1434" yMax="1374">
      <component glyphName="l" x="0" y="0" flags="0x204"/>
      <component glyphName="commaaccent" x="309" y="0" flags="0x4"/>
    </TTGlyph>
    <TTGlyph name="ldotaccent" xMin="231" yMin="0" xMax="1434" yMax="1374">
      <component glyphName="l" x="0" y="0" flags="0x204"/>
      <component glyphName="periodcentered" x="840" y="0" flags="0x4"/>
    </TTGlyph>
    <TTGlyph name="less" xMin="156" yMin="199" xMax="1130" yMax="1171">
      <contour>
        <pt x="156" y="637" on="1"/>
        <pt x="156" y="731" on="1"/>
        <pt x="1130" y="1171" on="1"/>
        <pt x="1130" y="1057" on="1"/>
        <pt x="301" y="684" on="1"/>
        <pt x="1130" y="313" on="1"/>
        <pt x="1130" y="199" on="1"/>
      </contour>
    </TTGlyph>
    <TTGlyph name="lessequal" xMin="156" yMin="98" xMax="1130" yMax="1171">
      <contour>
        <pt x="172" y="98" on="1"/>
        <pt x="172" y="207" on="1"/>
        <pt x="1128" y="207" on="1"/>
        <pt x="1128" y="98" on="1"/>
      </contour>
      <contour>
        <pt x="156" y="678" on="1"/>
        <pt x="156" y="772" on="1"/>
        <pt x="1130" y="1171" on="1"/>
        <pt x="1130" y="1057" on="1"/>
        <pt x="301" y="725" on="1"/>
        <pt x="1130" y="395" on="1"/>
        <pt x="1130" y="281" on="1"/>
      </contour>
    </TTGlyph>
    <TTGlyph name="logicalnot" xMin="172" yMin="459" xMax="1128" yMax="895">
      <contour>
        <pt x="1020" y="459" on="1"/>
        <pt x="1020" y="786" on="1"/>
        <pt x="172" y="786" on="1"/>
        <pt x="172" y="895" on="1"/>
        <pt x="1128" y="895" on="1"/>
        <pt x="1128" y="459" on="1"/>
      </contour>
    </TTGlyph>
    <TTGlyph name="lslash" xMin="6" yMin="0" xMax="1434" yMax="1374">
      <contour>
        <pt x="231" y="711" on="1"/>
        <pt x="231" y="1374" on="1"/>
        <pt x="356" y="1374" on="1"/>
        <pt x="356" y="760" on="1"/>
        <pt x="731" y="905" on="1"/>
        <pt x="768" y="807" on="1"/>
        <pt x="356" y="647" on="1"/>
        <pt x="356" y="475" on="1"/>
        <pt x="356" y="382" on="0"/>
        <pt x="386" y="248" on="0"/>
        <pt x="482" y="162" on="0"/>
        <pt x="663" y="121" on="0"/>
        <pt x="813" y="121" on="1"/>
        <pt x="1434" y="121" on="1"/>
        <pt x="1434" y="0" on="1"/>
        <pt x="788" y="0" on="1"/>
        <pt x="623" y="0" on="0"/>
        <pt x="408" y="53" on="0"/>
        <pt x="281" y="164" on="0"/>
        <pt x="231" y="334" on="0"/>
        <pt x="231" y="451" on="1"/>
        <pt x="231" y="598" on="1"/>
        <pt x="43" y="526" on="1"/>
        <pt x="6" y="625" on="1"/>
      </contour>
    </TTGlyph>
    <TTGlyph name="m" xMin="231" yMin="0" xMax="2327" yMax="1407">
      <contour>
        <pt x="356" y="1374" on="1"/>
        <pt x="356" y="1163" on="1"/>
        <pt x="400" y="1201" on="0"/>
        <pt x="508" y="1287" on="0"/>
        <pt x="638" y="1359" on="0"/>
        <pt x="790" y="1407" on="0"/>
        <pt x="877" y="1407" on="1"/>
        <pt x="1016" y="1407" on="0"/>
        <pt x="1230" y="1282" on="0"/>
        <pt x="1296" y="1151" on="1"/>
        <pt x="1360" y="1210" on="0"/>
        <pt x="1496" y="1305" on="0"/>
        <pt x="1639" y="1371" on="0"/>
        <pt x="1791" y="1407" on="0"/>
        <pt x="1872" y="1407" on="1"/>
        <pt x="1975" y="1407" on="0"/>
        <pt x="2144" y="1337" on="0"/>
        <pt x="2262" y="1215" on="0"/>
        <pt x="2327" y="1050" on="0"/>
        <pt x="2327" y="956" on="1"/>
        <pt x="2327" y="0" on="1"/>
        <pt x="2202" y="0" on="1"/>
        <pt x="2202" y="924" on="1"/>
        <pt x="2202" y="1010" on="0"/>
        <pt x="2161" y="1145" on="0"/>
        <pt x="2074" y="1239" on="0"/>
        <pt x="1939" y="1288" on="0"/>
        <pt x="1845" y="1288" on="1"/>
        <pt x="1770" y="1288" on="0"/>
        <pt x="1623" y="1245" on="0"/>
        <pt x="1489" y="1174" on="0"/>
        <pt x="1373" y="1084" on="0"/>
        <pt x="1329" y="1036" on="1"/>
        <pt x="1334" y="1008" on="0"/>
        <pt x="1335" y="968" on="0"/>
        <pt x="1335" y="940" on="1"/>
        <pt x="1335" y="0" on="1"/>
        <pt x="1210" y="0" on="1"/>
        <pt x="1210" y="924" on="1"/>
        <pt x="1210" y="1026" on="0"/>
        <pt x="1156" y="1165" on="0"/>
        <pt x="1060" y="1251" on="0"/>
        <pt x="929" y="1288" on="0"/>
        <pt x="852" y="1288" on="1"/>
        <pt x="779" y="1288" on="0"/>
        <pt x="636" y="1238" on="0"/>
        <pt x="506" y="1158" on="0"/>
        <pt x="396" y="1059" on="0"/>
        <pt x="356" y="1010" on="1"/>
        <pt x="356" y="0" on="1"/>
        <pt x="231" y="0" on="1"/>
        <pt x="231" y="1374" on="1"/>
      </contour>
    </TTGlyph>
    <TTGlyph name="macron" xMin="266" yMin="1169" xMax="815" yMax="1282">
      <contour>
        <pt x="266" y="1169" on="1"/>
        <pt x="266" y="1282" on="1"/>
        <pt x="815" y="1282" on="1"/>
        <pt x="815" y="1169" on="1"/>
      </contour>
    </TTGlyph>
    <TTGlyph name="micro" xMin="68" yMin="-410" xMax="1253" yMax="958">
      <contour>
        <pt x="457" y="958" on="1"/>
        <pt x="334" y="322" on="1"/>
        <pt x="347" y="269" on="0"/>
        <pt x="391" y="181" on="0"/>
        <pt x="454" y="118" on="0"/>
        <pt x="538" y="84" on="0"/>
        <pt x="592" y="84" on="1"/>
        <pt x="667" y="84" on="0"/>
        <pt x="791" y="133" on="0"/>
        <pt x="894" y="213" on="0"/>
        <pt x="979" y="312" on="0"/>
        <pt x="1014" y="362" on="1"/>
        <pt x="1128" y="958" on="1"/>
        <pt x="1253" y="958" on="1"/>
        <pt x="1139" y="362" on="1"/>
        <pt x="1131" y="320" on="0"/>
        <pt x="1124" y="254" on="0"/>
        <pt x="1124" y="225" on="1"/>
        <pt x="1124" y="191" on="0"/>
        <pt x="1131" y="134" on="0"/>
        <pt x="1143" y="82" on="0"/>
        <pt x="1159" y="29" on="0"/>
        <pt x="1167" y="0" on="1"/>
        <pt x="1042" y="0" on="1"/>
        <pt x="1028" y="45" on="0"/>
        <pt x="1004" y="150" on="0"/>
        <pt x="1004" y="227" on="1"/>
        <pt x="965" y="183" on="0"/>
        <pt x="879" y="94" on="0"/>
        <pt x="774" y="22" on="0"/>
        <pt x="649" y="-23" on="0"/>
        <pt x="571" y="-23" on="1"/>
        <pt x="479" y="-23" on="0"/>
        <pt x="339" y="85" on="0"/>
        <pt x="305" y="176" on="1"/>
        <pt x="193" y="-410" on="1"/>
        <pt x="68" y="-410" on="1"/>
        <pt x="332" y="958" on="1"/>
      </contour>
    </TTGlyph>
    <TTGlyph name="minus" xMin="172" yMin="631" xMax="1128" yMax="739">
      <contour>
        <pt x="172" y="631" on="1"/>
        <pt x="172" y="739" on="1"/>
        <pt x="1128" y="739" on="1"/>
        <pt x="1128" y="631" on="1"/>
      </contour>
    </TTGlyph>
    <TTGlyph name="mu" xMin="68" yMin="-410" xMax="1253" yMax="958">
      <contour>
        <pt x="457" y="958" on="1"/>
        <pt x="334" y="322" on="1"/>
        <pt x="347" y="269" on="0"/>
        <pt x="391" y="181" on="0"/>
        <pt x="454" y="118" on="0"/>
        <pt x="538" y="84" on="0"/>
        <pt x="592" y="84" on="1"/>
        <pt x="667" y="84" on="0"/>
        <pt x="791" y="133" on="0"/>
        <pt x="894" y="213" on="0"/>
        <pt x="979" y="312" on="0"/>
        <pt x="1014" y="362" on="1"/>
        <pt x="1128" y="958" on="1"/>
        <pt x="1253" y="958" on="1"/>
        <pt x="1139" y="362" on="1"/>
        <pt x="1131" y="320" on="0"/>
        <pt x="1124" y="254" on="0"/>
        <pt x="1124" y="225" on="1"/>
        <pt x="1124" y="191" on="0"/>
        <pt x="1131" y="134" on="0"/>
        <pt x="1143" y="82" on="0"/>
        <pt x="1159" y="29" on="0"/>
        <pt x="1167" y="0" on="1"/>
        <pt x="1042" y="0" on="1"/>
        <pt x="1028" y="45" on="0"/>
        <pt x="1004" y="150" on="0"/>
        <pt x="1004" y="227" on="1"/>
        <pt x="965" y="183" on="0"/>
        <pt x="879" y="94" on="0"/>
        <pt x="774" y="22" on="0"/>
        <pt x="649" y="-23" on="0"/>
        <pt x="571" y="-23" on="1"/>
        <pt x="479" y="-23" on="0"/>
        <pt x="339" y="85" on="0"/>
        <pt x="305" y="176" on="1"/>
        <pt x="193" y="-410" on="1"/>
        <pt x="68" y="-410" on="1"/>
        <pt x="332" y="958" on="1"/>
      </contour>
    </TTGlyph>
    <TTGlyph name="multiply" xMin="227" yMin="262" xMax="1071" yMax="1108">
      <contour>
        <pt x="725" y="686" on="1"/>
        <pt x="1071" y="340" on="1"/>
        <pt x="995" y="262" on="1"/>
        <pt x="649" y="608" on="1"/>
        <pt x="305" y="266" on="1"/>
        <pt x="229" y="342" on="1"/>
        <pt x="573" y="686" on="1"/>
        <pt x="227" y="1032" on="1"/>
        <pt x="303" y="1108" on="1"/>
        <pt x="649" y="762" on="1"/>
        <pt x="993" y="1106" on="1"/>
        <pt x="1069" y="1028" on="1"/>
      </contour>
    </TTGlyph>
    <TTGlyph name="n" xMin="231" yMin="0" xMax="1686" yMax="1407">
      <contour>
        <pt x="1561" y="0" on="1"/>
        <pt x="1561" y="907" on="1"/>
        <pt x="1561" y="1021" on="0"/>
        <pt x="1500" y="1168" on="0"/>
        <pt x="1387" y="1254" on="0"/>
        <pt x="1225" y="1288" on="0"/>
        <pt x="1124" y="1288" on="1"/>
        <pt x="1007" y="1288" on="0"/>
        <pt x="782" y="1231" on="0"/>
        <pt x="582" y="1144" on="0"/>
        <pt x="414" y="1038" on="0"/>
        <pt x="356" y="989" on="1"/>
        <pt x="356" y="0" on="1"/>
        <pt x="231" y="0" on="1"/>
        <pt x="231" y="1374" on="1"/>
        <pt x="356" y="1374" on="1"/>
        <pt x="356" y="1133" on="1"/>
        <pt x="426" y="1177" on="0"/>
        <pt x="595" y="1274" on="0"/>
        <pt x="790" y="1355" on="0"/>
        <pt x="1012" y="1407" on="0"/>
        <pt x="1135" y="1407" on="1"/>
        <pt x="1274" y="1407" on="0"/>
        <pt x="1481" y="1340" on="0"/>
        <pt x="1618" y="1217" on="0"/>
        <pt x="1686" y="1042" on="0"/>
        <pt x="1686" y="934" on="1"/>
        <pt x="1686" y="0" on="1"/>
      </contour>
    </TTGlyph>
    <TTGlyph name="nacute" xMin="231" yMin="0" xMax="1686" yMax="1792">
      <component glyphName="n" x="0" y="0" flags="0x204"/>
      <component glyphName="acute" x="395" y="362" flags="0x4"/>
    </TTGlyph>
    <TTGlyph name="napostrophe" xMin="1" yMin="0" xMax="1876" yMax="1407">
      <component glyphName="quoteright" x="-60" y="0" flags="0x4"/>
      <component glyphName="n" x="190" y="0" flags="0x4"/>
    </TTGlyph>
    <TTGlyph name="ncaron" xMin="231" yMin="0" xMax="1686" yMax="1792">
      <component glyphName="n" x="0" y="0" flags="0x204"/>
      <component glyphName="caron" x="395" y="362" flags="0x4"/>
    </TTGlyph>
    <TTGlyph name="ncommaaccent" xMin="231" yMin="-416" xMax="1686" yMax="1407">
      <component glyphName="n" x="0" y="0" flags="0x204"/>
      <component glyphName="commaaccent" x="416" y="0" flags="0x4"/>
    </TTGlyph>
    <TTGlyph name="nine" xMin="92" yMin="-27" xMax="1458" yMax="1399">
      <contour>
        <pt x="670" y="82" on="1"/>
        <pt x="801" y="82" on="0"/>
        <pt x="1000" y="128" on="0"/>
        <pt x="1146" y="212" on="0"/>
        <pt x="1244" y="330" on="0"/>
        <pt x="1303" y="472" on="0"/>
        <pt x="1328" y="635" on="0"/>
        <pt x="1329" y="723" on="1"/>
        <pt x="1285" y="685" on="0"/>
        <pt x="1173" y="605" on="0"/>
        <pt x="1025" y="539" on="0"/>
        <pt x="837" y="496" on="0"/>
        <pt x="717" y="496" on="1"/>
        <pt x="584" y="496" on="0"/>
        <pt x="355" y="551" on="0"/>
        <pt x="187" y="663" on="0"/>
        <pt x="92" y="832" on="0"/>
        <pt x="92" y="946" on="1"/>
        <pt x="92" y="1040" on="0"/>
        <pt x="178" y="1205" on="0"/>
        <pt x="343" y="1328" on="0"/>
        <pt x="584" y="1399" on="0"/>
        <pt x="739" y="1399" on="1"/>
        <pt x="894" y="1399" on="0"/>
        <pt x="1158" y="1316" on="0"/>
        <pt x="1350" y="1149" on="0"/>
        <pt x="1458" y="897" on="0"/>
        <pt x="1458" y="727" on="1"/>
        <pt x="1458" y="560" on="0"/>
        <pt x="1363" y="283" on="0"/>
        <pt x="1167" y="84" on="0"/>
        <pt x="868" y="-27" on="0"/>
        <pt x="664" y="-27" on="1"/>
        <pt x="602" y="-27" on="0"/>
        <pt x="481" y="-14" on="0"/>
        <pt x="365" y="7" on="0"/>
        <pt x="259" y="34" on="0"/>
        <pt x="213" y="49" on="1"/>
        <pt x="213" y="182" on="1"/>
        <pt x="246" y="167" on="0"/>
        <pt x="335" y="132" on="0"/>
        <pt x="449" y="102" on="0"/>
        <pt x="588" y="82" on="0"/>
      </contour>
      <contour>
        <pt x="756" y="604" on="1"/>
        <pt x="860" y="604" on="0"/>
        <pt x="1033" y="652" on="0"/>
        <pt x="1172" y="725" on="0"/>
        <pt x="1280" y="812" on="0"/>
        <pt x="1319" y="850" on="1"/>
        <pt x="1312" y="902" on="0"/>
        <pt x="1279" y="1008" on="0"/>
        <pt x="1220" y="1106" on="0"/>
        <pt x="1133" y="1191" on="0"/>
        <pt x="1010" y="1254" on="0"/>
        <pt x="848" y="1290" on="0"/>
        <pt x="745" y="1290" on="1"/>
        <pt x="616" y="1290" on="0"/>
        <pt x="419" y="1241" on="0"/>
        <pt x="285" y="1151" on="0"/>
        <pt x="217" y="1024" on="0"/>
        <pt x="217" y="946" on="1"/>
        <pt x="217" y="867" on="0"/>
        <pt x="280" y="740" on="0"/>
        <pt x="412" y="652" on="0"/>
        <pt x="615" y="604" on="0"/>
      </contour>
    </TTGlyph>
    <TTGlyph name="notequal" xMin="172" yMin="131" xMax="1128" yMax="1237">
      <contour>
        <pt x="784" y="930" on="1"/>
        <pt x="1128" y="930" on="1"/>
        <pt x="1128" y="821" on="1"/>
        <pt x="748" y="821" on="1"/>
        <pt x="657" y="549" on="1"/>
        <pt x="1128" y="549" on="1"/>
        <pt x="1128" y="438" on="1"/>
        <pt x="621" y="438" on="1"/>
        <pt x="520" y="131" on="1"/>
        <pt x="399" y="131" on="1"/>
        <pt x="500" y="438" on="1"/>
        <pt x="172" y="438" on="1"/>
        <pt x="172" y="549" on="1"/>
        <pt x="537" y="549" on="1"/>
        <pt x="627" y="821" on="1"/>
        <pt x="172" y="821" on="1"/>
        <pt x="172" y="930" on="1"/>
        <pt x="664" y="930" on="1"/>
        <pt x="766" y="1237" on="1"/>
        <pt x="887" y="1237" on="1"/>
      </contour>
    </TTGlyph>
    <TTGlyph name="ntilde" xMin="231" yMin="0" xMax="1686" yMax="1730">
      <component glyphName="n" x="0" y="0" flags="0x204"/>
      <component glyphName="tilde" x="397" y="362" flags="0x4"/>
    </TTGlyph>
    <TTGlyph name="numbersign" xMin="102" yMin="0" xMax="1333" yMax="1374">
      <contour>
        <pt x="1069" y="891" on="1"/>
        <pt x="981" y="485" on="1"/>
        <pt x="1219" y="485" on="1"/>
        <pt x="1219" y="393" on="1"/>
        <pt x="961" y="393" on="1"/>
        <pt x="872" y="0" on="1"/>
        <pt x="772" y="0" on="1"/>
        <pt x="860" y="393" on="1"/>
        <pt x="446" y="393" on="1"/>
        <pt x="358" y="0" on="1"/>
        <pt x="258" y="0" on="1"/>
        <pt x="346" y="393" on="1"/>
        <pt x="102" y="393" on="1"/>
        <pt x="102" y="485" on="1"/>
        <pt x="365" y="485" on="1"/>
        <pt x="455" y="891" on="1"/>
        <pt x="217" y="891" on="1"/>
        <pt x="217" y="983" on="1"/>
        <pt x="475" y="983" on="1"/>
        <pt x="561" y="1374" on="1"/>
        <pt x="662" y="1374" on="1"/>
        <pt x="575" y="983" on="1"/>
        <pt x="989" y="983" on="1"/>
        <pt x="1075" y="1374" on="1"/>
        <pt x="1176" y="1374" on="1"/>
        <pt x="1090" y="983" on="1"/>
        <pt x="1333" y="983" on="1"/>
        <pt x="1333" y="891" on="1"/>
      </contour>
      <contour>
        <pt x="555" y="891" on="1"/>
        <pt x="465" y="485" on="1"/>
        <pt x="881" y="485" on="1"/>
        <pt x="969" y="891" on="1"/>
      </contour>
    </TTGlyph>
    <TTGlyph name="o" xMin="135" yMin="-27" xMax="1880" yMax="1399">
      <contour>
        <pt x="1880" y="686" on="1"/>
        <pt x="1880" y="501" on="0"/>
        <pt x="1746" y="232" on="0"/>
        <pt x="1512" y="57" on="0"/>
        <pt x="1194" y="-27" on="0"/>
        <pt x="1010" y="-27" on="1"/>
        <pt x="825" y="-27" on="0"/>
        <pt x="505" y="57" on="0"/>
        <pt x="269" y="232" on="0"/>
        <pt x="135" y="501" on="0"/>
        <pt x="135" y="686" on="1"/>
        <pt x="135" y="809" on="0"/>
        <pt x="197" y="1010" on="0"/>
        <pt x="309" y="1169" on="0"/>
        <pt x="468" y="1285" on="0"/>
        <pt x="663" y="1362" on="0"/>
        <pt x="887" y="1399" on="0"/>
        <pt x="1010" y="1399" on="1"/>
        <pt x="1194" y="1399" on="0"/>
        <pt x="1512" y="1315" on="0"/>
        <pt x="1746" y="1140" on="0"/>
        <pt x="1880" y="871" on="0"/>
      </contour>
      <contour>
        <pt x="1751" y="686" on="1"/>
        <pt x="1751" y="832" on="0"/>
        <pt x="1656" y="1056" on="0"/>
        <pt x="1470" y="1209" on="0"/>
        <pt x="1193" y="1288" on="0"/>
        <pt x="1010" y="1288" on="1"/>
        <pt x="827" y="1288" on="0"/>
        <pt x="548" y="1208" on="0"/>
        <pt x="360" y="1055" on="0"/>
        <pt x="264" y="830" on="0"/>
        <pt x="264" y="686" on="1"/>
        <pt x="264" y="540" on="0"/>
        <pt x="360" y="316" on="0"/>
        <pt x="548" y="163" on="0"/>
        <pt x="827" y="84" on="0"/>
        <pt x="1010" y="84" on="1"/>
        <pt x="1193" y="84" on="0"/>
        <pt x="1470" y="163" on="0"/>
        <pt x="1656" y="316" on="0"/>
        <pt x="1751" y="540" on="0"/>
      </contour>
    </TTGlyph>
    <TTGlyph name="oacute" xMin="135" yMin="-27" xMax="1880" yMax="1792">
      <component glyphName="o" x="0" y="0" flags="0x204"/>
      <component glyphName="acute" x="469" y="362" flags="0x4"/>
    </TTGlyph>
    <TTGlyph name="obreve" xMin="135" yMin="-27" xMax="1880" yMax="1751">
      <component glyphName="o" x="0" y="0" flags="0x204"/>
      <component glyphName="breve" x="469" y="362" flags="0x4"/>
    </TTGlyph>
    <TTGlyph name="ocircumflex" xMin="135" yMin="-27" xMax="1880" yMax="1792">
      <component glyphName="o" x="0" y="0" flags="0x204"/>
      <component glyphName="circumflex" x="469" y="362" flags="0x4"/>
    </TTGlyph>
    <TTGlyph name="odieresis" xMin="135" yMin="-27" xMax="1880" yMax="1669">
      <component glyphName="o" x="0" y="0" flags="0x204"/>
      <component glyphName="dieresis" x="469" y="362" flags="0x4"/>
    </TTGlyph>
    <TTGlyph name="oe" xMin="135" yMin="-27" xMax="3344" yMax="1399">
      <contour>
        <pt x="3232" y="72" on="1"/>
        <pt x="3147" y="46" on="0"/>
        <pt x="3004" y="9" on="0"/>
        <pt x="2864" y="-14" on="0"/>
        <pt x="2719" y="-25" on="0"/>
        <pt x="2632" y="-25" on="1"/>
        <pt x="2482" y="-25" on="0"/>
        <pt x="2225" y="29" on="0"/>
        <pt x="2018" y="132" on="0"/>
        <pt x="1864" y="280" on="0"/>
        <pt x="1817" y="375" on="1"/>
        <pt x="1769" y="271" on="0"/>
        <pt x="1610" y="120" on="0"/>
        <pt x="1401" y="21" on="0"/>
        <pt x="1149" y="-27" on="0"/>
        <pt x="1010" y="-27" on="1"/>
        <pt x="825" y="-27" on="0"/>
        <pt x="505" y="57" on="0"/>
        <pt x="269" y="232" on="0"/>
        <pt x="135" y="501" on="0"/>
        <pt x="135" y="686" on="1"/>
        <pt x="135" y="809" on="0"/>
        <pt x="197" y="1010" on="0"/>
        <pt x="309" y="1169" on="0"/>
        <pt x="468" y="1285" on="0"/>
        <pt x="663" y="1362" on="0"/>
        <pt x="887" y="1399" on="0"/>
        <pt x="1010" y="1399" on="1"/>
        <pt x="1151" y="1399" on="0"/>
        <pt x="1405" y="1350" on="0"/>
        <pt x="1615" y="1248" on="0"/>
        <pt x="1774" y="1093" on="0"/>
        <pt x="1821" y="987" on="1"/>
        <pt x="1867" y="1079" on="0"/>
        <pt x="2012" y="1228" on="0"/>
        <pt x="2201" y="1333" on="0"/>
        <pt x="2431" y="1389" on="0"/>
        <pt x="2562" y="1389" on="1"/>
        <pt x="2749" y="1389" on="0"/>
        <pt x="3041" y="1289" on="0"/>
        <pt x="3240" y="1103" on="0"/>
        <pt x="3344" y="838" on="0"/>
        <pt x="3344" y="672" on="1"/>
        <pt x="3344" y="641" on="1"/>
        <pt x="1880" y="641" on="1"/>
        <pt x="1891" y="513" on="0"/>
        <pt x="1997" y="307" on="0"/>
        <pt x="2192" y="163" on="0"/>
        <pt x="2477" y="86" on="0"/>
        <pt x="2666" y="86" on="1"/>
        <pt x="2747" y="86" on="0"/>
        <pt x="2914" y="108" on="0"/>
        <pt x="3066" y="145" on="0"/>
        <pt x="3192" y="192" on="0"/>
        <pt x="3232" y="217" on="1"/>
      </contour>
      <contour>
        <pt x="1751" y="686" on="1"/>
        <pt x="1751" y="832" on="0"/>
        <pt x="1656" y="1056" on="0"/>
        <pt x="1470" y="1209" on="0"/>
        <pt x="1193" y="1288" on="0"/>
        <pt x="1010" y="1288" on="1"/>
        <pt x="827" y="1288" on="0"/>
        <pt x="548" y="1208" on="0"/>
        <pt x="360" y="1055" on="0"/>
        <pt x="264" y="830" on="0"/>
        <pt x="264" y="686" on="1"/>
        <pt x="264" y="540" on="0"/>
        <pt x="360" y="316" on="0"/>
        <pt x="548" y="163" on="0"/>
        <pt x="827" y="84" on="0"/>
        <pt x="1010" y="84" on="1"/>
        <pt x="1193" y="84" on="0"/>
        <pt x="1470" y="163" on="0"/>
        <pt x="1656" y="316" on="0"/>
        <pt x="1751" y="540" on="0"/>
      </contour>
      <contour>
        <pt x="3222" y="750" on="1"/>
        <pt x="3215" y="855" on="0"/>
        <pt x="3135" y="1046" on="0"/>
        <pt x="2976" y="1192" on="0"/>
        <pt x="2731" y="1278" on="0"/>
        <pt x="2560" y="1278" on="1"/>
        <pt x="2399" y="1278" on="0"/>
        <pt x="2157" y="1192" on="0"/>
        <pt x="1989" y="1047" on="0"/>
        <pt x="1893" y="856" on="0"/>
        <pt x="1880" y="750" on="1"/>
      </contour>
    </TTGlyph>
</ttFont>
